<svg xmlns="http://www.w3.org/2000/svg" width="1600" height="1000" viewBox="0 0 1600 1000" role="img" aria-label="AI Agents: From Idea to Deployment thumbnail">
  <defs>
    <filter id="grain" x="0" y="0" width="100%" height="100%">
      <feTurbulence type="fractalNoise" baseFrequency="0.9" numOctaves="2" stitchTiles="stitch"/>
      <feColorMatrix type="saturate" values="0"/>
      <feComponentTransfer><feFuncA type="table" tableValues="0 0.06"/></feComponentTransfer>
    </filter>
    <clipPath id="safe"><rect x="50" y="110" width="1500" height="790"/></clipPath>
  </defs>
  <rect width="1600" height="1000" fill="#FAF8F3"/>
  <g clip-path="url(#safe)"><path d="M420 335 Q 680 260 860 265" fill="none" stroke="#141416" stroke-opacity="0.4" stroke-width="3" stroke-dasharray="10 8"/><path d="M860 265 Q 1080 315 1220 445" fill="none" stroke="#141416" stroke-opacity="0.4" stroke-width="3" stroke-dasharray="10 8"/><path d="M1220 445 Q 1070 530 840 695" fill="none" stroke="#141416" stroke-opacity="0.4" stroke-width="3" stroke-dasharray="10 8"/><path d="M840 695 Q 670 475 420 335" fill="none" stroke="#141416" stroke-opacity="0.4" stroke-width="3" stroke-dasharray="10 8"/><path d="M420 335 Q 860 350 1220 445" fill="none" stroke="#141416" stroke-opacity="0.4" stroke-width="3" stroke-dasharray="10 8"/><circle cx="420" cy="335" r="74" fill="#B8412B" stroke="#141416" stroke-width="4"/><circle cx="420" cy="321" r="18" fill="#FAF8F3" fill-opacity="0.85"/><path d="M386 375 C 386 335, 454 335, 454 375" fill="#FAF8F3" fill-opacity="0.85"/><text x="381.5" y="443" font-family="ui-monospace, 'JetBrains Mono', Menlo, monospace" font-size="18" letter-spacing="2" fill="#141416">Planner</text><circle cx="860" cy="265" r="74" fill="#FAF8F3" stroke="#141416" stroke-width="4"/><circle cx="860" cy="251" r="18" fill="#141416" fill-opacity="0.85"/><path d="M826 305 C 826 265, 894 265, 894 305" fill="#141416" fill-opacity="0.85"/><text x="805" y="373" font-family="ui-monospace, 'JetBrains Mono', Menlo, monospace" font-size="18" letter-spacing="2" fill="#141416">Researcher</text><circle cx="1220" cy="445" r="74" fill="#FAF8F3" stroke="#141416" stroke-width="4"/><circle cx="1220" cy="431" r="18" fill="#141416" fill-opacity="0.85"/><path d="M1186 485 C 1186 445, 1254 445, 1254 485" fill="#141416" fill-opacity="0.85"/><text x="1187" y="553" font-family="ui-monospace, 'JetBrains Mono', Menlo, monospace" font-size="18" letter-spacing="2" fill="#141416">Writer</text><circle cx="840" cy="695" r="74" fill="#FAF8F3" stroke="#141416" stroke-width="4"/><circle cx="840" cy="681" r="18" fill="#141416" fill-opacity="0.85"/><path d="M806 735 C 806 695, 874 695, 874 735" fill="#141416" fill-opacity="0.85"/><text x="796" y="803" font-family="ui-monospace, 'JetBrains Mono', Menlo, monospace" font-size="18" letter-spacing="2" fill="#141416">Reviewer</text><rect x="110" y="670" width="30" height="30" rx="6" fill="#B8412B" fill-opacity="0.85"/><text x="154" y="692" font-family="ui-monospace, 'JetBrains Mono', Menlo, monospace" font-size="18" fill="#6B6B70">web search</text><rect x="110" y="716" width="30" height="30" rx="6" fill="#B8412B" fill-opacity="0.85"/><text x="154" y="738" font-family="ui-monospace, 'JetBrains Mono', Menlo, monospace" font-size="18" fill="#6B6B70">FAISS RAG</text><rect x="110" y="762" width="30" height="30" rx="6" fill="#B8412B" fill-opacity="0.85"/><text x="154" y="784" font-family="ui-monospace, 'JetBrains Mono', Menlo, monospace" font-size="18" fill="#6B6B70">calculator</text></g>
  <rect width="1600" height="1000" filter="url(#grain)" opacity="0.7"/>
  <rect x="40" y="40" width="1520" height="920" fill="none" stroke="#141416" stroke-opacity="0.35" stroke-width="2"/>
  <text x="90" y="104" font-family="ui-monospace, 'JetBrains Mono', Menlo, monospace" font-size="24" letter-spacing="4" fill="#6B6B70">LLMS, RAG &amp; AGENTS  ·  2025</text>
  <circle cx="1500" cy="96" r="10" fill="#B8412B"/>
  <rect x="1398" y="780" width="142" height="180" fill="#FAF8F3" fill-opacity="0.82" rx="8"/>
  <text x="1510" y="904" text-anchor="end" font-family="Georgia, 'Times New Roman', serif" font-size="150" font-weight="500" fill="#141416" letter-spacing="-6">4</text>
  <text x="1508" y="942" text-anchor="end" font-family="ui-monospace, 'JetBrains Mono', Menlo, monospace" font-size="22" letter-spacing="3" fill="#6B6B70">COOPERATING AGENTS</text>
</svg>
