<svg xmlns="http://www.w3.org/2000/svg" width="1600" height="1000" viewBox="0 0 1600 1000" role="img" aria-label="FPGA Smart Car Security System thumbnail">
  <defs>
    <filter id="grain" x="0" y="0" width="100%" height="100%">
      <feTurbulence type="fractalNoise" baseFrequency="0.9" numOctaves="2" stitchTiles="stitch"/>
      <feColorMatrix type="saturate" values="0"/>
      <feComponentTransfer><feFuncA type="table" tableValues="0 0.06"/></feComponentTransfer>
    </filter>
    <clipPath id="safe"><rect x="50" y="110" width="1500" height="790"/></clipPath>
  </defs>
  <rect width="1600" height="1000" fill="#FAF8F3"/>
  <g clip-path="url(#safe)"><path d="M290 190 L330 190 L330 150 L450 150 L450 150 L650 150" fill="none" stroke="#141416" stroke-opacity="0.28" stroke-width="3" stroke-linejoin="round" stroke-linecap="round"/><circle cx="650" cy="150" r="6" fill="#FAF8F3" stroke="#141416" stroke-opacity="0.5" stroke-width="3"/><path d="M810 710 L930 710 L930 670 L1130 670 L1130 710 L1290 710" fill="none" stroke="#141416" stroke-opacity="0.28" stroke-width="3" stroke-linejoin="round" stroke-linecap="round"/><circle cx="1290" cy="710" r="6" fill="#FAF8F3" stroke="#141416" stroke-opacity="0.5" stroke-width="3"/><path d="M1130 190 L1130 150 L970 150 L970 190 L1090 190 L1090 350 L1210 350 L1210 470" fill="none" stroke="#141416" stroke-opacity="0.28" stroke-width="3" stroke-linejoin="round" stroke-linecap="round"/><circle cx="1210" cy="470" r="6" fill="#FAF8F3" stroke="#141416" stroke-opacity="0.5" stroke-width="3"/><path d="M330 470 L330 430 L450 430 L450 350 L290 350" fill="none" stroke="#141416" stroke-opacity="0.28" stroke-width="3" stroke-linejoin="round" stroke-linecap="round"/><circle cx="290" cy="350" r="6" fill="#FAF8F3" stroke="#141416" stroke-opacity="0.5" stroke-width="3"/><path d="M90 150 L290 150 L290 230 L490 230" fill="none" stroke="#1F4E79" stroke-opacity="0.9" stroke-width="5" stroke-linejoin="round" stroke-linecap="round"/><circle cx="490" cy="230" r="9" fill="#FAF8F3" stroke="#1F4E79" stroke-opacity="1" stroke-width="3"/><path d="M1130 550 L1130 470 L1050 470 L1050 550 L970 550 L970 510 L890 510 L890 670 L1010 670" fill="none" stroke="#141416" stroke-opacity="0.28" stroke-width="3" stroke-linejoin="round" stroke-linecap="round"/><circle cx="1010" cy="670" r="6" fill="#FAF8F3" stroke="#141416" stroke-opacity="0.5" stroke-width="3"/><path d="M130 470 L130 550 L330 550 L330 390 L130 390 L130 190" fill="none" stroke="#141416" stroke-opacity="0.28" stroke-width="3" stroke-linejoin="round" stroke-linecap="round"/><circle cx="130" cy="190" r="6" fill="#FAF8F3" stroke="#141416" stroke-opacity="0.5" stroke-width="3"/><path d="M1010 470 L1010 590 L890 590 L890 470 L1090 470 L1090 310 L970 310 L970 270 L1050 270" fill="none" stroke="#141416" stroke-opacity="0.28" stroke-width="3" stroke-linejoin="round" stroke-linecap="round"/><circle cx="1050" cy="270" r="6" fill="#FAF8F3" stroke="#141416" stroke-opacity="0.5" stroke-width="3"/><path d="M890 550 L890 710 L1050 710 L1050 670 L1130 670 L1130 470 L1090 470" fill="none" stroke="#141416" stroke-opacity="0.28" stroke-width="3" stroke-linejoin="round" stroke-linecap="round"/><circle cx="1090" cy="470" r="6" fill="#FAF8F3" stroke="#141416" stroke-opacity="0.5" stroke-width="3"/><path d="M1370 470 L1370 310 L1290 310 L1290 510 L1130 510" fill="none" stroke="#1F4E79" stroke-opacity="0.9" stroke-width="5" stroke-linejoin="round" stroke-linecap="round"/><circle cx="1130" cy="510" r="9" fill="#FAF8F3" stroke="#1F4E79" stroke-opacity="1" stroke-width="3"/><path d="M170 390 L170 470 L90 470 L90 590 L90 590" fill="none" stroke="#1F4E79" stroke-opacity="0.9" stroke-width="5" stroke-linejoin="round" stroke-linecap="round"/><circle cx="90" cy="590" r="9" fill="#FAF8F3" stroke="#1F4E79" stroke-opacity="1" stroke-width="3"/><path d="M410 310 L570 310 L570 190 L770 190 L770 230 L810 230" fill="none" stroke="#141416" stroke-opacity="0.28" stroke-width="3" stroke-linejoin="round" stroke-linecap="round"/><circle cx="810" cy="230" r="6" fill="#FAF8F3" stroke="#141416" stroke-opacity="0.5" stroke-width="3"/><path d="M290 510 L410 510 L410 550 L370 550 L370 750 L210 750" fill="none" stroke="#141416" stroke-opacity="0.28" stroke-width="3" stroke-linejoin="round" stroke-linecap="round"/><circle cx="210" cy="750" r="6" fill="#FAF8F3" stroke="#141416" stroke-opacity="0.5" stroke-width="3"/><path d="M1450 670 L1450 750 L1510 750 L1510 820 L1510 820 L1510 620 L1470 620" fill="none" stroke="#141416" stroke-opacity="0.28" stroke-width="3" stroke-linejoin="round" stroke-linecap="round"/><circle cx="1470" cy="620" r="6" fill="#FAF8F3" stroke="#141416" stroke-opacity="0.5" stroke-width="3"/><path d="M130 230 L290 230 L290 350 L410 350 L410 150" fill="none" stroke="#141416" stroke-opacity="0.28" stroke-width="3" stroke-linejoin="round" stroke-linecap="round"/><circle cx="410" cy="150" r="6" fill="#FAF8F3" stroke="#141416" stroke-opacity="0.5" stroke-width="3"/><path d="M1210 310 L1050 310 L1050 390 L890 390 L890 270 L850 270 L850 150" fill="none" stroke="#141416" stroke-opacity="0.28" stroke-width="3" stroke-linejoin="round" stroke-linecap="round"/><circle cx="850" cy="150" r="6" fill="#FAF8F3" stroke="#141416" stroke-opacity="0.5" stroke-width="3"/><path d="M90 590 L90 710 L90 710 L90 630 L90 630 L90 710 L90 710 L90 820" fill="none" stroke="#141416" stroke-opacity="0.28" stroke-width="3" stroke-linejoin="round" stroke-linecap="round"/><circle cx="90" cy="820" r="6" fill="#FAF8F3" stroke="#141416" stroke-opacity="0.5" stroke-width="3"/><path d="M650 350 L650 190 L690 190 L690 150 L610 150 L610 310 L530 310 L530 430" fill="none" stroke="#141416" stroke-opacity="0.28" stroke-width="3" stroke-linejoin="round" stroke-linecap="round"/><circle cx="530" cy="430" r="6" fill="#FAF8F3" stroke="#141416" stroke-opacity="0.5" stroke-width="3"/><path d="M1410 590 L1410 470 L1290 470 L1290 550" fill="none" stroke="#1F4E79" stroke-opacity="0.9" stroke-width="5" stroke-linejoin="round" stroke-linecap="round"/><circle cx="1290" cy="550" r="9" fill="#FAF8F3" stroke="#1F4E79" stroke-opacity="1" stroke-width="3"/><path d="M1050 790 L1050 750 L970 750 L970 710 L810 710" fill="none" stroke="#141416" stroke-opacity="0.28" stroke-width="3" stroke-linejoin="round" stroke-linecap="round"/><circle cx="810" cy="710" r="6" fill="#FAF8F3" stroke="#141416" stroke-opacity="0.5" stroke-width="3"/><path d="M970 390 L970 590 L1010 590 L1010 670" fill="none" stroke="#141416" stroke-opacity="0.28" stroke-width="3" stroke-linejoin="round" stroke-linecap="round"/><circle cx="1010" cy="670" r="6" fill="#FAF8F3" stroke="#141416" stroke-opacity="0.5" stroke-width="3"/><path d="M1170 630 L1170 670 L1250 670 L1250 590 L1050 590 L1050 510 L930 510" fill="none" stroke="#141416" stroke-opacity="0.28" stroke-width="3" stroke-linejoin="round" stroke-linecap="round"/><circle cx="930" cy="510" r="6" fill="#FAF8F3" stroke="#141416" stroke-opacity="0.5" stroke-width="3"/><path d="M250 150 L250 150 L410 150 L410 150 L330 150 L330 150 L250 150 L250 350 L410 350" fill="none" stroke="#141416" stroke-opacity="0.28" stroke-width="3" stroke-linejoin="round" stroke-linecap="round"/><circle cx="410" cy="350" r="6" fill="#FAF8F3" stroke="#141416" stroke-opacity="0.5" stroke-width="3"/><path d="M1370 190 L1370 150 L1170 150 L1170 230 L970 230 L970 350 L890 350 L890 310 L690 310" fill="none" stroke="#1F4E79" stroke-opacity="0.9" stroke-width="5" stroke-linejoin="round" stroke-linecap="round"/><circle cx="690" cy="310" r="9" fill="#FAF8F3" stroke="#1F4E79" stroke-opacity="1" stroke-width="3"/><path d="M530 390 L610 390 L610 470 L690 470" fill="none" stroke="#141416" stroke-opacity="0.28" stroke-width="3" stroke-linejoin="round" stroke-linecap="round"/><circle cx="690" cy="470" r="6" fill="#FAF8F3" stroke="#141416" stroke-opacity="0.5" stroke-width="3"/><path d="M210 470 L210 630 L90 630 L90 550 L250 550 L250 630 L450 630 L450 820" fill="none" stroke="#141416" stroke-opacity="0.28" stroke-width="3" stroke-linejoin="round" stroke-linecap="round"/><circle cx="450" cy="820" r="6" fill="#FAF8F3" stroke="#141416" stroke-opacity="0.5" stroke-width="3"/><path d="M130 230 L210 230 L210 390 L90 390 L90 510 L90 510 L90 710" fill="none" stroke="#141416" stroke-opacity="0.28" stroke-width="3" stroke-linejoin="round" stroke-linecap="round"/><circle cx="90" cy="710" r="6" fill="#FAF8F3" stroke="#141416" stroke-opacity="0.5" stroke-width="3"/><path d="M810 510 L730 510 L730 350 L930 350" fill="none" stroke="#141416" stroke-opacity="0.28" stroke-width="3" stroke-linejoin="round" stroke-linecap="round"/><circle cx="930" cy="350" r="6" fill="#FAF8F3" stroke="#141416" stroke-opacity="0.5" stroke-width="3"/><path d="M90 190 L90 190 L90 150 L130 150" fill="none" stroke="#141416" stroke-opacity="0.28" stroke-width="3" stroke-linejoin="round" stroke-linecap="round"/><circle cx="130" cy="150" r="6" fill="#FAF8F3" stroke="#141416" stroke-opacity="0.5" stroke-width="3"/><path d="M1090 670 L890 670 L890 470 L1090 470 L1090 550 L930 550 L930 430 L770 430" fill="none" stroke="#1F4E79" stroke-opacity="0.9" stroke-width="5" stroke-linejoin="round" stroke-linecap="round"/><circle cx="770" cy="430" r="9" fill="#FAF8F3" stroke="#1F4E79" stroke-opacity="1" stroke-width="3"/><rect x="970" y="390" width="240" height="200" rx="6" fill="#FAF8F3" stroke="#141416" stroke-width="4"/><rect x="984" y="404" width="212" height="172" rx="3" fill="#141416" fill-opacity="0.9"/><circle cx="1000" cy="420" r="6" fill="#1F4E79"/><line x1="990" y1="376" x2="990" y2="390" stroke="#141416" stroke-width="4"/><line x1="990" y1="590" x2="990" y2="604" stroke="#141416" stroke-width="4"/><line x1="1030" y1="376" x2="1030" y2="390" stroke="#141416" stroke-width="4"/><line x1="1030" y1="590" x2="1030" y2="604" stroke="#141416" stroke-width="4"/><line x1="1070" y1="376" x2="1070" y2="390" stroke="#141416" stroke-width="4"/><line x1="1070" y1="590" x2="1070" y2="604" stroke="#141416" stroke-width="4"/><line x1="1110" y1="376" x2="1110" y2="390" stroke="#141416" stroke-width="4"/><line x1="1110" y1="590" x2="1110" y2="604" stroke="#141416" stroke-width="4"/><line x1="1150" y1="376" x2="1150" y2="390" stroke="#141416" stroke-width="4"/><line x1="1150" y1="590" x2="1150" y2="604" stroke="#141416" stroke-width="4"/><line x1="1190" y1="376" x2="1190" y2="390" stroke="#141416" stroke-width="4"/><line x1="1190" y1="590" x2="1190" y2="604" stroke="#141416" stroke-width="4"/><rect x="690" y="230" width="280" height="200" rx="6" fill="#FAF8F3" stroke="#141416" stroke-width="4"/><rect x="704" y="244" width="252" height="172" rx="3" fill="#141416" fill-opacity="0.9"/><circle cx="720" cy="260" r="6" fill="#1F4E79"/><line x1="710" y1="216" x2="710" y2="230" stroke="#141416" stroke-width="4"/><line x1="710" y1="430" x2="710" y2="444" stroke="#141416" stroke-width="4"/><line x1="750" y1="216" x2="750" y2="230" stroke="#141416" stroke-width="4"/><line x1="750" y1="430" x2="750" y2="444" stroke="#141416" stroke-width="4"/><line x1="790" y1="216" x2="790" y2="230" stroke="#141416" stroke-width="4"/><line x1="790" y1="430" x2="790" y2="444" stroke="#141416" stroke-width="4"/><line x1="830" y1="216" x2="830" y2="230" stroke="#141416" stroke-width="4"/><line x1="830" y1="430" x2="830" y2="444" stroke="#141416" stroke-width="4"/><line x1="870" y1="216" x2="870" y2="230" stroke="#141416" stroke-width="4"/><line x1="870" y1="430" x2="870" y2="444" stroke="#141416" stroke-width="4"/><line x1="910" y1="216" x2="910" y2="230" stroke="#141416" stroke-width="4"/><line x1="910" y1="430" x2="910" y2="444" stroke="#141416" stroke-width="4"/><line x1="950" y1="216" x2="950" y2="230" stroke="#141416" stroke-width="4"/><line x1="950" y1="430" x2="950" y2="444" stroke="#141416" stroke-width="4"/><path d="M90 880 L90 854 L128 854 L128 880 L166 880 L166 854 L204 854 L204 880 L242 880 L242 854 L280 854 L280 880 L318 880 L318 854 L356 854 L356 880 L394 880 L394 854 L432 854 L432 880 L470 880 L470 854 L508 854 L508 880 L546 880 L546 854 L584 854 L584 880 L622 880 L622 854 L660 854 L660 880 L698 880 L698 854 L736 854 L736 880 L774 880 L774 854 L812 854 L812 880 L850 880 L850 854 L888 854 L888 880 L926 880 L926 854 L964 854 L964 880 L1002 880 L1002 854 L1040 854 L1040 880 L1078 880 L1078 854 L1116 854 L1116 880 L1154 880 L1154 854 L1192 854 L1192 880 L1230 880 L1230 854 L1268 854 L1268 880 L1306 880 L1306 854 L1344 854 L1344 880 L1382 880 L1382 854 L1420 854 L1420 880 L1458 880 L1458 854 L1496 854 L1496 880 L1534 880" fill="none" stroke="#1F4E79" stroke-width="3.5" stroke-linejoin="round"/></g>
  <rect width="1600" height="1000" filter="url(#grain)" opacity="0.7"/>
  <rect x="40" y="40" width="1520" height="920" fill="none" stroke="#141416" stroke-opacity="0.35" stroke-width="2"/>
  <text x="90" y="104" font-family="ui-monospace, 'JetBrains Mono', Menlo, monospace" font-size="24" letter-spacing="4" fill="#6B6B70">FPGA &amp; DIGITAL DESIGN  ·  2025</text>
  <circle cx="1500" cy="96" r="10" fill="#1F4E79"/>
  
</svg>
