<svg xmlns="http://www.w3.org/2000/svg" width="1600" height="1000" viewBox="0 0 1600 1000" role="img" aria-label="Lightweight U-Net for Driving Scenes thumbnail">
  <defs>
    <filter id="grain" x="0" y="0" width="100%" height="100%">
      <feTurbulence type="fractalNoise" baseFrequency="0.9" numOctaves="2" stitchTiles="stitch"/>
      <feColorMatrix type="saturate" values="0"/>
      <feComponentTransfer><feFuncA type="table" tableValues="0 0.06"/></feComponentTransfer>
    </filter>
    <clipPath id="safe"><rect x="50" y="110" width="1500" height="790"/></clipPath>
  </defs>
  <rect width="1600" height="1000" fill="#FAF8F3"/>
  <g clip-path="url(#safe)"><rect x="90" y="150" width="1420" height="281.4" fill="#d2cdd9"/><rect x="90" y="431.4" width="1420" height="388.6" fill="#4E6B2F" fill-opacity="0.45"/><rect x="123.6" y="228.3" width="72.2" height="203.1" fill="#463b67" fill-opacity="0.5"/><rect x="286.5" y="219.2" width="68.7" height="212.2" fill="#463b67" fill-opacity="0.7"/><rect x="411.2" y="214.6" width="142.5" height="216.8" fill="#463b67" fill-opacity="0.5"/><rect x="565.6" y="244.5" width="95.1" height="186.9" fill="#463b67" fill-opacity="0.8"/><rect x="760" y="230" width="105.7" height="201.4" fill="#463b67" fill-opacity="0.8"/><rect x="900.8" y="253.8" width="75.3" height="177.6" fill="#463b67" fill-opacity="0.8"/><rect x="1062.4" y="267.8" width="69.6" height="163.6" fill="#463b67" fill-opacity="0.5"/><rect x="1215.9" y="334.1" width="85.6" height="97.3" fill="#463b67" fill-opacity="0.6"/><rect x="1370.4" y="241.1" width="144.5" height="190.3" fill="#463b67" fill-opacity="0.8"/><path d="M90 820 L710 431.4 L890 431.4 L1510 820 Z" fill="#939190"/><rect x="796" y="431.4" width="8" height="5.7" fill="#FAF8F3" fill-opacity="0.8"/><rect x="796" y="448.7" width="8" height="15.8" fill="#FAF8F3" fill-opacity="0.8"/><rect x="796" y="483.8" width="8" height="22.5" fill="#FAF8F3" fill-opacity="0.8"/><rect x="796" y="531.6" width="8" height="28" fill="#FAF8F3" fill-opacity="0.8"/><rect x="796" y="590.1" width="8" height="32.9" fill="#FAF8F3" fill-opacity="0.8"/><rect x="796" y="658.2" width="8" height="37.4" fill="#FAF8F3" fill-opacity="0.8"/><rect x="796" y="735.1" width="8" height="41.5" fill="#FAF8F3" fill-opacity="0.8"/><rect x="600" y="525.4" width="98" height="42" rx="5.6" fill="#5B4B8A"/><rect x="617.5" y="500.9" width="63" height="28" rx="5.6" fill="#5B4B8A"/><rect x="953.3" y="614.1" width="135.8" height="58.2" rx="7.76" fill="#5B4B8A"/><rect x="977.6" y="580.2" width="87.3" height="38.8" rx="7.76" fill="#5B4B8A"/><rect x="451.5" y="673.3" width="161" height="69" rx="9.2" fill="#5B4B8A"/><rect x="480.3" y="633" width="103.5" height="46" rx="9.2" fill="#5B4B8A"/><circle cx="290" cy="610" r="16" fill="#B8412B"/><rect x="278" y="626" width="24" height="70" rx="8" fill="#B8412B"/><rect x="114" y="170" width="22" height="22" rx="4" fill="#939190"/><text x="146" y="188" font-family="ui-monospace, 'JetBrains Mono', Menlo, monospace" font-size="18" fill="#141416">road</text><rect x="324" y="170" width="22" height="22" rx="4" fill="#5B4B8A"/><text x="356" y="188" font-family="ui-monospace, 'JetBrains Mono', Menlo, monospace" font-size="18" fill="#141416">vehicle</text><rect x="534" y="170" width="22" height="22" rx="4" fill="#B8412B"/><text x="566" y="188" font-family="ui-monospace, 'JetBrains Mono', Menlo, monospace" font-size="18" fill="#141416">pedestrian</text><rect x="744" y="170" width="22" height="22" rx="4" fill="#463b67"/><text x="776" y="188" font-family="ui-monospace, 'JetBrains Mono', Menlo, monospace" font-size="18" fill="#141416">building</text><rect x="954" y="170" width="22" height="22" rx="4" fill="#4E6B2F"/><text x="986" y="188" font-family="ui-monospace, 'JetBrains Mono', Menlo, monospace" font-size="18" fill="#141416">vegetation</text></g>
  <rect width="1600" height="1000" filter="url(#grain)" opacity="0.7"/>
  <rect x="40" y="40" width="1520" height="920" fill="none" stroke="#141416" stroke-opacity="0.35" stroke-width="2"/>
  <text x="90" y="104" font-family="ui-monospace, 'JetBrains Mono', Menlo, monospace" font-size="24" letter-spacing="4" fill="#6B6B70">COMPUTER VISION  ·  2025</text>
  <circle cx="1500" cy="96" r="10" fill="#5B4B8A"/>
  <rect x="1070" y="780" width="470" height="180" fill="#FAF8F3" fill-opacity="0.82" rx="8"/>
  <text x="1510" y="904" text-anchor="end" font-family="Georgia, 'Times New Roman', serif" font-size="150" font-weight="500" fill="#141416" letter-spacing="-6">0.53M</text>
  <text x="1508" y="942" text-anchor="end" font-family="ui-monospace, 'JetBrains Mono', Menlo, monospace" font-size="22" letter-spacing="3" fill="#6B6B70">PARAMETERS (FROM 8.7M)</text>
</svg>
