<svg xmlns="http://www.w3.org/2000/svg" width="1600" height="1000" viewBox="0 0 1600 1000" role="img" aria-label="Real-Time Fabric Defect Detection thumbnail">
  <defs>
    <filter id="grain" x="0" y="0" width="100%" height="100%">
      <feTurbulence type="fractalNoise" baseFrequency="0.9" numOctaves="2" stitchTiles="stitch"/>
      <feColorMatrix type="saturate" values="0"/>
      <feComponentTransfer><feFuncA type="table" tableValues="0 0.06"/></feComponentTransfer>
    </filter>
    <clipPath id="safe"><rect x="50" y="110" width="1500" height="790"/></clipPath>
  </defs>
  <rect width="1600" height="1000" fill="#FAF8F3"/>
  <g clip-path="url(#safe)"><line x1="97" y1="150" x2="97" y2="820" stroke="#141416" stroke-opacity="0.18" stroke-width="7.700000000000001"/><line x1="111" y1="150" x2="111" y2="820" stroke="#141416" stroke-opacity="0.18" stroke-width="7.700000000000001"/><line x1="125" y1="150" x2="125" y2="820" stroke="#141416" stroke-opacity="0.18" stroke-width="7.700000000000001"/><line x1="139" y1="150" x2="139" y2="820" stroke="#141416" stroke-opacity="0.18" stroke-width="7.700000000000001"/><line x1="153" y1="150" x2="153" y2="820" stroke="#141416" stroke-opacity="0.18" stroke-width="7.700000000000001"/><line x1="167" y1="150" x2="167" y2="820" stroke="#141416" stroke-opacity="0.18" stroke-width="7.700000000000001"/><line x1="181" y1="150" x2="181" y2="820" stroke="#141416" stroke-opacity="0.18" stroke-width="7.700000000000001"/><line x1="195" y1="150" x2="195" y2="820" stroke="#141416" stroke-opacity="0.18" stroke-width="7.700000000000001"/><line x1="209" y1="150" x2="209" y2="820" stroke="#141416" stroke-opacity="0.18" stroke-width="7.700000000000001"/><line x1="223" y1="150" x2="223" y2="820" stroke="#141416" stroke-opacity="0.18" stroke-width="7.700000000000001"/><line x1="237" y1="150" x2="237" y2="820" stroke="#141416" stroke-opacity="0.18" stroke-width="7.700000000000001"/><line x1="251" y1="150" x2="251" y2="820" stroke="#141416" stroke-opacity="0.18" stroke-width="7.700000000000001"/><line x1="265" y1="150" x2="265" y2="820" stroke="#141416" stroke-opacity="0.18" stroke-width="7.700000000000001"/><line x1="279" y1="150" x2="279" y2="820" stroke="#141416" stroke-opacity="0.18" stroke-width="7.700000000000001"/><line x1="293" y1="150" x2="293" y2="820" stroke="#141416" stroke-opacity="0.18" stroke-width="7.700000000000001"/><line x1="307" y1="150" x2="307" y2="820" stroke="#141416" stroke-opacity="0.18" stroke-width="7.700000000000001"/><line x1="321" y1="150" x2="321" y2="820" stroke="#141416" stroke-opacity="0.18" stroke-width="7.700000000000001"/><line x1="335" y1="150" x2="335" y2="820" stroke="#141416" stroke-opacity="0.18" stroke-width="7.700000000000001"/><line x1="349" y1="150" x2="349" y2="820" stroke="#141416" stroke-opacity="0.18" stroke-width="7.700000000000001"/><line x1="363" y1="150" x2="363" y2="820" stroke="#141416" stroke-opacity="0.18" stroke-width="7.700000000000001"/><line x1="377" y1="150" x2="377" y2="820" stroke="#141416" stroke-opacity="0.18" stroke-width="7.700000000000001"/><line x1="391" y1="150" x2="391" y2="820" stroke="#141416" stroke-opacity="0.18" stroke-width="7.700000000000001"/><line x1="405" y1="150" x2="405" y2="820" stroke="#141416" stroke-opacity="0.18" stroke-width="7.700000000000001"/><line x1="419" y1="150" x2="419" y2="820" stroke="#141416" stroke-opacity="0.18" stroke-width="7.700000000000001"/><line x1="433" y1="150" x2="433" y2="820" stroke="#141416" stroke-opacity="0.18" stroke-width="7.700000000000001"/><line x1="447" y1="150" x2="447" y2="820" stroke="#141416" stroke-opacity="0.18" stroke-width="7.700000000000001"/><line x1="461" y1="150" x2="461" y2="820" stroke="#141416" stroke-opacity="0.18" stroke-width="7.700000000000001"/><line x1="475" y1="150" x2="475" y2="820" stroke="#141416" stroke-opacity="0.18" stroke-width="7.700000000000001"/><line x1="489" y1="150" x2="489" y2="820" stroke="#141416" stroke-opacity="0.18" stroke-width="7.700000000000001"/><line x1="503" y1="150" x2="503" y2="820" stroke="#141416" stroke-opacity="0.18" stroke-width="7.700000000000001"/><line x1="517" y1="150" x2="517" y2="820" stroke="#141416" stroke-opacity="0.18" stroke-width="7.700000000000001"/><line x1="531" y1="150" x2="531" y2="820" stroke="#141416" stroke-opacity="0.18" stroke-width="7.700000000000001"/><line x1="545" y1="150" x2="545" y2="820" stroke="#141416" stroke-opacity="0.18" stroke-width="7.700000000000001"/><line x1="559" y1="150" x2="559" y2="820" stroke="#141416" stroke-opacity="0.18" stroke-width="7.700000000000001"/><line x1="573" y1="150" x2="573" y2="820" stroke="#141416" stroke-opacity="0.18" stroke-width="7.700000000000001"/><line x1="587" y1="150" x2="587" y2="820" stroke="#141416" stroke-opacity="0.18" stroke-width="7.700000000000001"/><line x1="601" y1="150" x2="601" y2="820" stroke="#141416" stroke-opacity="0.18" stroke-width="7.700000000000001"/><line x1="615" y1="150" x2="615" y2="820" stroke="#141416" stroke-opacity="0.18" stroke-width="7.700000000000001"/><line x1="629" y1="150" x2="629" y2="820" stroke="#141416" stroke-opacity="0.18" stroke-width="7.700000000000001"/><line x1="643" y1="150" x2="643" y2="820" stroke="#141416" stroke-opacity="0.18" stroke-width="7.700000000000001"/><line x1="657" y1="150" x2="657" y2="820" stroke="#141416" stroke-opacity="0.18" stroke-width="7.700000000000001"/><line x1="671" y1="150" x2="671" y2="820" stroke="#141416" stroke-opacity="0.18" stroke-width="7.700000000000001"/><line x1="685" y1="150" x2="685" y2="820" stroke="#141416" stroke-opacity="0.18" stroke-width="7.700000000000001"/><line x1="699" y1="150" x2="699" y2="820" stroke="#141416" stroke-opacity="0.18" stroke-width="7.700000000000001"/><line x1="713" y1="150" x2="713" y2="820" stroke="#141416" stroke-opacity="0.18" stroke-width="7.700000000000001"/><line x1="727" y1="150" x2="727" y2="820" stroke="#141416" stroke-opacity="0.18" stroke-width="7.700000000000001"/><line x1="741" y1="150" x2="741" y2="820" stroke="#141416" stroke-opacity="0.18" stroke-width="7.700000000000001"/><line x1="755" y1="150" x2="755" y2="820" stroke="#141416" stroke-opacity="0.18" stroke-width="7.700000000000001"/><line x1="769" y1="150" x2="769" y2="820" stroke="#141416" stroke-opacity="0.18" stroke-width="7.700000000000001"/><line x1="783" y1="150" x2="783" y2="820" stroke="#141416" stroke-opacity="0.18" stroke-width="7.700000000000001"/><line x1="797" y1="150" x2="797" y2="820" stroke="#141416" stroke-opacity="0.18" stroke-width="7.700000000000001"/><line x1="811" y1="150" x2="811" y2="820" stroke="#141416" stroke-opacity="0.18" stroke-width="7.700000000000001"/><line x1="825" y1="150" x2="825" y2="820" stroke="#141416" stroke-opacity="0.18" stroke-width="7.700000000000001"/><line x1="839" y1="150" x2="839" y2="820" stroke="#141416" stroke-opacity="0.18" stroke-width="7.700000000000001"/><line x1="853" y1="150" x2="853" y2="820" stroke="#141416" stroke-opacity="0.18" stroke-width="7.700000000000001"/><line x1="867" y1="150" x2="867" y2="820" stroke="#141416" stroke-opacity="0.18" stroke-width="7.700000000000001"/><line x1="881" y1="150" x2="881" y2="820" stroke="#141416" stroke-opacity="0.18" stroke-width="7.700000000000001"/><line x1="895" y1="150" x2="895" y2="820" stroke="#141416" stroke-opacity="0.18" stroke-width="7.700000000000001"/><line x1="909" y1="150" x2="909" y2="820" stroke="#141416" stroke-opacity="0.18" stroke-width="7.700000000000001"/><line x1="923" y1="150" x2="923" y2="820" stroke="#141416" stroke-opacity="0.18" stroke-width="7.700000000000001"/><line x1="937" y1="150" x2="937" y2="820" stroke="#141416" stroke-opacity="0.18" stroke-width="7.700000000000001"/><line x1="951" y1="150" x2="951" y2="820" stroke="#141416" stroke-opacity="0.18" stroke-width="7.700000000000001"/><line x1="965" y1="150" x2="965" y2="820" stroke="#141416" stroke-opacity="0.18" stroke-width="7.700000000000001"/><line x1="979" y1="150" x2="979" y2="820" stroke="#141416" stroke-opacity="0.18" stroke-width="7.700000000000001"/><line x1="993" y1="150" x2="993" y2="820" stroke="#141416" stroke-opacity="0.18" stroke-width="7.700000000000001"/><line x1="1007" y1="150" x2="1007" y2="820" stroke="#141416" stroke-opacity="0.18" stroke-width="7.700000000000001"/><line x1="1021" y1="150" x2="1021" y2="820" stroke="#141416" stroke-opacity="0.18" stroke-width="7.700000000000001"/><line x1="1035" y1="150" x2="1035" y2="820" stroke="#141416" stroke-opacity="0.18" stroke-width="7.700000000000001"/><line x1="1049" y1="150" x2="1049" y2="820" stroke="#141416" stroke-opacity="0.18" stroke-width="7.700000000000001"/><line x1="1063" y1="150" x2="1063" y2="820" stroke="#141416" stroke-opacity="0.18" stroke-width="7.700000000000001"/><line x1="1077" y1="150" x2="1077" y2="820" stroke="#141416" stroke-opacity="0.18" stroke-width="7.700000000000001"/><line x1="1091" y1="150" x2="1091" y2="820" stroke="#141416" stroke-opacity="0.18" stroke-width="7.700000000000001"/><line x1="1105" y1="150" x2="1105" y2="820" stroke="#141416" stroke-opacity="0.18" stroke-width="7.700000000000001"/><line x1="1119" y1="150" x2="1119" y2="820" stroke="#141416" stroke-opacity="0.18" stroke-width="7.700000000000001"/><line x1="1133" y1="150" x2="1133" y2="820" stroke="#141416" stroke-opacity="0.18" stroke-width="7.700000000000001"/><line x1="1147" y1="150" x2="1147" y2="820" stroke="#141416" stroke-opacity="0.18" stroke-width="7.700000000000001"/><line x1="1161" y1="150" x2="1161" y2="820" stroke="#141416" stroke-opacity="0.18" stroke-width="7.700000000000001"/><line x1="1175" y1="150" x2="1175" y2="820" stroke="#141416" stroke-opacity="0.18" stroke-width="7.700000000000001"/><line x1="1189" y1="150" x2="1189" y2="820" stroke="#141416" stroke-opacity="0.18" stroke-width="7.700000000000001"/><line x1="1203" y1="150" x2="1203" y2="820" stroke="#141416" stroke-opacity="0.18" stroke-width="7.700000000000001"/><line x1="1217" y1="150" x2="1217" y2="820" stroke="#141416" stroke-opacity="0.18" stroke-width="7.700000000000001"/><line x1="1231" y1="150" x2="1231" y2="820" stroke="#141416" stroke-opacity="0.18" stroke-width="7.700000000000001"/><line x1="1245" y1="150" x2="1245" y2="820" stroke="#141416" stroke-opacity="0.18" stroke-width="7.700000000000001"/><line x1="1259" y1="150" x2="1259" y2="820" stroke="#141416" stroke-opacity="0.18" stroke-width="7.700000000000001"/><line x1="1273" y1="150" x2="1273" y2="820" stroke="#141416" stroke-opacity="0.18" stroke-width="7.700000000000001"/><line x1="1287" y1="150" x2="1287" y2="820" stroke="#141416" stroke-opacity="0.18" stroke-width="7.700000000000001"/><line x1="1301" y1="150" x2="1301" y2="820" stroke="#141416" stroke-opacity="0.18" stroke-width="7.700000000000001"/><line x1="1315" y1="150" x2="1315" y2="820" stroke="#141416" stroke-opacity="0.18" stroke-width="7.700000000000001"/><line x1="1329" y1="150" x2="1329" y2="820" stroke="#141416" stroke-opacity="0.18" stroke-width="7.700000000000001"/><line x1="1343" y1="150" x2="1343" y2="820" stroke="#141416" stroke-opacity="0.18" stroke-width="7.700000000000001"/><line x1="1357" y1="150" x2="1357" y2="820" stroke="#141416" stroke-opacity="0.18" stroke-width="7.700000000000001"/><line x1="1371" y1="150" x2="1371" y2="820" stroke="#141416" stroke-opacity="0.18" stroke-width="7.700000000000001"/><line x1="1385" y1="150" x2="1385" y2="820" stroke="#141416" stroke-opacity="0.18" stroke-width="7.700000000000001"/><line x1="1399" y1="150" x2="1399" y2="820" stroke="#141416" stroke-opacity="0.18" stroke-width="7.700000000000001"/><line x1="1413" y1="150" x2="1413" y2="820" stroke="#141416" stroke-opacity="0.18" stroke-width="7.700000000000001"/><line x1="1427" y1="150" x2="1427" y2="820" stroke="#141416" stroke-opacity="0.18" stroke-width="7.700000000000001"/><line x1="1441" y1="150" x2="1441" y2="820" stroke="#141416" stroke-opacity="0.18" stroke-width="7.700000000000001"/><line x1="1455" y1="150" x2="1455" y2="820" stroke="#141416" stroke-opacity="0.18" stroke-width="7.700000000000001"/><line x1="1469" y1="150" x2="1469" y2="820" stroke="#141416" stroke-opacity="0.18" stroke-width="7.700000000000001"/><line x1="1483" y1="150" x2="1483" y2="820" stroke="#141416" stroke-opacity="0.18" stroke-width="7.700000000000001"/><line x1="1497" y1="150" x2="1497" y2="820" stroke="#141416" stroke-opacity="0.18" stroke-width="7.700000000000001"/><line x1="1511" y1="150" x2="1511" y2="820" stroke="#141416" stroke-opacity="0.18" stroke-width="7.700000000000001"/><line x1="90" y1="157" x2="1510" y2="157" stroke="#141416" stroke-opacity="0.12" stroke-width="7.700000000000001"/><line x1="90" y1="171" x2="1510" y2="171" stroke="#141416" stroke-opacity="0.12" stroke-width="7.700000000000001"/><line x1="90" y1="185" x2="1510" y2="185" stroke="#141416" stroke-opacity="0.12" stroke-width="7.700000000000001"/><line x1="90" y1="199" x2="1510" y2="199" stroke="#141416" stroke-opacity="0.12" stroke-width="7.700000000000001"/><line x1="90" y1="213" x2="1510" y2="213" stroke="#141416" stroke-opacity="0.12" stroke-width="7.700000000000001"/><line x1="90" y1="227" x2="1510" y2="227" stroke="#141416" stroke-opacity="0.12" stroke-width="7.700000000000001"/><line x1="90" y1="241" x2="1510" y2="241" stroke="#141416" stroke-opacity="0.12" stroke-width="7.700000000000001"/><line x1="90" y1="255" x2="1510" y2="255" stroke="#141416" stroke-opacity="0.12" stroke-width="7.700000000000001"/><line x1="90" y1="269" x2="1510" y2="269" stroke="#141416" stroke-opacity="0.12" stroke-width="7.700000000000001"/><line x1="90" y1="283" x2="1510" y2="283" stroke="#141416" stroke-opacity="0.12" stroke-width="7.700000000000001"/><line x1="90" y1="297" x2="1510" y2="297" stroke="#141416" stroke-opacity="0.12" stroke-width="7.700000000000001"/><line x1="90" y1="311" x2="1510" y2="311" stroke="#141416" stroke-opacity="0.12" stroke-width="7.700000000000001"/><line x1="90" y1="325" x2="1510" y2="325" stroke="#141416" stroke-opacity="0.12" stroke-width="7.700000000000001"/><line x1="90" y1="339" x2="1510" y2="339" stroke="#141416" stroke-opacity="0.12" stroke-width="7.700000000000001"/><line x1="90" y1="353" x2="1510" y2="353" stroke="#141416" stroke-opacity="0.12" stroke-width="7.700000000000001"/><line x1="90" y1="367" x2="1510" y2="367" stroke="#141416" stroke-opacity="0.12" stroke-width="7.700000000000001"/><line x1="90" y1="381" x2="1510" y2="381" stroke="#141416" stroke-opacity="0.12" stroke-width="7.700000000000001"/><line x1="90" y1="395" x2="1510" y2="395" stroke="#141416" stroke-opacity="0.12" stroke-width="7.700000000000001"/><line x1="90" y1="409" x2="1510" y2="409" stroke="#141416" stroke-opacity="0.12" stroke-width="7.700000000000001"/><line x1="90" y1="423" x2="1510" y2="423" stroke="#141416" stroke-opacity="0.12" stroke-width="7.700000000000001"/><line x1="90" y1="437" x2="1510" y2="437" stroke="#141416" stroke-opacity="0.12" stroke-width="7.700000000000001"/><line x1="90" y1="451" x2="1510" y2="451" stroke="#141416" stroke-opacity="0.12" stroke-width="7.700000000000001"/><line x1="90" y1="465" x2="1510" y2="465" stroke="#141416" stroke-opacity="0.12" stroke-width="7.700000000000001"/><line x1="90" y1="479" x2="1510" y2="479" stroke="#141416" stroke-opacity="0.12" stroke-width="7.700000000000001"/><line x1="90" y1="493" x2="1510" y2="493" stroke="#141416" stroke-opacity="0.12" stroke-width="7.700000000000001"/><line x1="90" y1="507" x2="1510" y2="507" stroke="#141416" stroke-opacity="0.12" stroke-width="7.700000000000001"/><line x1="90" y1="521" x2="1510" y2="521" stroke="#141416" stroke-opacity="0.12" stroke-width="7.700000000000001"/><line x1="90" y1="535" x2="1510" y2="535" stroke="#141416" stroke-opacity="0.12" stroke-width="7.700000000000001"/><line x1="90" y1="549" x2="1510" y2="549" stroke="#141416" stroke-opacity="0.12" stroke-width="7.700000000000001"/><line x1="90" y1="563" x2="1510" y2="563" stroke="#141416" stroke-opacity="0.12" stroke-width="7.700000000000001"/><line x1="90" y1="577" x2="1510" y2="577" stroke="#141416" stroke-opacity="0.12" stroke-width="7.700000000000001"/><line x1="90" y1="591" x2="1510" y2="591" stroke="#141416" stroke-opacity="0.12" stroke-width="7.700000000000001"/><line x1="90" y1="605" x2="1510" y2="605" stroke="#141416" stroke-opacity="0.12" stroke-width="7.700000000000001"/><line x1="90" y1="619" x2="1510" y2="619" stroke="#141416" stroke-opacity="0.12" stroke-width="7.700000000000001"/><line x1="90" y1="633" x2="1510" y2="633" stroke="#141416" stroke-opacity="0.12" stroke-width="7.700000000000001"/><line x1="90" y1="647" x2="1510" y2="647" stroke="#141416" stroke-opacity="0.12" stroke-width="7.700000000000001"/><line x1="90" y1="661" x2="1510" y2="661" stroke="#141416" stroke-opacity="0.12" stroke-width="7.700000000000001"/><line x1="90" y1="675" x2="1510" y2="675" stroke="#141416" stroke-opacity="0.12" stroke-width="7.700000000000001"/><line x1="90" y1="689" x2="1510" y2="689" stroke="#141416" stroke-opacity="0.12" stroke-width="7.700000000000001"/><line x1="90" y1="703" x2="1510" y2="703" stroke="#141416" stroke-opacity="0.12" stroke-width="7.700000000000001"/><line x1="90" y1="717" x2="1510" y2="717" stroke="#141416" stroke-opacity="0.12" stroke-width="7.700000000000001"/><line x1="90" y1="731" x2="1510" y2="731" stroke="#141416" stroke-opacity="0.12" stroke-width="7.700000000000001"/><line x1="90" y1="745" x2="1510" y2="745" stroke="#141416" stroke-opacity="0.12" stroke-width="7.700000000000001"/><line x1="90" y1="759" x2="1510" y2="759" stroke="#141416" stroke-opacity="0.12" stroke-width="7.700000000000001"/><line x1="90" y1="773" x2="1510" y2="773" stroke="#141416" stroke-opacity="0.12" stroke-width="7.700000000000001"/><line x1="90" y1="787" x2="1510" y2="787" stroke="#141416" stroke-opacity="0.12" stroke-width="7.700000000000001"/><line x1="90" y1="801" x2="1510" y2="801" stroke="#141416" stroke-opacity="0.12" stroke-width="7.700000000000001"/><line x1="90" y1="815" x2="1510" y2="815" stroke="#141416" stroke-opacity="0.12" stroke-width="7.700000000000001"/><path d="M850.4 455 C 930.4 395, 1030.4 495, 1110.4 445 C 1060.4 525, 950.4 575, 850.4 515 Z" fill="#FAF8F3" stroke="#5B4B8A" stroke-width="3"/><line x1="1032.9" y1="501" x2="1029.7" y2="522.6" stroke="#5B4B8A" stroke-width="2"/><line x1="901.7" y1="453.2" x2="907.9" y2="483.7" stroke="#5B4B8A" stroke-width="2"/><line x1="1009.9" y1="473.1" x2="1003.8" y2="511.4" stroke="#5B4B8A" stroke-width="2"/><line x1="920.4" y1="477.2" x2="915.3" y2="496.8" stroke="#5B4B8A" stroke-width="2"/><line x1="935.3" y1="438.4" x2="939.3" y2="469.5" stroke="#5B4B8A" stroke-width="2"/><line x1="1060.6" y1="453.5" x2="1061.4" y2="482.8" stroke="#5B4B8A" stroke-width="2"/><line x1="996.3" y1="476.1" x2="1001.7" y2="500" stroke="#5B4B8A" stroke-width="2"/><line x1="965.1" y1="484.1" x2="971.9" y2="517.5" stroke="#5B4B8A" stroke-width="2"/><line x1="931.6" y1="465.7" x2="928" y2="490.6" stroke="#5B4B8A" stroke-width="2"/><line x1="940.9" y1="485.1" x2="936.9" y2="506.6" stroke="#5B4B8A" stroke-width="2"/><line x1="1043.1" y1="501.5" x2="1041.6" y2="527.2" stroke="#5B4B8A" stroke-width="2"/><line x1="1014.7" y1="479.5" x2="1017" y2="493.7" stroke="#5B4B8A" stroke-width="2"/><line x1="982.7" y1="476.6" x2="978.4" y2="498.1" stroke="#5B4B8A" stroke-width="2"/><line x1="904.6" y1="443.2" x2="911.4" y2="469" stroke="#5B4B8A" stroke-width="2"/><line x1="920.3" y1="443.4" x2="921.8" y2="469.9" stroke="#5B4B8A" stroke-width="2"/><line x1="897.3" y1="478.8" x2="891.5" y2="496.3" stroke="#5B4B8A" stroke-width="2"/><line x1="958.3" y1="456.6" x2="954.2" y2="478.6" stroke="#5B4B8A" stroke-width="2"/><line x1="1031.4" y1="469.7" x2="1031.2" y2="499.3" stroke="#5B4B8A" stroke-width="2"/><rect x="820.1" y="403.3" width="335" height="132.5" fill="none" stroke="#141416" stroke-opacity="0.45" stroke-width="2" stroke-dasharray="8 6"/><text x="828.1" y="395.3" font-family="ui-monospace, 'JetBrains Mono', Menlo, monospace" font-size="15" fill="#6B6B70">GLCM</text><rect x="798.7" y="399.6" width="311.5" height="187.1" fill="none" stroke="#141416" stroke-opacity="0.45" stroke-width="2" stroke-dasharray="8 6"/><text x="806.7" y="391.6" font-family="ui-monospace, 'JetBrains Mono', Menlo, monospace" font-size="15" fill="#6B6B70">FFT</text><rect x="795.8" y="426.1" width="286.7" height="173.5" fill="none" stroke="#141416" stroke-opacity="0.45" stroke-width="2" stroke-dasharray="8 6"/><text x="803.8" y="418.1" font-family="ui-monospace, 'JetBrains Mono', Menlo, monospace" font-size="15" fill="#6B6B70">Gabor</text><rect x="790.7" y="403.6" width="265.1" height="153.4" fill="none" stroke="#141416" stroke-opacity="0.45" stroke-width="2" stroke-dasharray="8 6"/><text x="798.7" y="395.6" font-family="ui-monospace, 'JetBrains Mono', Menlo, monospace" font-size="15" fill="#6B6B70">Hough</text><rect x="810.4" y="405" width="330" height="165" fill="none" stroke="#5B4B8A" stroke-width="5"/><rect x="810.4" y="369" width="238" height="30" fill="#5B4B8A"/><text x="821.4" y="390" font-family="ui-monospace, 'JetBrains Mono', Menlo, monospace" font-size="18" fill="#FAF8F3">defect · IoU fused</text></g>
  <rect width="1600" height="1000" filter="url(#grain)" opacity="0.7"/>
  <rect x="40" y="40" width="1520" height="920" fill="none" stroke="#141416" stroke-opacity="0.35" stroke-width="2"/>
  <text x="90" y="104" font-family="ui-monospace, 'JetBrains Mono', Menlo, monospace" font-size="24" letter-spacing="4" fill="#6B6B70">COMPUTER VISION  ·  2025</text>
  <circle cx="1500" cy="96" r="10" fill="#5B4B8A"/>
  <rect x="1398" y="780" width="142" height="180" fill="#FAF8F3" fill-opacity="0.82" rx="8"/>
  <text x="1510" y="904" text-anchor="end" font-family="Georgia, 'Times New Roman', serif" font-size="150" font-weight="500" fill="#141416" letter-spacing="-6">6</text>
  <text x="1508" y="942" text-anchor="end" font-family="ui-monospace, 'JetBrains Mono', Menlo, monospace" font-size="22" letter-spacing="3" fill="#6B6B70">INDEPENDENT DETECTORS</text>
</svg>
