<svg xmlns="http://www.w3.org/2000/svg" width="1600" height="1000" viewBox="0 0 1600 1000" role="img" aria-label="AI Accelerator: Co-Design Pipeline thumbnail">
  <defs>
    <filter id="grain" x="0" y="0" width="100%" height="100%">
      <feTurbulence type="fractalNoise" baseFrequency="0.9" numOctaves="2" stitchTiles="stitch"/>
      <feColorMatrix type="saturate" values="0"/>
      <feComponentTransfer><feFuncA type="table" tableValues="0 0.06"/></feComponentTransfer>
    </filter>
    <clipPath id="safe"><rect x="50" y="110" width="1500" height="790"/></clipPath>
  </defs>
  <rect width="1600" height="1000" fill="#FAF8F3"/>
  <g clip-path="url(#safe)"><path d="M1050 550 L1130 550 L1130 670 L930 670 L930 710" fill="none" stroke="#141416" stroke-opacity="0.28" stroke-width="3" stroke-linejoin="round" stroke-linecap="round"/><circle cx="930" cy="710" r="6" fill="#FAF8F3" stroke="#141416" stroke-opacity="0.5" stroke-width="3"/><path d="M890 430 L890 230 L850 230 L850 390 L650 390" fill="none" stroke="#141416" stroke-opacity="0.28" stroke-width="3" stroke-linejoin="round" stroke-linecap="round"/><circle cx="650" cy="390" r="6" fill="#FAF8F3" stroke="#141416" stroke-opacity="0.5" stroke-width="3"/><path d="M1010 590 L1090 590 L1090 390 L1210 390 L1210 430" fill="none" stroke="#141416" stroke-opacity="0.28" stroke-width="3" stroke-linejoin="round" stroke-linecap="round"/><circle cx="1210" cy="430" r="6" fill="#FAF8F3" stroke="#141416" stroke-opacity="0.5" stroke-width="3"/><path d="M330 510 L330 470 L410 470 L410 670 L210 670 L210 750" fill="none" stroke="#141416" stroke-opacity="0.28" stroke-width="3" stroke-linejoin="round" stroke-linecap="round"/><circle cx="210" cy="750" r="6" fill="#FAF8F3" stroke="#141416" stroke-opacity="0.5" stroke-width="3"/><path d="M1210 710 L1210 670 L1410 670 L1410 550 L1330 550 L1330 510" fill="none" stroke="#1F4E79" stroke-opacity="0.9" stroke-width="5" stroke-linejoin="round" stroke-linecap="round"/><circle cx="1330" cy="510" r="9" fill="#FAF8F3" stroke="#1F4E79" stroke-opacity="1" stroke-width="3"/><path d="M1090 270 L970 270 L970 150 L1130 150 L1130 190" fill="none" stroke="#1F4E79" stroke-opacity="0.9" stroke-width="5" stroke-linejoin="round" stroke-linecap="round"/><circle cx="1130" cy="190" r="9" fill="#FAF8F3" stroke="#1F4E79" stroke-opacity="1" stroke-width="3"/><path d="M1050 270 L1090 270 L1090 350 L1050 350 L1050 270 L930 270" fill="none" stroke="#141416" stroke-opacity="0.28" stroke-width="3" stroke-linejoin="round" stroke-linecap="round"/><circle cx="930" cy="270" r="6" fill="#FAF8F3" stroke="#141416" stroke-opacity="0.5" stroke-width="3"/><path d="M810 150 L730 150 L730 310 L650 310 L650 230" fill="none" stroke="#141416" stroke-opacity="0.28" stroke-width="3" stroke-linejoin="round" stroke-linecap="round"/><circle cx="650" cy="230" r="6" fill="#FAF8F3" stroke="#141416" stroke-opacity="0.5" stroke-width="3"/><path d="M1410 470 L1410 270 L1510 270 L1510 150 L1390 150 L1390 350 L1350 350" fill="none" stroke="#141416" stroke-opacity="0.28" stroke-width="3" stroke-linejoin="round" stroke-linecap="round"/><circle cx="1350" cy="350" r="6" fill="#FAF8F3" stroke="#141416" stroke-opacity="0.5" stroke-width="3"/><path d="M490 590 L490 790 L690 790 L690 820 L890 820" fill="none" stroke="#141416" stroke-opacity="0.28" stroke-width="3" stroke-linejoin="round" stroke-linecap="round"/><circle cx="890" cy="820" r="6" fill="#FAF8F3" stroke="#141416" stroke-opacity="0.5" stroke-width="3"/><path d="M1370 390 L1210 390 L1210 470 L1290 470 L1290 430 L1330 430" fill="none" stroke="#141416" stroke-opacity="0.28" stroke-width="3" stroke-linejoin="round" stroke-linecap="round"/><circle cx="1330" cy="430" r="6" fill="#FAF8F3" stroke="#141416" stroke-opacity="0.5" stroke-width="3"/><path d="M490 230 L490 150 L370 150 L370 230" fill="none" stroke="#141416" stroke-opacity="0.28" stroke-width="3" stroke-linejoin="round" stroke-linecap="round"/><circle cx="370" cy="230" r="6" fill="#FAF8F3" stroke="#141416" stroke-opacity="0.5" stroke-width="3"/><path d="M290 550 L290 350 L130 350 L130 390 L90 390 L90 430 L90 430 L90 390 L250 390" fill="none" stroke="#1F4E79" stroke-opacity="0.9" stroke-width="5" stroke-linejoin="round" stroke-linecap="round"/><circle cx="250" cy="390" r="9" fill="#FAF8F3" stroke="#1F4E79" stroke-opacity="1" stroke-width="3"/><path d="M450 430 L450 550 L530 550 L530 430 L690 430 L690 390 L570 390 L570 350 L650 350" fill="none" stroke="#1F4E79" stroke-opacity="0.9" stroke-width="5" stroke-linejoin="round" stroke-linecap="round"/><circle cx="650" cy="350" r="9" fill="#FAF8F3" stroke="#1F4E79" stroke-opacity="1" stroke-width="3"/><path d="M90 270 L90 270 L90 310 L90 310 L90 230" fill="none" stroke="#141416" stroke-opacity="0.28" stroke-width="3" stroke-linejoin="round" stroke-linecap="round"/><circle cx="90" cy="230" r="6" fill="#FAF8F3" stroke="#141416" stroke-opacity="0.5" stroke-width="3"/><path d="M1170 550 L1170 710 L1210 710 L1210 630 L1330 630 L1330 790 L1170 790" fill="none" stroke="#141416" stroke-opacity="0.28" stroke-width="3" stroke-linejoin="round" stroke-linecap="round"/><circle cx="1170" cy="790" r="6" fill="#FAF8F3" stroke="#141416" stroke-opacity="0.5" stroke-width="3"/><path d="M530 350 L650 350 L650 550 L530 550 L530 630" fill="none" stroke="#141416" stroke-opacity="0.28" stroke-width="3" stroke-linejoin="round" stroke-linecap="round"/><circle cx="530" cy="630" r="6" fill="#FAF8F3" stroke="#141416" stroke-opacity="0.5" stroke-width="3"/><path d="M730 590 L730 390 L850 390 L850 590 L770 590" fill="none" stroke="#141416" stroke-opacity="0.28" stroke-width="3" stroke-linejoin="round" stroke-linecap="round"/><circle cx="770" cy="590" r="6" fill="#FAF8F3" stroke="#141416" stroke-opacity="0.5" stroke-width="3"/><path d="M1050 430 L1050 510 L1130 510 L1130 310 L970 310 L970 350 L1170 350 L1170 230" fill="none" stroke="#141416" stroke-opacity="0.28" stroke-width="3" stroke-linejoin="round" stroke-linecap="round"/><circle cx="1170" cy="230" r="6" fill="#FAF8F3" stroke="#141416" stroke-opacity="0.5" stroke-width="3"/><path d="M210 630 L90 630 L90 510 L90 510 L90 470 L290 470 L290 270" fill="none" stroke="#141416" stroke-opacity="0.28" stroke-width="3" stroke-linejoin="round" stroke-linecap="round"/><circle cx="290" cy="270" r="6" fill="#FAF8F3" stroke="#141416" stroke-opacity="0.5" stroke-width="3"/><path d="M130 710 L130 750 L90 750 L90 820 L170 820" fill="none" stroke="#141416" stroke-opacity="0.28" stroke-width="3" stroke-linejoin="round" stroke-linecap="round"/><circle cx="170" cy="820" r="6" fill="#FAF8F3" stroke="#141416" stroke-opacity="0.5" stroke-width="3"/><path d="M170 430 L170 230 L250 230 L250 150" fill="none" stroke="#141416" stroke-opacity="0.28" stroke-width="3" stroke-linejoin="round" stroke-linecap="round"/><circle cx="250" cy="150" r="6" fill="#FAF8F3" stroke="#141416" stroke-opacity="0.5" stroke-width="3"/><path d="M810 150 L810 150 L610 150 L610 190 L690 190" fill="none" stroke="#141416" stroke-opacity="0.28" stroke-width="3" stroke-linejoin="round" stroke-linecap="round"/><circle cx="690" cy="190" r="6" fill="#FAF8F3" stroke="#141416" stroke-opacity="0.5" stroke-width="3"/><path d="M730 630 L730 510 L690 510 L690 310 L610 310 L610 430" fill="none" stroke="#1F4E79" stroke-opacity="0.9" stroke-width="5" stroke-linejoin="round" stroke-linecap="round"/><circle cx="610" cy="430" r="9" fill="#FAF8F3" stroke="#1F4E79" stroke-opacity="1" stroke-width="3"/><path d="M490 470 L490 670 L330 670 L330 820 L250 820 L250 660 L410 660 L410 620 L450 620" fill="none" stroke="#141416" stroke-opacity="0.28" stroke-width="3" stroke-linejoin="round" stroke-linecap="round"/><circle cx="450" cy="620" r="6" fill="#FAF8F3" stroke="#141416" stroke-opacity="0.5" stroke-width="3"/><path d="M1170 270 L1330 270 L1330 430 L1450 430 L1450 390 L1330 390 L1330 470 L1250 470 L1250 270" fill="none" stroke="#141416" stroke-opacity="0.28" stroke-width="3" stroke-linejoin="round" stroke-linecap="round"/><circle cx="1250" cy="270" r="6" fill="#FAF8F3" stroke="#141416" stroke-opacity="0.5" stroke-width="3"/><path d="M490 350 L450 350 L450 190 L290 190 L290 390 L170 390 L170 350" fill="none" stroke="#141416" stroke-opacity="0.28" stroke-width="3" stroke-linejoin="round" stroke-linecap="round"/><circle cx="170" cy="350" r="6" fill="#FAF8F3" stroke="#141416" stroke-opacity="0.5" stroke-width="3"/><path d="M370 630 L250 630 L250 750 L90 750 L90 820 L90 820 L90 620 L130 620 L130 580" fill="none" stroke="#1F4E79" stroke-opacity="0.9" stroke-width="5" stroke-linejoin="round" stroke-linecap="round"/><circle cx="130" cy="580" r="9" fill="#FAF8F3" stroke="#1F4E79" stroke-opacity="1" stroke-width="3"/><path d="M330 550 L330 390 L450 390 L450 230 L410 230" fill="none" stroke="#141416" stroke-opacity="0.28" stroke-width="3" stroke-linejoin="round" stroke-linecap="round"/><circle cx="410" cy="230" r="6" fill="#FAF8F3" stroke="#141416" stroke-opacity="0.5" stroke-width="3"/><path d="M770 670 L770 510 L850 510 L850 590 L930 590 L930 630 L810 630 L810 710" fill="none" stroke="#141416" stroke-opacity="0.28" stroke-width="3" stroke-linejoin="round" stroke-linecap="round"/><circle cx="810" cy="710" r="6" fill="#FAF8F3" stroke="#141416" stroke-opacity="0.5" stroke-width="3"/><path d="M1370 150 L1170 150 L1170 310 L1370 310" fill="none" stroke="#141416" stroke-opacity="0.28" stroke-width="3" stroke-linejoin="round" stroke-linecap="round"/><circle cx="1370" cy="310" r="6" fill="#FAF8F3" stroke="#141416" stroke-opacity="0.5" stroke-width="3"/><path d="M810 750 L730 750 L730 820 L850 820 L850 700 L1050 700 L1050 500" fill="none" stroke="#141416" stroke-opacity="0.28" stroke-width="3" stroke-linejoin="round" stroke-linecap="round"/><circle cx="1050" cy="500" r="6" fill="#FAF8F3" stroke="#141416" stroke-opacity="0.5" stroke-width="3"/><path d="M770 710 L570 710 L570 820 L650 820 L650 660 L490 660" fill="none" stroke="#1F4E79" stroke-opacity="0.9" stroke-width="5" stroke-linejoin="round" stroke-linecap="round"/><circle cx="490" cy="660" r="9" fill="#FAF8F3" stroke="#1F4E79" stroke-opacity="1" stroke-width="3"/><path d="M810 630 L650 630 L650 820 L530 820" fill="none" stroke="#141416" stroke-opacity="0.28" stroke-width="3" stroke-linejoin="round" stroke-linecap="round"/><circle cx="530" cy="820" r="6" fill="#FAF8F3" stroke="#141416" stroke-opacity="0.5" stroke-width="3"/><path d="M170 270 L90 270 L90 430 L130 430 L130 630 L250 630 L250 750 L170 750 L170 820" fill="none" stroke="#141416" stroke-opacity="0.28" stroke-width="3" stroke-linejoin="round" stroke-linecap="round"/><circle cx="170" cy="820" r="6" fill="#FAF8F3" stroke="#141416" stroke-opacity="0.5" stroke-width="3"/><rect x="970" y="510" width="200" height="200" rx="6" fill="#FAF8F3" stroke="#141416" stroke-width="4"/><rect x="984" y="524" width="172" height="172" rx="3" fill="#141416" fill-opacity="0.9"/><circle cx="1000" cy="540" r="6" fill="#1F4E79"/><line x1="990" y1="496" x2="990" y2="510" stroke="#141416" stroke-width="4"/><line x1="990" y1="710" x2="990" y2="724" stroke="#141416" stroke-width="4"/><line x1="1030" y1="496" x2="1030" y2="510" stroke="#141416" stroke-width="4"/><line x1="1030" y1="710" x2="1030" y2="724" stroke="#141416" stroke-width="4"/><line x1="1070" y1="496" x2="1070" y2="510" stroke="#141416" stroke-width="4"/><line x1="1070" y1="710" x2="1070" y2="724" stroke="#141416" stroke-width="4"/><line x1="1110" y1="496" x2="1110" y2="510" stroke="#141416" stroke-width="4"/><line x1="1110" y1="710" x2="1110" y2="724" stroke="#141416" stroke-width="4"/><line x1="1150" y1="496" x2="1150" y2="510" stroke="#141416" stroke-width="4"/><line x1="1150" y1="710" x2="1150" y2="724" stroke="#141416" stroke-width="4"/><rect x="290" y="510" width="240" height="120" rx="6" fill="#FAF8F3" stroke="#141416" stroke-width="4"/><rect x="304" y="524" width="212" height="92" rx="3" fill="#141416" fill-opacity="0.9"/><circle cx="320" cy="540" r="6" fill="#1F4E79"/><line x1="310" y1="496" x2="310" y2="510" stroke="#141416" stroke-width="4"/><line x1="310" y1="630" x2="310" y2="644" stroke="#141416" stroke-width="4"/><line x1="350" y1="496" x2="350" y2="510" stroke="#141416" stroke-width="4"/><line x1="350" y1="630" x2="350" y2="644" stroke="#141416" stroke-width="4"/><line x1="390" y1="496" x2="390" y2="510" stroke="#141416" stroke-width="4"/><line x1="390" y1="630" x2="390" y2="644" stroke="#141416" stroke-width="4"/><line x1="430" y1="496" x2="430" y2="510" stroke="#141416" stroke-width="4"/><line x1="430" y1="630" x2="430" y2="644" stroke="#141416" stroke-width="4"/><line x1="470" y1="496" x2="470" y2="510" stroke="#141416" stroke-width="4"/><line x1="470" y1="630" x2="470" y2="644" stroke="#141416" stroke-width="4"/><line x1="510" y1="496" x2="510" y2="510" stroke="#141416" stroke-width="4"/><line x1="510" y1="630" x2="510" y2="644" stroke="#141416" stroke-width="4"/><rect x="1090" y="550" width="160" height="160" rx="6" fill="#FAF8F3" stroke="#141416" stroke-width="4"/><rect x="1104" y="564" width="132" height="132" rx="3" fill="#141416" fill-opacity="0.9"/><circle cx="1120" cy="580" r="6" fill="#1F4E79"/><line x1="1110" y1="536" x2="1110" y2="550" stroke="#141416" stroke-width="4"/><line x1="1110" y1="710" x2="1110" y2="724" stroke="#141416" stroke-width="4"/><line x1="1150" y1="536" x2="1150" y2="550" stroke="#141416" stroke-width="4"/><line x1="1150" y1="710" x2="1150" y2="724" stroke="#141416" stroke-width="4"/><line x1="1190" y1="536" x2="1190" y2="550" stroke="#141416" stroke-width="4"/><line x1="1190" y1="710" x2="1190" y2="724" stroke="#141416" stroke-width="4"/><line x1="1230" y1="536" x2="1230" y2="550" stroke="#141416" stroke-width="4"/><line x1="1230" y1="710" x2="1230" y2="724" stroke="#141416" stroke-width="4"/><path d="M90 880 L90 854 L128 854 L128 880 L166 880 L166 854 L204 854 L204 880 L242 880 L242 854 L280 854 L280 880 L318 880 L318 854 L356 854 L356 880 L394 880 L394 854 L432 854 L432 880 L470 880 L470 854 L508 854 L508 880 L546 880 L546 854 L584 854 L584 880 L622 880 L622 854 L660 854 L660 880 L698 880 L698 854 L736 854 L736 880 L774 880 L774 854 L812 854 L812 880 L850 880 L850 854 L888 854 L888 880 L926 880 L926 854 L964 854 L964 880 L1002 880 L1002 854 L1040 854 L1040 880 L1078 880 L1078 854 L1116 854 L1116 880 L1154 880 L1154 854 L1192 854 L1192 880 L1230 880 L1230 854 L1268 854 L1268 880 L1306 880 L1306 854 L1344 854 L1344 880 L1382 880 L1382 854 L1420 854 L1420 880 L1458 880 L1458 854 L1496 854 L1496 880 L1534 880" fill="none" stroke="#1F4E79" stroke-width="3.5" stroke-linejoin="round"/></g>
  <rect width="1600" height="1000" filter="url(#grain)" opacity="0.7"/>
  <rect x="40" y="40" width="1520" height="920" fill="none" stroke="#141416" stroke-opacity="0.35" stroke-width="2"/>
  <text x="90" y="104" font-family="ui-monospace, 'JetBrains Mono', Menlo, monospace" font-size="24" letter-spacing="4" fill="#6B6B70">FPGA &amp; DIGITAL DESIGN  ·  2026</text>
  <circle cx="1500" cy="96" r="10" fill="#1F4E79"/>
  <text x="1510" y="904" text-anchor="end" font-family="Georgia, 'Times New Roman', serif" font-size="150" font-weight="500" fill="#141416" letter-spacing="-6">667 MHz</text>
  <text x="1508" y="942" text-anchor="end" font-family="ui-monospace, 'JetBrains Mono', Menlo, monospace" font-size="22" letter-spacing="3" fill="#6B6B70">DUAL-CORE ARM PS</text>
</svg>
