<svg xmlns="http://www.w3.org/2000/svg" width="1600" height="1000" viewBox="0 0 1600 1000" role="img" aria-label="Induction Motor Fault Detection thumbnail">
  <defs>
    <filter id="grain" x="0" y="0" width="100%" height="100%">
      <feTurbulence type="fractalNoise" baseFrequency="0.9" numOctaves="2" stitchTiles="stitch"/>
      <feColorMatrix type="saturate" values="0"/>
      <feComponentTransfer><feFuncA type="table" tableValues="0 0.06"/></feComponentTransfer>
    </filter>
    <clipPath id="safe"><rect x="50" y="110" width="1500" height="790"/></clipPath>
  </defs>
  <rect width="1600" height="1000" fill="#FAF8F3"/>
  <g clip-path="url(#safe)"><circle cx="450" cy="485" r="250" fill="#FAF8F3" stroke="#141416" stroke-width="5"/><line x1="655" y1="485" x2="698" y2="485" stroke="#141416" stroke-width="10" stroke-opacity="0.75"/><line x1="648" y1="538.1" x2="689.5" y2="549.2" stroke="#141416" stroke-width="10" stroke-opacity="0.75"/><line x1="627.5" y1="587.5" x2="664.8" y2="609" stroke="#141416" stroke-width="10" stroke-opacity="0.75"/><line x1="595" y1="630" x2="625.4" y2="660.4" stroke="#141416" stroke-width="10" stroke-opacity="0.75"/><line x1="552.5" y1="662.5" x2="574" y2="699.8" stroke="#141416" stroke-width="10" stroke-opacity="0.75"/><line x1="503.1" y1="683" x2="514.2" y2="724.5" stroke="#141416" stroke-width="10" stroke-opacity="0.75"/><line x1="450" y1="690" x2="450" y2="733" stroke="#141416" stroke-width="10" stroke-opacity="0.75"/><line x1="396.9" y1="683" x2="385.8" y2="724.5" stroke="#141416" stroke-width="10" stroke-opacity="0.75"/><line x1="347.5" y1="662.5" x2="326" y2="699.8" stroke="#141416" stroke-width="10" stroke-opacity="0.75"/><line x1="305" y1="630" x2="274.6" y2="660.4" stroke="#141416" stroke-width="10" stroke-opacity="0.75"/><line x1="272.5" y1="587.5" x2="235.2" y2="609" stroke="#141416" stroke-width="10" stroke-opacity="0.75"/><line x1="252" y1="538.1" x2="210.5" y2="549.2" stroke="#141416" stroke-width="10" stroke-opacity="0.75"/><line x1="245" y1="485" x2="202" y2="485" stroke="#141416" stroke-width="10" stroke-opacity="0.75"/><line x1="252" y1="431.9" x2="210.5" y2="420.8" stroke="#141416" stroke-width="10" stroke-opacity="0.75"/><line x1="272.5" y1="382.5" x2="235.2" y2="361" stroke="#141416" stroke-width="10" stroke-opacity="0.75"/><line x1="305" y1="340" x2="274.6" y2="309.6" stroke="#141416" stroke-width="10" stroke-opacity="0.75"/><line x1="347.5" y1="307.5" x2="326" y2="270.2" stroke="#141416" stroke-width="10" stroke-opacity="0.75"/><line x1="396.9" y1="287" x2="385.8" y2="245.5" stroke="#141416" stroke-width="10" stroke-opacity="0.75"/><line x1="450" y1="280" x2="450" y2="237" stroke="#141416" stroke-width="10" stroke-opacity="0.75"/><line x1="503.1" y1="287" x2="514.2" y2="245.5" stroke="#141416" stroke-width="10" stroke-opacity="0.75"/><line x1="552.5" y1="307.5" x2="574" y2="270.2" stroke="#141416" stroke-width="10" stroke-opacity="0.75"/><line x1="595" y1="340" x2="625.4" y2="309.6" stroke="#141416" stroke-width="10" stroke-opacity="0.75"/><line x1="627.5" y1="382.5" x2="664.8" y2="361" stroke="#141416" stroke-width="10" stroke-opacity="0.75"/><line x1="648" y1="431.9" x2="689.5" y2="420.8" stroke="#141416" stroke-width="10" stroke-opacity="0.75"/><circle cx="450" cy="485" r="200" fill="none" stroke="#141416" stroke-width="3"/><circle cx="450" cy="485" r="150" fill="#141416" fill-opacity="0.08" stroke="#141416" stroke-width="3"/><line x1="510" y1="485" x2="590" y2="485" stroke="#141416" stroke-width="7" /><line x1="505.4" y1="508" x2="579.3" y2="538.6" stroke="#141416" stroke-width="7" /><line x1="492.4" y1="527.4" x2="549" y2="584" stroke="#141416" stroke-width="7" /><line x1="473" y1="540.4" x2="503.6" y2="614.3" stroke="#141416" stroke-width="7" /><line x1="450" y1="545" x2="450" y2="625" stroke="#141416" stroke-width="7" /><line x1="427" y1="540.4" x2="396.4" y2="614.3" stroke="#2F5F63" stroke-width="9" stroke-dasharray="14 10"/><line x1="407.6" y1="527.4" x2="351" y2="584" stroke="#2F5F63" stroke-width="9" stroke-dasharray="14 10"/><line x1="394.6" y1="508" x2="320.7" y2="538.6" stroke="#141416" stroke-width="7" /><line x1="390" y1="485" x2="310" y2="485" stroke="#141416" stroke-width="7" /><line x1="394.6" y1="462" x2="320.7" y2="431.4" stroke="#141416" stroke-width="7" /><line x1="407.6" y1="442.6" x2="351" y2="386" stroke="#141416" stroke-width="7" /><line x1="427" y1="429.6" x2="396.4" y2="355.7" stroke="#141416" stroke-width="7" /><line x1="450" y1="425" x2="450" y2="345" stroke="#141416" stroke-width="7" /><line x1="473" y1="429.6" x2="503.6" y2="355.7" stroke="#141416" stroke-width="7" /><line x1="492.4" y1="442.6" x2="549" y2="386" stroke="#141416" stroke-width="7" /><line x1="505.4" y1="462" x2="579.3" y2="431.4" stroke="#141416" stroke-width="7" /><circle cx="450" cy="485" r="42" fill="#141416"/><line x1="790" y1="780" x2="1510" y2="780" stroke="#141416" stroke-width="2"/><rect x="790" y="720.1" width="8" height="59.9" fill="#141416" fill-opacity="0.3"/><rect x="802" y="760.7" width="8" height="19.3" fill="#141416" fill-opacity="0.3"/><rect x="814" y="723.6" width="8" height="56.4" fill="#141416" fill-opacity="0.3"/><rect x="826" y="742.7" width="8" height="37.3" fill="#141416" fill-opacity="0.3"/><rect x="838" y="734.2" width="8" height="45.8" fill="#141416" fill-opacity="0.3"/><rect x="850" y="736.9" width="8" height="43.1" fill="#141416" fill-opacity="0.3"/><rect x="862" y="751.9" width="8" height="28.1" fill="#141416" fill-opacity="0.3"/><rect x="874" y="753.9" width="8" height="26.1" fill="#141416" fill-opacity="0.3"/><rect x="886" y="765.5" width="8" height="14.5" fill="#141416" fill-opacity="0.3"/><rect x="898" y="751.7" width="8" height="28.3" fill="#141416" fill-opacity="0.3"/><rect x="910" y="740.5" width="8" height="39.5" fill="#141416" fill-opacity="0.3"/><rect x="922" y="720.7" width="8" height="59.3" fill="#141416" fill-opacity="0.3"/><rect x="934" y="580" width="8" height="200" fill="#2F5F63" fill-opacity="0.9"/><rect x="946" y="727.8" width="8" height="52.2" fill="#141416" fill-opacity="0.3"/><rect x="958" y="720.5" width="8" height="59.5" fill="#141416" fill-opacity="0.3"/><rect x="970" y="751" width="8" height="29" fill="#141416" fill-opacity="0.3"/><rect x="982" y="742.8" width="8" height="37.2" fill="#141416" fill-opacity="0.3"/><rect x="994" y="756" width="8" height="24" fill="#141416" fill-opacity="0.3"/><rect x="1006" y="743.3" width="8" height="36.7" fill="#141416" fill-opacity="0.3"/><rect x="1018" y="746.4" width="8" height="33.6" fill="#141416" fill-opacity="0.3"/><rect x="1030" y="738.2" width="8" height="41.8" fill="#141416" fill-opacity="0.3"/><rect x="1042" y="730.5" width="8" height="49.5" fill="#141416" fill-opacity="0.3"/><rect x="1054" y="728.6" width="8" height="51.4" fill="#141416" fill-opacity="0.3"/><rect x="1066" y="752.7" width="8" height="27.3" fill="#141416" fill-opacity="0.3"/><rect x="1078" y="420" width="8" height="360" fill="#141416" fill-opacity="0.9"/><rect x="1090" y="739.2" width="8" height="40.8" fill="#141416" fill-opacity="0.3"/><rect x="1102" y="764.1" width="8" height="15.9" fill="#141416" fill-opacity="0.3"/><rect x="1114" y="763.9" width="8" height="16.1" fill="#141416" fill-opacity="0.3"/><rect x="1126" y="727.5" width="8" height="52.5" fill="#141416" fill-opacity="0.3"/><rect x="1138" y="750" width="8" height="30" fill="#141416" fill-opacity="0.3"/><rect x="1150" y="731.2" width="8" height="48.8" fill="#141416" fill-opacity="0.3"/><rect x="1162" y="735.7" width="8" height="44.3" fill="#141416" fill-opacity="0.3"/><rect x="1174" y="763.8" width="8" height="16.2" fill="#141416" fill-opacity="0.3"/><rect x="1186" y="746.4" width="8" height="33.6" fill="#141416" fill-opacity="0.3"/><rect x="1198" y="731.9" width="8" height="48.1" fill="#141416" fill-opacity="0.3"/><rect x="1210" y="748" width="8" height="32" fill="#141416" fill-opacity="0.3"/><rect x="1222" y="580" width="8" height="200" fill="#2F5F63" fill-opacity="0.9"/><rect x="1234" y="726.1" width="8" height="53.9" fill="#141416" fill-opacity="0.3"/><rect x="1246" y="754.6" width="8" height="25.4" fill="#141416" fill-opacity="0.3"/><rect x="1258" y="766" width="8" height="14" fill="#141416" fill-opacity="0.3"/><rect x="1270" y="756.4" width="8" height="23.6" fill="#141416" fill-opacity="0.3"/><rect x="1282" y="729.9" width="8" height="50.1" fill="#141416" fill-opacity="0.3"/><rect x="1294" y="769.4" width="8" height="10.6" fill="#141416" fill-opacity="0.3"/><rect x="1306" y="767.1" width="8" height="12.9" fill="#141416" fill-opacity="0.3"/><rect x="1318" y="742.3" width="8" height="37.7" fill="#141416" fill-opacity="0.3"/><rect x="1330" y="727.9" width="8" height="52.1" fill="#141416" fill-opacity="0.3"/><rect x="1342" y="767" width="8" height="13" fill="#141416" fill-opacity="0.3"/><rect x="1354" y="722.2" width="8" height="57.8" fill="#141416" fill-opacity="0.3"/><rect x="1366" y="756.9" width="8" height="23.1" fill="#141416" fill-opacity="0.3"/><rect x="1378" y="740.1" width="8" height="39.9" fill="#141416" fill-opacity="0.3"/><rect x="1390" y="769.1" width="8" height="10.9" fill="#141416" fill-opacity="0.3"/><rect x="1402" y="747.4" width="8" height="32.6" fill="#141416" fill-opacity="0.3"/><rect x="1414" y="724.6" width="8" height="55.4" fill="#141416" fill-opacity="0.3"/><rect x="1426" y="720.8" width="8" height="59.2" fill="#141416" fill-opacity="0.3"/><rect x="1438" y="721.9" width="8" height="58.1" fill="#141416" fill-opacity="0.3"/><rect x="1450" y="741.2" width="8" height="38.8" fill="#141416" fill-opacity="0.3"/><rect x="1462" y="760.4" width="8" height="19.6" fill="#141416" fill-opacity="0.3"/><rect x="1474" y="749.4" width="8" height="30.6" fill="#141416" fill-opacity="0.3"/><rect x="1486" y="767.6" width="8" height="12.4" fill="#141416" fill-opacity="0.3"/><rect x="1498" y="737.8" width="8" height="42.2" fill="#141416" fill-opacity="0.3"/><text x="1162" y="565" font-family="ui-monospace, 'JetBrains Mono', Menlo, monospace" font-size="18" fill="#2F5F63">fault sideband</text></g>
  <rect width="1600" height="1000" filter="url(#grain)" opacity="0.7"/>
  <rect x="40" y="40" width="1520" height="920" fill="none" stroke="#141416" stroke-opacity="0.35" stroke-width="2"/>
  <text x="90" y="104" font-family="ui-monospace, 'JetBrains Mono', Menlo, monospace" font-size="24" letter-spacing="4" fill="#6B6B70">AI &amp; MACHINE LEARNING  ·  2024</text>
  <circle cx="1500" cy="96" r="10" fill="#2F5F63"/>
  <rect x="1398" y="780" width="142" height="180" fill="#FAF8F3" fill-opacity="0.82" rx="8"/>
  <text x="1510" y="904" text-anchor="end" font-family="Georgia, 'Times New Roman', serif" font-size="150" font-weight="500" fill="#141416" letter-spacing="-6">6</text>
  <text x="1508" y="942" text-anchor="end" font-family="ui-monospace, 'JetBrains Mono', Menlo, monospace" font-size="22" letter-spacing="3" fill="#6B6B70">FAULT TYPES</text>
</svg>
