<svg xmlns="http://www.w3.org/2000/svg" width="1600" height="1000" viewBox="0 0 1600 1000" role="img" aria-label="maketensor thumbnail">
  <defs>
    <filter id="grain" x="0" y="0" width="100%" height="100%">
      <feTurbulence type="fractalNoise" baseFrequency="0.9" numOctaves="2" stitchTiles="stitch"/>
      <feColorMatrix type="saturate" values="0"/>
      <feComponentTransfer><feFuncA type="table" tableValues="0 0.06"/></feComponentTransfer>
    </filter>
    <clipPath id="safe"><rect x="50" y="110" width="1500" height="790"/></clipPath>
  </defs>
  <rect width="1600" height="1000" fill="#FAF8F3"/>
  <g clip-path="url(#safe)"><rect x="234" y="246" width="420" height="360" rx="6" fill="#141416" stroke="#FAF8F3" stroke-width="2"/><rect x="208" y="272" width="420" height="360" rx="6" fill="#141416" stroke="#FAF8F3" stroke-width="2"/><rect x="182" y="298" width="420" height="360" rx="6" fill="#141416" stroke="#FAF8F3" stroke-width="2"/><rect x="156" y="324" width="420" height="360" rx="6" fill="#141416" stroke="#FAF8F3" stroke-width="2"/><rect x="130" y="350" width="420" height="360" rx="6" fill="#141416" stroke="#FAF8F3" stroke-width="2"/><circle cx="374" cy="577" r="2.3" fill="#FAF8F3" fill-opacity="0.6"/><circle cx="257.9" cy="393.4" r="2" fill="#FAF8F3" fill-opacity="0.8"/><circle cx="516.2" cy="679.1" r="1.4" fill="#FAF8F3" fill-opacity="0.6"/><circle cx="446.1" cy="414.6" r="1.4" fill="#FAF8F3" fill-opacity="0.5"/><circle cx="469.4" cy="696.3" r="0.8" fill="#FAF8F3" fill-opacity="0.5"/><circle cx="420.5" cy="640.2" r="2.3" fill="#FAF8F3" fill-opacity="0.4"/><circle cx="431.4" cy="498.3" r="0.8" fill="#FAF8F3" fill-opacity="0.8"/><circle cx="476.8" cy="595.3" r="1.4" fill="#FAF8F3" fill-opacity="0.8"/><circle cx="444.5" cy="479" r="1.7" fill="#FAF8F3" fill-opacity="0.9"/><circle cx="144.1" cy="556" r="2.2" fill="#FAF8F3" fill-opacity="0.5"/><circle cx="150.2" cy="395.1" r="0.8" fill="#FAF8F3" fill-opacity="0.7"/><circle cx="407.9" cy="648.5" r="1.4" fill="#FAF8F3" fill-opacity="0.6"/><circle cx="338.4" cy="589.2" r="1" fill="#FAF8F3" fill-opacity="0.8"/><circle cx="208.3" cy="393.7" r="1.6" fill="#FAF8F3" fill-opacity="0.5"/><circle cx="367.2" cy="648" r="1.9" fill="#FAF8F3" fill-opacity="0.9"/><circle cx="295" cy="494.3" r="0.9" fill="#FAF8F3" fill-opacity="0.8"/><circle cx="246.1" cy="654.5" r="1.3" fill="#FAF8F3" fill-opacity="0.7"/><circle cx="220.4" cy="632.2" r="1.8" fill="#FAF8F3" fill-opacity="1"/><circle cx="270.2" cy="521.2" r="1" fill="#FAF8F3" fill-opacity="0.8"/><circle cx="413.5" cy="488.4" r="1.8" fill="#FAF8F3" fill-opacity="0.5"/><circle cx="476.4" cy="498.7" r="1.6" fill="#FAF8F3" fill-opacity="0.6"/><circle cx="506.6" cy="557.2" r="1" fill="#FAF8F3" fill-opacity="0.4"/><circle cx="237" cy="676.6" r="1.7" fill="#FAF8F3" fill-opacity="0.8"/><circle cx="442.8" cy="402.6" r="1.7" fill="#FAF8F3" fill-opacity="0.6"/><circle cx="170.1" cy="466.7" r="1.9" fill="#FAF8F3" fill-opacity="0.8"/><circle cx="364.6" cy="458.2" r="2.3" fill="#FAF8F3" fill-opacity="0.9"/><circle cx="334.8" cy="535.1" r="1.6" fill="#FAF8F3" fill-opacity="0.7"/><circle cx="350.2" cy="405.7" r="1" fill="#FAF8F3" fill-opacity="0.9"/><circle cx="263.6" cy="604.4" r="1.5" fill="#FAF8F3" fill-opacity="0.4"/><circle cx="200.3" cy="511.7" r="0.9" fill="#FAF8F3" fill-opacity="0.6"/><circle cx="161.8" cy="596.5" r="1.9" fill="#FAF8F3" fill-opacity="0.6"/><circle cx="239.8" cy="365.7" r="2.1" fill="#FAF8F3" fill-opacity="1"/><circle cx="450.4" cy="640.7" r="2.2" fill="#FAF8F3" fill-opacity="0.6"/><circle cx="481.9" cy="536.5" r="1" fill="#FAF8F3" fill-opacity="0.9"/><circle cx="160.2" cy="536.8" r="1.7" fill="#FAF8F3" fill-opacity="0.5"/><circle cx="484.3" cy="474.7" r="2.3" fill="#FAF8F3" fill-opacity="0.6"/><circle cx="229.5" cy="436.4" r="0.9" fill="#FAF8F3" fill-opacity="1"/><circle cx="332.3" cy="579.6" r="1" fill="#FAF8F3" fill-opacity="1"/><circle cx="483.3" cy="538.9" r="0.9" fill="#FAF8F3" fill-opacity="0.8"/><circle cx="389.9" cy="426.9" r="2.5" fill="#FAF8F3" fill-opacity="0.4"/><circle cx="373.9" cy="559.5" r="1.7" fill="#FAF8F3" fill-opacity="0.9"/><circle cx="467.1" cy="362.3" r="1.5" fill="#FAF8F3" fill-opacity="0.5"/><circle cx="210.6" cy="402.2" r="2.5" fill="#FAF8F3" fill-opacity="0.6"/><circle cx="279.4" cy="408.7" r="2.5" fill="#FAF8F3" fill-opacity="0.5"/><circle cx="420.3" cy="404.2" r="1" fill="#FAF8F3" fill-opacity="0.5"/><circle cx="358.5" cy="429" r="2" fill="#FAF8F3" fill-opacity="0.7"/><circle cx="487.4" cy="661.4" r="2.1" fill="#FAF8F3" fill-opacity="0.5"/><circle cx="498.8" cy="698.7" r="1" fill="#FAF8F3" fill-opacity="1"/><circle cx="413.9" cy="483.6" r="1.4" fill="#FAF8F3" fill-opacity="0.7"/><circle cx="459.2" cy="460.5" r="1.6" fill="#FAF8F3" fill-opacity="0.8"/><circle cx="211.2" cy="628.4" r="1.7" fill="#FAF8F3" fill-opacity="0.5"/><circle cx="308.9" cy="699" r="1.4" fill="#FAF8F3" fill-opacity="0.7"/><circle cx="261.2" cy="378.4" r="1.9" fill="#FAF8F3" fill-opacity="0.7"/><circle cx="503" cy="580.1" r="1.4" fill="#FAF8F3" fill-opacity="0.7"/><circle cx="528.7" cy="677.1" r="2.1" fill="#FAF8F3" fill-opacity="0.5"/><circle cx="356.4" cy="536.9" r="1.3" fill="#FAF8F3" fill-opacity="0.6"/><circle cx="354" cy="442.8" r="2.2" fill="#FAF8F3" fill-opacity="0.7"/><circle cx="478.6" cy="402.4" r="1.1" fill="#FAF8F3" fill-opacity="0.9"/><circle cx="169.7" cy="628.9" r="2.6" fill="#FAF8F3" fill-opacity="0.5"/><circle cx="412.5" cy="619.4" r="2.2" fill="#FAF8F3" fill-opacity="0.4"/><circle cx="507" cy="611.9" r="1.5" fill="#FAF8F3" fill-opacity="1"/><circle cx="516.7" cy="430.1" r="1.2" fill="#FAF8F3" fill-opacity="0.9"/><circle cx="464.6" cy="379.3" r="1.9" fill="#FAF8F3" fill-opacity="0.8"/><circle cx="233.8" cy="683.7" r="1.8" fill="#FAF8F3" fill-opacity="0.7"/><circle cx="299.7" cy="444.1" r="1.3" fill="#FAF8F3" fill-opacity="0.7"/><circle cx="471.4" cy="655.9" r="0.9" fill="#FAF8F3" fill-opacity="0.4"/><circle cx="259.1" cy="654.7" r="2.4" fill="#FAF8F3" fill-opacity="0.9"/><circle cx="151" cy="633.1" r="1.2" fill="#FAF8F3" fill-opacity="0.8"/><circle cx="208.8" cy="516.7" r="2.2" fill="#FAF8F3" fill-opacity="0.8"/><circle cx="210.2" cy="649.4" r="2.2" fill="#FAF8F3" fill-opacity="0.7"/><circle cx="368.2" cy="566.5" r="2.5" fill="#FAF8F3" fill-opacity="0.9"/><circle cx="187.7" cy="693.6" r="2.1" fill="#FAF8F3" fill-opacity="0.7"/><circle cx="145.8" cy="487.8" r="2.3" fill="#FAF8F3" fill-opacity="0.8"/><circle cx="169" cy="367.4" r="2.2" fill="#FAF8F3" fill-opacity="0.7"/><circle cx="494.8" cy="396.3" r="1.8" fill="#FAF8F3" fill-opacity="0.5"/><circle cx="486.3" cy="624.9" r="1.7" fill="#FAF8F3" fill-opacity="0.7"/><circle cx="204.4" cy="648.6" r="2" fill="#FAF8F3" fill-opacity="0.4"/><circle cx="527.5" cy="437.7" r="1.2" fill="#FAF8F3" fill-opacity="1"/><circle cx="202" cy="413.1" r="1.3" fill="#FAF8F3" fill-opacity="0.8"/><circle cx="526.2" cy="505.7" r="0.9" fill="#FAF8F3" fill-opacity="1"/><circle cx="267.4" cy="454.5" r="2.3" fill="#FAF8F3" fill-opacity="0.8"/><circle cx="257.6" cy="511.2" r="1.3" fill="#FAF8F3" fill-opacity="0.8"/><circle cx="397.1" cy="550.1" r="1" fill="#FAF8F3" fill-opacity="1"/><circle cx="254.8" cy="386.7" r="1.5" fill="#FAF8F3" fill-opacity="0.4"/><circle cx="329.5" cy="659.6" r="1.8" fill="#FAF8F3" fill-opacity="0.6"/><circle cx="536.8" cy="361.7" r="0.8" fill="#FAF8F3" fill-opacity="0.5"/><circle cx="322.1" cy="518.9" r="2.5" fill="#FAF8F3" fill-opacity="0.4"/><circle cx="486.3" cy="400.7" r="1.8" fill="#FAF8F3" fill-opacity="0.7"/><circle cx="237.5" cy="486.1" r="2.2" fill="#FAF8F3" fill-opacity="0.9"/><circle cx="314.7" cy="492.8" r="2.2" fill="#FAF8F3" fill-opacity="1"/><circle cx="321.7" cy="421.2" r="1.6" fill="#FAF8F3" fill-opacity="0.5"/><circle cx="496.9" cy="609.5" r="0.9" fill="#FAF8F3" fill-opacity="0.9"/><circle cx="451" cy="515.2" r="1.5" fill="#FAF8F3" fill-opacity="0.5"/><circle cx="237.6" cy="390.1" r="1.2" fill="#FAF8F3" fill-opacity="0.6"/><circle cx="384.1" cy="489.2" r="2.1" fill="#FAF8F3" fill-opacity="0.4"/><circle cx="408.5" cy="562.6" r="1.5" fill="#FAF8F3" fill-opacity="0.7"/><circle cx="463.1" cy="555.5" r="2.5" fill="#FAF8F3" fill-opacity="0.4"/><circle cx="312.7" cy="421.3" r="2.1" fill="#FAF8F3" fill-opacity="0.8"/><circle cx="357.5" cy="401" r="0.9" fill="#FAF8F3" fill-opacity="0.5"/><circle cx="446.5" cy="384.1" r="2" fill="#FAF8F3" fill-opacity="0.6"/><circle cx="496.7" cy="568.6" r="1" fill="#FAF8F3" fill-opacity="0.7"/><circle cx="522.3" cy="531.7" r="2" fill="#FAF8F3" fill-opacity="0.8"/><circle cx="313.7" cy="513.6" r="1.4" fill="#FAF8F3" fill-opacity="0.7"/><circle cx="202.3" cy="580.5" r="1.6" fill="#FAF8F3" fill-opacity="0.4"/><circle cx="206.1" cy="482.6" r="2.5" fill="#FAF8F3" fill-opacity="0.9"/><circle cx="199.7" cy="578.5" r="2.5" fill="#FAF8F3" fill-opacity="0.6"/><circle cx="344.9" cy="457.1" r="1.6" fill="#FAF8F3" fill-opacity="0.8"/><circle cx="338.7" cy="623.1" r="1.8" fill="#FAF8F3" fill-opacity="0.8"/><circle cx="145.5" cy="646.4" r="2.4" fill="#FAF8F3" fill-opacity="1"/><circle cx="430.7" cy="382.5" r="1.9" fill="#FAF8F3" fill-opacity="0.8"/><circle cx="150.7" cy="539" r="1.1" fill="#FAF8F3" fill-opacity="0.8"/><circle cx="511.8" cy="508.9" r="2.5" fill="#FAF8F3" fill-opacity="0.4"/><circle cx="209.9" cy="446.1" r="1.5" fill="#FAF8F3" fill-opacity="0.8"/><circle cx="304.3" cy="689.5" r="2.5" fill="#FAF8F3" fill-opacity="0.4"/><circle cx="228.3" cy="575.7" r="2.2" fill="#FAF8F3" fill-opacity="0.7"/><circle cx="182.9" cy="666.7" r="1.6" fill="#FAF8F3" fill-opacity="0.5"/><circle cx="335.3" cy="565.8" r="2.5" fill="#FAF8F3" fill-opacity="0.4"/><circle cx="165.4" cy="413.8" r="1.8" fill="#FAF8F3" fill-opacity="0.5"/><circle cx="436.5" cy="578.8" r="0.9" fill="#FAF8F3" fill-opacity="1"/><circle cx="396.6" cy="646.2" r="1.4" fill="#FAF8F3" fill-opacity="0.9"/><circle cx="380" cy="520" r="4" fill="#3E4A5C"/><rect x="358" y="498" width="44" height="44" fill="none" stroke="#3E4A5C" stroke-width="2"/><text x="130" y="750" font-family="ui-monospace, 'JetBrains Mono', Menlo, monospace" font-size="15" letter-spacing="3" fill="#6B6B70">FITS  ·  difference images  ·  T frames</text><path d="M710 485 L830 485" stroke="#3E4A5C" stroke-width="4" stroke-dasharray="2 10" stroke-linecap="round"/><path d="M1090 375 l40.02 23 l0 -46 l-40.02 -23 Z" fill="#3E4A5C" fill-opacity="0.6" stroke="#FAF8F3" stroke-width="1"/><path d="M1090 375 l-40.02 23 l0 -46 l40.02 -23 Z" fill="#141416" fill-opacity="0.5" stroke="#FAF8F3" stroke-width="1"/><path d="M1090 329 l40.02 23 l-40.02 23 l-40.02 -23 Z" fill="#9ca1a8" fill-opacity="0.6" stroke="#FAF8F3" stroke-width="1"/><path d="M1130 398 l40.02 23 l0 -46 l-40.02 -23 Z" fill="#3E4A5C" fill-opacity="0.7" stroke="#FAF8F3" stroke-width="1"/><path d="M1130 398 l-40.02 23 l0 -46 l40.02 -23 Z" fill="#141416" fill-opacity="0.6" stroke="#FAF8F3" stroke-width="1"/><path d="M1130 352 l40.02 23 l-40.02 23 l-40.02 -23 Z" fill="#9ca1a8" fill-opacity="0.7" stroke="#FAF8F3" stroke-width="1"/><path d="M1170 421 l40.02 23 l0 -46 l-40.02 -23 Z" fill="#3E4A5C" fill-opacity="0.4" stroke="#FAF8F3" stroke-width="1"/><path d="M1170 421 l-40.02 23 l0 -46 l40.02 -23 Z" fill="#141416" fill-opacity="0.3" stroke="#FAF8F3" stroke-width="1"/><path d="M1170 375 l40.02 23 l-40.02 23 l-40.02 -23 Z" fill="#9ca1a8" fill-opacity="0.4" stroke="#FAF8F3" stroke-width="1"/><path d="M1210.1 444 l40.02 23 l0 -46 l-40.02 -23 Z" fill="#3E4A5C" fill-opacity="0.8" stroke="#FAF8F3" stroke-width="1"/><path d="M1210.1 444 l-40.02 23 l0 -46 l40.02 -23 Z" fill="#141416" fill-opacity="0.6" stroke="#FAF8F3" stroke-width="1"/><path d="M1210.1 398 l40.02 23 l-40.02 23 l-40.02 -23 Z" fill="#9ca1a8" fill-opacity="0.8" stroke="#FAF8F3" stroke-width="1"/><path d="M1250.1 467 l40.02 23 l0 -46 l-40.02 -23 Z" fill="#3E4A5C" fill-opacity="0.3" stroke="#FAF8F3" stroke-width="1"/><path d="M1250.1 467 l-40.02 23 l0 -46 l40.02 -23 Z" fill="#141416" fill-opacity="0.3" stroke="#FAF8F3" stroke-width="1"/><path d="M1250.1 421 l40.02 23 l-40.02 23 l-40.02 -23 Z" fill="#9ca1a8" fill-opacity="0.3" stroke="#FAF8F3" stroke-width="1"/><path d="M1290.1 490 l40.02 23 l0 -46 l-40.02 -23 Z" fill="#3E4A5C" fill-opacity="0.3" stroke="#FAF8F3" stroke-width="1"/><path d="M1290.1 490 l-40.02 23 l0 -46 l40.02 -23 Z" fill="#141416" fill-opacity="0.3" stroke="#FAF8F3" stroke-width="1"/><path d="M1290.1 444 l40.02 23 l-40.02 23 l-40.02 -23 Z" fill="#9ca1a8" fill-opacity="0.3" stroke="#FAF8F3" stroke-width="1"/><path d="M1250.1 513 l40.02 23 l0 -46 l-40.02 -23 Z" fill="#3E4A5C" fill-opacity="0.7" stroke="#FAF8F3" stroke-width="1"/><path d="M1250.1 513 l-40.02 23 l0 -46 l40.02 -23 Z" fill="#141416" fill-opacity="0.5" stroke="#FAF8F3" stroke-width="1"/><path d="M1250.1 467 l40.02 23 l-40.02 23 l-40.02 -23 Z" fill="#9ca1a8" fill-opacity="0.7" stroke="#FAF8F3" stroke-width="1"/><path d="M1210.1 536 l40.02 23 l0 -46 l-40.02 -23 Z" fill="#3E4A5C" fill-opacity="0.7" stroke="#FAF8F3" stroke-width="1"/><path d="M1210.1 536 l-40.02 23 l0 -46 l40.02 -23 Z" fill="#141416" fill-opacity="0.5" stroke="#FAF8F3" stroke-width="1"/><path d="M1210.1 490 l40.02 23 l-40.02 23 l-40.02 -23 Z" fill="#9ca1a8" fill-opacity="0.7" stroke="#FAF8F3" stroke-width="1"/><path d="M1170 559 l40.02 23 l0 -46 l-40.02 -23 Z" fill="#3E4A5C" fill-opacity="0.4" stroke="#FAF8F3" stroke-width="1"/><path d="M1170 559 l-40.02 23 l0 -46 l40.02 -23 Z" fill="#141416" fill-opacity="0.3" stroke="#FAF8F3" stroke-width="1"/><path d="M1170 513 l40.02 23 l-40.02 23 l-40.02 -23 Z" fill="#9ca1a8" fill-opacity="0.4" stroke="#FAF8F3" stroke-width="1"/><path d="M1130 582 l40.02 23 l0 -46 l-40.02 -23 Z" fill="#3E4A5C" fill-opacity="0.2" stroke="#FAF8F3" stroke-width="1"/><path d="M1130 582 l-40.02 23 l0 -46 l40.02 -23 Z" fill="#141416" fill-opacity="0.1" stroke="#FAF8F3" stroke-width="1"/><path d="M1130 536 l40.02 23 l-40.02 23 l-40.02 -23 Z" fill="#9ca1a8" fill-opacity="0.2" stroke="#FAF8F3" stroke-width="1"/><path d="M1090 605 l40.02 23 l0 -46 l-40.02 -23 Z" fill="#3E4A5C" fill-opacity="0.4" stroke="#FAF8F3" stroke-width="1"/><path d="M1090 605 l-40.02 23 l0 -46 l40.02 -23 Z" fill="#141416" fill-opacity="0.3" stroke="#FAF8F3" stroke-width="1"/><path d="M1090 559 l40.02 23 l-40.02 23 l-40.02 -23 Z" fill="#9ca1a8" fill-opacity="0.4" stroke="#FAF8F3" stroke-width="1"/><path d="M1090 421 l40.02 23 l0 -46 l-40.02 -23 Z" fill="#3E4A5C" fill-opacity="0.4" stroke="#FAF8F3" stroke-width="1"/><path d="M1090 421 l-40.02 23 l0 -46 l40.02 -23 Z" fill="#141416" fill-opacity="0.3" stroke="#FAF8F3" stroke-width="1"/><path d="M1090 375 l40.02 23 l-40.02 23 l-40.02 -23 Z" fill="#9ca1a8" fill-opacity="0.4" stroke="#FAF8F3" stroke-width="1"/><path d="M1130 444 l40.02 23 l0 -46 l-40.02 -23 Z" fill="#3E4A5C" fill-opacity="0.7" stroke="#FAF8F3" stroke-width="1"/><path d="M1130 444 l-40.02 23 l0 -46 l40.02 -23 Z" fill="#141416" fill-opacity="0.5" stroke="#FAF8F3" stroke-width="1"/><path d="M1130 398 l40.02 23 l-40.02 23 l-40.02 -23 Z" fill="#9ca1a8" fill-opacity="0.7" stroke="#FAF8F3" stroke-width="1"/><path d="M1170 467 l40.02 23 l0 -46 l-40.02 -23 Z" fill="#3E4A5C" fill-opacity="0.2" stroke="#FAF8F3" stroke-width="1"/><path d="M1170 467 l-40.02 23 l0 -46 l40.02 -23 Z" fill="#141416" fill-opacity="0.2" stroke="#FAF8F3" stroke-width="1"/><path d="M1170 421 l40.02 23 l-40.02 23 l-40.02 -23 Z" fill="#9ca1a8" fill-opacity="0.2" stroke="#FAF8F3" stroke-width="1"/><path d="M1210.1 490 l40.02 23 l0 -46 l-40.02 -23 Z" fill="#3E4A5C" fill-opacity="0.1" stroke="#FAF8F3" stroke-width="1"/><path d="M1210.1 490 l-40.02 23 l0 -46 l40.02 -23 Z" fill="#141416" fill-opacity="0.1" stroke="#FAF8F3" stroke-width="1"/><path d="M1210.1 444 l40.02 23 l-40.02 23 l-40.02 -23 Z" fill="#9ca1a8" fill-opacity="0.1" stroke="#FAF8F3" stroke-width="1"/><path d="M1250.1 513 l40.02 23 l0 -46 l-40.02 -23 Z" fill="#3E4A5C" fill-opacity="0.5" stroke="#FAF8F3" stroke-width="1"/><path d="M1250.1 513 l-40.02 23 l0 -46 l40.02 -23 Z" fill="#141416" fill-opacity="0.4" stroke="#FAF8F3" stroke-width="1"/><path d="M1250.1 467 l40.02 23 l-40.02 23 l-40.02 -23 Z" fill="#9ca1a8" fill-opacity="0.5" stroke="#FAF8F3" stroke-width="1"/><path d="M1290.1 536 l40.02 23 l0 -46 l-40.02 -23 Z" fill="#3E4A5C" fill-opacity="0.6" stroke="#FAF8F3" stroke-width="1"/><path d="M1290.1 536 l-40.02 23 l0 -46 l40.02 -23 Z" fill="#141416" fill-opacity="0.5" stroke="#FAF8F3" stroke-width="1"/><path d="M1290.1 490 l40.02 23 l-40.02 23 l-40.02 -23 Z" fill="#9ca1a8" fill-opacity="0.6" stroke="#FAF8F3" stroke-width="1"/><path d="M1250.1 559 l40.02 23 l0 -46 l-40.02 -23 Z" fill="#3E4A5C" fill-opacity="0.8" stroke="#FAF8F3" stroke-width="1"/><path d="M1250.1 559 l-40.02 23 l0 -46 l40.02 -23 Z" fill="#141416" fill-opacity="0.7" stroke="#FAF8F3" stroke-width="1"/><path d="M1250.1 513 l40.02 23 l-40.02 23 l-40.02 -23 Z" fill="#9ca1a8" fill-opacity="0.8" stroke="#FAF8F3" stroke-width="1"/><path d="M1210.1 582 l40.02 23 l0 -46 l-40.02 -23 Z" fill="#3E4A5C" fill-opacity="0.7" stroke="#FAF8F3" stroke-width="1"/><path d="M1210.1 582 l-40.02 23 l0 -46 l40.02 -23 Z" fill="#141416" fill-opacity="0.6" stroke="#FAF8F3" stroke-width="1"/><path d="M1210.1 536 l40.02 23 l-40.02 23 l-40.02 -23 Z" fill="#9ca1a8" fill-opacity="0.7" stroke="#FAF8F3" stroke-width="1"/><path d="M1170 605 l40.02 23 l0 -46 l-40.02 -23 Z" fill="#3E4A5C" fill-opacity="0.8" stroke="#FAF8F3" stroke-width="1"/><path d="M1170 605 l-40.02 23 l0 -46 l40.02 -23 Z" fill="#141416" fill-opacity="0.6" stroke="#FAF8F3" stroke-width="1"/><path d="M1170 559 l40.02 23 l-40.02 23 l-40.02 -23 Z" fill="#9ca1a8" fill-opacity="0.8" stroke="#FAF8F3" stroke-width="1"/><path d="M1130 628 l40.02 23 l0 -46 l-40.02 -23 Z" fill="#3E4A5C" fill-opacity="0.3" stroke="#FAF8F3" stroke-width="1"/><path d="M1130 628 l-40.02 23 l0 -46 l40.02 -23 Z" fill="#141416" fill-opacity="0.2" stroke="#FAF8F3" stroke-width="1"/><path d="M1130 582 l40.02 23 l-40.02 23 l-40.02 -23 Z" fill="#9ca1a8" fill-opacity="0.3" stroke="#FAF8F3" stroke-width="1"/><path d="M1090 651 l40.02 23 l0 -46 l-40.02 -23 Z" fill="#3E4A5C" fill-opacity="0.3" stroke="#FAF8F3" stroke-width="1"/><path d="M1090 651 l-40.02 23 l0 -46 l40.02 -23 Z" fill="#141416" fill-opacity="0.2" stroke="#FAF8F3" stroke-width="1"/><path d="M1090 605 l40.02 23 l-40.02 23 l-40.02 -23 Z" fill="#9ca1a8" fill-opacity="0.3" stroke="#FAF8F3" stroke-width="1"/><path d="M1090 467 l40.02 23 l0 -46 l-40.02 -23 Z" fill="#3E4A5C" fill-opacity="0.8" stroke="#FAF8F3" stroke-width="1"/><path d="M1090 467 l-40.02 23 l0 -46 l40.02 -23 Z" fill="#141416" fill-opacity="0.7" stroke="#FAF8F3" stroke-width="1"/><path d="M1090 421 l40.02 23 l-40.02 23 l-40.02 -23 Z" fill="#9ca1a8" fill-opacity="0.8" stroke="#FAF8F3" stroke-width="1"/><path d="M1130 490 l40.02 23 l0 -46 l-40.02 -23 Z" fill="#3E4A5C" fill-opacity="0.6" stroke="#FAF8F3" stroke-width="1"/><path d="M1130 490 l-40.02 23 l0 -46 l40.02 -23 Z" fill="#141416" fill-opacity="0.5" stroke="#FAF8F3" stroke-width="1"/><path d="M1130 444 l40.02 23 l-40.02 23 l-40.02 -23 Z" fill="#9ca1a8" fill-opacity="0.6" stroke="#FAF8F3" stroke-width="1"/><path d="M1170 513 l40.02 23 l0 -46 l-40.02 -23 Z" fill="#3E4A5C" fill-opacity="0.5" stroke="#FAF8F3" stroke-width="1"/><path d="M1170 513 l-40.02 23 l0 -46 l40.02 -23 Z" fill="#141416" fill-opacity="0.4" stroke="#FAF8F3" stroke-width="1"/><path d="M1170 467 l40.02 23 l-40.02 23 l-40.02 -23 Z" fill="#9ca1a8" fill-opacity="0.5" stroke="#FAF8F3" stroke-width="1"/><path d="M1210.1 536 l40.02 23 l0 -46 l-40.02 -23 Z" fill="#3E4A5C" fill-opacity="0.4" stroke="#FAF8F3" stroke-width="1"/><path d="M1210.1 536 l-40.02 23 l0 -46 l40.02 -23 Z" fill="#141416" fill-opacity="0.4" stroke="#FAF8F3" stroke-width="1"/><path d="M1210.1 490 l40.02 23 l-40.02 23 l-40.02 -23 Z" fill="#9ca1a8" fill-opacity="0.4" stroke="#FAF8F3" stroke-width="1"/><path d="M1250.1 559 l40.02 23 l0 -46 l-40.02 -23 Z" fill="#3E4A5C" fill-opacity="0.6" stroke="#FAF8F3" stroke-width="1"/><path d="M1250.1 559 l-40.02 23 l0 -46 l40.02 -23 Z" fill="#141416" fill-opacity="0.5" stroke="#FAF8F3" stroke-width="1"/><path d="M1250.1 513 l40.02 23 l-40.02 23 l-40.02 -23 Z" fill="#9ca1a8" fill-opacity="0.6" stroke="#FAF8F3" stroke-width="1"/><path d="M1290.1 582 l40.02 23 l0 -46 l-40.02 -23 Z" fill="#3E4A5C" fill-opacity="0.8" stroke="#FAF8F3" stroke-width="1"/><path d="M1290.1 582 l-40.02 23 l0 -46 l40.02 -23 Z" fill="#141416" fill-opacity="0.7" stroke="#FAF8F3" stroke-width="1"/><path d="M1290.1 536 l40.02 23 l-40.02 23 l-40.02 -23 Z" fill="#9ca1a8" fill-opacity="0.8" stroke="#FAF8F3" stroke-width="1"/><path d="M1250.1 605 l40.02 23 l0 -46 l-40.02 -23 Z" fill="#3E4A5C" fill-opacity="0.2" stroke="#FAF8F3" stroke-width="1"/><path d="M1250.1 605 l-40.02 23 l0 -46 l40.02 -23 Z" fill="#141416" fill-opacity="0.1" stroke="#FAF8F3" stroke-width="1"/><path d="M1250.1 559 l40.02 23 l-40.02 23 l-40.02 -23 Z" fill="#9ca1a8" fill-opacity="0.2" stroke="#FAF8F3" stroke-width="1"/><path d="M1210.1 628 l40.02 23 l0 -46 l-40.02 -23 Z" fill="#3E4A5C" fill-opacity="0.2" stroke="#FAF8F3" stroke-width="1"/><path d="M1210.1 628 l-40.02 23 l0 -46 l40.02 -23 Z" fill="#141416" fill-opacity="0.2" stroke="#FAF8F3" stroke-width="1"/><path d="M1210.1 582 l40.02 23 l-40.02 23 l-40.02 -23 Z" fill="#9ca1a8" fill-opacity="0.2" stroke="#FAF8F3" stroke-width="1"/><path d="M1170 651 l40.02 23 l0 -46 l-40.02 -23 Z" fill="#3E4A5C" fill-opacity="0.3" stroke="#FAF8F3" stroke-width="1"/><path d="M1170 651 l-40.02 23 l0 -46 l40.02 -23 Z" fill="#141416" fill-opacity="0.2" stroke="#FAF8F3" stroke-width="1"/><path d="M1170 605 l40.02 23 l-40.02 23 l-40.02 -23 Z" fill="#9ca1a8" fill-opacity="0.3" stroke="#FAF8F3" stroke-width="1"/><path d="M1130 674 l40.02 23 l0 -46 l-40.02 -23 Z" fill="#3E4A5C" fill-opacity="0.4" stroke="#FAF8F3" stroke-width="1"/><path d="M1130 674 l-40.02 23 l0 -46 l40.02 -23 Z" fill="#141416" fill-opacity="0.3" stroke="#FAF8F3" stroke-width="1"/><path d="M1130 628 l40.02 23 l-40.02 23 l-40.02 -23 Z" fill="#9ca1a8" fill-opacity="0.4" stroke="#FAF8F3" stroke-width="1"/><path d="M1090 697 l40.02 23 l0 -46 l-40.02 -23 Z" fill="#3E4A5C" fill-opacity="0.8" stroke="#FAF8F3" stroke-width="1"/><path d="M1090 697 l-40.02 23 l0 -46 l40.02 -23 Z" fill="#141416" fill-opacity="0.7" stroke="#FAF8F3" stroke-width="1"/><path d="M1090 651 l40.02 23 l-40.02 23 l-40.02 -23 Z" fill="#9ca1a8" fill-opacity="0.8" stroke="#FAF8F3" stroke-width="1"/><path d="M1090 513 l40.02 23 l0 -46 l-40.02 -23 Z" fill="#3E4A5C" fill-opacity="0.4" stroke="#FAF8F3" stroke-width="1"/><path d="M1090 513 l-40.02 23 l0 -46 l40.02 -23 Z" fill="#141416" fill-opacity="0.3" stroke="#FAF8F3" stroke-width="1"/><path d="M1090 467 l40.02 23 l-40.02 23 l-40.02 -23 Z" fill="#9ca1a8" fill-opacity="0.4" stroke="#FAF8F3" stroke-width="1"/><path d="M1130 536 l40.02 23 l0 -46 l-40.02 -23 Z" fill="#3E4A5C" fill-opacity="0.5" stroke="#FAF8F3" stroke-width="1"/><path d="M1130 536 l-40.02 23 l0 -46 l40.02 -23 Z" fill="#141416" fill-opacity="0.4" stroke="#FAF8F3" stroke-width="1"/><path d="M1130 490 l40.02 23 l-40.02 23 l-40.02 -23 Z" fill="#9ca1a8" fill-opacity="0.5" stroke="#FAF8F3" stroke-width="1"/><path d="M1170 559 l40.02 23 l0 -46 l-40.02 -23 Z" fill="#3E4A5C" fill-opacity="0.3" stroke="#FAF8F3" stroke-width="1"/><path d="M1170 559 l-40.02 23 l0 -46 l40.02 -23 Z" fill="#141416" fill-opacity="0.2" stroke="#FAF8F3" stroke-width="1"/><path d="M1170 513 l40.02 23 l-40.02 23 l-40.02 -23 Z" fill="#9ca1a8" fill-opacity="0.3" stroke="#FAF8F3" stroke-width="1"/><path d="M1210.1 582 l40.02 23 l0 -46 l-40.02 -23 Z" fill="#3E4A5C" fill-opacity="0.8" stroke="#FAF8F3" stroke-width="1"/><path d="M1210.1 582 l-40.02 23 l0 -46 l40.02 -23 Z" fill="#141416" fill-opacity="0.6" stroke="#FAF8F3" stroke-width="1"/><path d="M1210.1 536 l40.02 23 l-40.02 23 l-40.02 -23 Z" fill="#9ca1a8" fill-opacity="0.8" stroke="#FAF8F3" stroke-width="1"/><path d="M1250.1 605 l40.02 23 l0 -46 l-40.02 -23 Z" fill="#3E4A5C" fill-opacity="0.3" stroke="#FAF8F3" stroke-width="1"/><path d="M1250.1 605 l-40.02 23 l0 -46 l40.02 -23 Z" fill="#141416" fill-opacity="0.3" stroke="#FAF8F3" stroke-width="1"/><path d="M1250.1 559 l40.02 23 l-40.02 23 l-40.02 -23 Z" fill="#9ca1a8" fill-opacity="0.3" stroke="#FAF8F3" stroke-width="1"/><path d="M1290.1 628 l40.02 23 l0 -46 l-40.02 -23 Z" fill="#3E4A5C" fill-opacity="0.6" stroke="#FAF8F3" stroke-width="1"/><path d="M1290.1 628 l-40.02 23 l0 -46 l40.02 -23 Z" fill="#141416" fill-opacity="0.5" stroke="#FAF8F3" stroke-width="1"/><path d="M1290.1 582 l40.02 23 l-40.02 23 l-40.02 -23 Z" fill="#9ca1a8" fill-opacity="0.6" stroke="#FAF8F3" stroke-width="1"/><path d="M1250.1 651 l40.02 23 l0 -46 l-40.02 -23 Z" fill="#3E4A5C" fill-opacity="0.3" stroke="#FAF8F3" stroke-width="1"/><path d="M1250.1 651 l-40.02 23 l0 -46 l40.02 -23 Z" fill="#141416" fill-opacity="0.3" stroke="#FAF8F3" stroke-width="1"/><path d="M1250.1 605 l40.02 23 l-40.02 23 l-40.02 -23 Z" fill="#9ca1a8" fill-opacity="0.3" stroke="#FAF8F3" stroke-width="1"/><path d="M1210.1 674 l40.02 23 l0 -46 l-40.02 -23 Z" fill="#3E4A5C" fill-opacity="0.9" stroke="#FAF8F3" stroke-width="1"/><path d="M1210.1 674 l-40.02 23 l0 -46 l40.02 -23 Z" fill="#141416" fill-opacity="0.7" stroke="#FAF8F3" stroke-width="1"/><path d="M1210.1 628 l40.02 23 l-40.02 23 l-40.02 -23 Z" fill="#9ca1a8" fill-opacity="0.9" stroke="#FAF8F3" stroke-width="1"/><path d="M1170 697 l40.02 23 l0 -46 l-40.02 -23 Z" fill="#3E4A5C" fill-opacity="0.8" stroke="#FAF8F3" stroke-width="1"/><path d="M1170 697 l-40.02 23 l0 -46 l40.02 -23 Z" fill="#141416" fill-opacity="0.6" stroke="#FAF8F3" stroke-width="1"/><path d="M1170 651 l40.02 23 l-40.02 23 l-40.02 -23 Z" fill="#9ca1a8" fill-opacity="0.8" stroke="#FAF8F3" stroke-width="1"/><path d="M1130 720 l40.02 23 l0 -46 l-40.02 -23 Z" fill="#3E4A5C" fill-opacity="0.2" stroke="#FAF8F3" stroke-width="1"/><path d="M1130 720 l-40.02 23 l0 -46 l40.02 -23 Z" fill="#141416" fill-opacity="0.1" stroke="#FAF8F3" stroke-width="1"/><path d="M1130 674 l40.02 23 l-40.02 23 l-40.02 -23 Z" fill="#9ca1a8" fill-opacity="0.2" stroke="#FAF8F3" stroke-width="1"/><path d="M1090 743 l40.02 23 l0 -46 l-40.02 -23 Z" fill="#3E4A5C" fill-opacity="0.7" stroke="#FAF8F3" stroke-width="1"/><path d="M1090 743 l-40.02 23 l0 -46 l40.02 -23 Z" fill="#141416" fill-opacity="0.6" stroke="#FAF8F3" stroke-width="1"/><path d="M1090 697 l40.02 23 l-40.02 23 l-40.02 -23 Z" fill="#9ca1a8" fill-opacity="0.7" stroke="#FAF8F3" stroke-width="1"/><path d="M1090 559 l40.02 23 l0 -46 l-40.02 -23 Z" fill="#3E4A5C" fill-opacity="0.5" stroke="#FAF8F3" stroke-width="1"/><path d="M1090 559 l-40.02 23 l0 -46 l40.02 -23 Z" fill="#141416" fill-opacity="0.4" stroke="#FAF8F3" stroke-width="1"/><path d="M1090 513 l40.02 23 l-40.02 23 l-40.02 -23 Z" fill="#9ca1a8" fill-opacity="0.5" stroke="#FAF8F3" stroke-width="1"/><path d="M1130 582 l40.02 23 l0 -46 l-40.02 -23 Z" fill="#3E4A5C" fill-opacity="0.8" stroke="#FAF8F3" stroke-width="1"/><path d="M1130 582 l-40.02 23 l0 -46 l40.02 -23 Z" fill="#141416" fill-opacity="0.6" stroke="#FAF8F3" stroke-width="1"/><path d="M1130 536 l40.02 23 l-40.02 23 l-40.02 -23 Z" fill="#9ca1a8" fill-opacity="0.8" stroke="#FAF8F3" stroke-width="1"/><path d="M1170 605 l40.02 23 l0 -46 l-40.02 -23 Z" fill="#3E4A5C" fill-opacity="0.1" stroke="#FAF8F3" stroke-width="1"/><path d="M1170 605 l-40.02 23 l0 -46 l40.02 -23 Z" fill="#141416" fill-opacity="0.1" stroke="#FAF8F3" stroke-width="1"/><path d="M1170 559 l40.02 23 l-40.02 23 l-40.02 -23 Z" fill="#9ca1a8" fill-opacity="0.1" stroke="#FAF8F3" stroke-width="1"/><path d="M1210.1 628 l40.02 23 l0 -46 l-40.02 -23 Z" fill="#3E4A5C" fill-opacity="0.1" stroke="#FAF8F3" stroke-width="1"/><path d="M1210.1 628 l-40.02 23 l0 -46 l40.02 -23 Z" fill="#141416" fill-opacity="0.1" stroke="#FAF8F3" stroke-width="1"/><path d="M1210.1 582 l40.02 23 l-40.02 23 l-40.02 -23 Z" fill="#9ca1a8" fill-opacity="0.1" stroke="#FAF8F3" stroke-width="1"/><path d="M1250.1 651 l40.02 23 l0 -46 l-40.02 -23 Z" fill="#3E4A5C" fill-opacity="0.7" stroke="#FAF8F3" stroke-width="1"/><path d="M1250.1 651 l-40.02 23 l0 -46 l40.02 -23 Z" fill="#141416" fill-opacity="0.6" stroke="#FAF8F3" stroke-width="1"/><path d="M1250.1 605 l40.02 23 l-40.02 23 l-40.02 -23 Z" fill="#9ca1a8" fill-opacity="0.7" stroke="#FAF8F3" stroke-width="1"/><path d="M1290.1 674 l40.02 23 l0 -46 l-40.02 -23 Z" fill="#3E4A5C" fill-opacity="0.2" stroke="#FAF8F3" stroke-width="1"/><path d="M1290.1 674 l-40.02 23 l0 -46 l40.02 -23 Z" fill="#141416" fill-opacity="0.1" stroke="#FAF8F3" stroke-width="1"/><path d="M1290.1 628 l40.02 23 l-40.02 23 l-40.02 -23 Z" fill="#9ca1a8" fill-opacity="0.2" stroke="#FAF8F3" stroke-width="1"/><path d="M1250.1 697 l40.02 23 l0 -46 l-40.02 -23 Z" fill="#3E4A5C" fill-opacity="0.6" stroke="#FAF8F3" stroke-width="1"/><path d="M1250.1 697 l-40.02 23 l0 -46 l40.02 -23 Z" fill="#141416" fill-opacity="0.5" stroke="#FAF8F3" stroke-width="1"/><path d="M1250.1 651 l40.02 23 l-40.02 23 l-40.02 -23 Z" fill="#9ca1a8" fill-opacity="0.6" stroke="#FAF8F3" stroke-width="1"/><path d="M1210.1 720 l40.02 23 l0 -46 l-40.02 -23 Z" fill="#3E4A5C" fill-opacity="0.5" stroke="#FAF8F3" stroke-width="1"/><path d="M1210.1 720 l-40.02 23 l0 -46 l40.02 -23 Z" fill="#141416" fill-opacity="0.4" stroke="#FAF8F3" stroke-width="1"/><path d="M1210.1 674 l40.02 23 l-40.02 23 l-40.02 -23 Z" fill="#9ca1a8" fill-opacity="0.5" stroke="#FAF8F3" stroke-width="1"/><path d="M1170 743 l40.02 23 l0 -46 l-40.02 -23 Z" fill="#3E4A5C" fill-opacity="0.2" stroke="#FAF8F3" stroke-width="1"/><path d="M1170 743 l-40.02 23 l0 -46 l40.02 -23 Z" fill="#141416" fill-opacity="0.1" stroke="#FAF8F3" stroke-width="1"/><path d="M1170 697 l40.02 23 l-40.02 23 l-40.02 -23 Z" fill="#9ca1a8" fill-opacity="0.2" stroke="#FAF8F3" stroke-width="1"/><path d="M1130 766 l40.02 23 l0 -46 l-40.02 -23 Z" fill="#3E4A5C" fill-opacity="0.1" stroke="#FAF8F3" stroke-width="1"/><path d="M1130 766 l-40.02 23 l0 -46 l40.02 -23 Z" fill="#141416" fill-opacity="0.1" stroke="#FAF8F3" stroke-width="1"/><path d="M1130 720 l40.02 23 l-40.02 23 l-40.02 -23 Z" fill="#9ca1a8" fill-opacity="0.1" stroke="#FAF8F3" stroke-width="1"/><path d="M1090 789 l40.02 23 l0 -46 l-40.02 -23 Z" fill="#3E4A5C" fill-opacity="0.6" stroke="#FAF8F3" stroke-width="1"/><path d="M1090 789 l-40.02 23 l0 -46 l40.02 -23 Z" fill="#141416" fill-opacity="0.5" stroke="#FAF8F3" stroke-width="1"/><path d="M1090 743 l40.02 23 l-40.02 23 l-40.02 -23 Z" fill="#9ca1a8" fill-opacity="0.6" stroke="#FAF8F3" stroke-width="1"/><path d="M1090 605 l40.02 23 l0 -46 l-40.02 -23 Z" fill="#3E4A5C" fill-opacity="0.6" stroke="#FAF8F3" stroke-width="1"/><path d="M1090 605 l-40.02 23 l0 -46 l40.02 -23 Z" fill="#141416" fill-opacity="0.5" stroke="#FAF8F3" stroke-width="1"/><path d="M1090 559 l40.02 23 l-40.02 23 l-40.02 -23 Z" fill="#9ca1a8" fill-opacity="0.6" stroke="#FAF8F3" stroke-width="1"/><path d="M1050 628 l40.02 23 l0 -46 l-40.02 -23 Z" fill="#3E4A5C" fill-opacity="0.3" stroke="#FAF8F3" stroke-width="1"/><path d="M1050 628 l-40.02 23 l0 -46 l40.02 -23 Z" fill="#141416" fill-opacity="0.2" stroke="#FAF8F3" stroke-width="1"/><path d="M1050 582 l40.02 23 l-40.02 23 l-40.02 -23 Z" fill="#9ca1a8" fill-opacity="0.3" stroke="#FAF8F3" stroke-width="1"/><path d="M1010 651 l40.02 23 l0 -46 l-40.02 -23 Z" fill="#3E4A5C" fill-opacity="0.7" stroke="#FAF8F3" stroke-width="1"/><path d="M1010 651 l-40.02 23 l0 -46 l40.02 -23 Z" fill="#141416" fill-opacity="0.6" stroke="#FAF8F3" stroke-width="1"/><path d="M1010 605 l40.02 23 l-40.02 23 l-40.02 -23 Z" fill="#9ca1a8" fill-opacity="0.7" stroke="#FAF8F3" stroke-width="1"/><path d="M969.9 674 l40.02 23 l0 -46 l-40.02 -23 Z" fill="#3E4A5C" fill-opacity="0.8" stroke="#FAF8F3" stroke-width="1"/><path d="M969.9 674 l-40.02 23 l0 -46 l40.02 -23 Z" fill="#141416" fill-opacity="0.6" stroke="#FAF8F3" stroke-width="1"/><path d="M969.9 628 l40.02 23 l-40.02 23 l-40.02 -23 Z" fill="#9ca1a8" fill-opacity="0.8" stroke="#FAF8F3" stroke-width="1"/><path d="M929.9 697 l40.02 23 l0 -46 l-40.02 -23 Z" fill="#3E4A5C" fill-opacity="0.5" stroke="#FAF8F3" stroke-width="1"/><path d="M929.9 697 l-40.02 23 l0 -46 l40.02 -23 Z" fill="#141416" fill-opacity="0.4" stroke="#FAF8F3" stroke-width="1"/><path d="M929.9 651 l40.02 23 l-40.02 23 l-40.02 -23 Z" fill="#9ca1a8" fill-opacity="0.5" stroke="#FAF8F3" stroke-width="1"/><path d="M889.9 720 l40.02 23 l0 -46 l-40.02 -23 Z" fill="#3E4A5C" fill-opacity="0.2" stroke="#FAF8F3" stroke-width="1"/><path d="M889.9 720 l-40.02 23 l0 -46 l40.02 -23 Z" fill="#141416" fill-opacity="0.2" stroke="#FAF8F3" stroke-width="1"/><path d="M889.9 674 l40.02 23 l-40.02 23 l-40.02 -23 Z" fill="#9ca1a8" fill-opacity="0.2" stroke="#FAF8F3" stroke-width="1"/><path d="M1130 628 l40.02 23 l0 -46 l-40.02 -23 Z" fill="#3E4A5C" fill-opacity="0.3" stroke="#FAF8F3" stroke-width="1"/><path d="M1130 628 l-40.02 23 l0 -46 l40.02 -23 Z" fill="#141416" fill-opacity="0.3" stroke="#FAF8F3" stroke-width="1"/><path d="M1130 582 l40.02 23 l-40.02 23 l-40.02 -23 Z" fill="#9ca1a8" fill-opacity="0.3" stroke="#FAF8F3" stroke-width="1"/><path d="M1090 651 l40.02 23 l0 -46 l-40.02 -23 Z" fill="#3E4A5C" fill-opacity="0.5" stroke="#FAF8F3" stroke-width="1"/><path d="M1090 651 l-40.02 23 l0 -46 l40.02 -23 Z" fill="#141416" fill-opacity="0.4" stroke="#FAF8F3" stroke-width="1"/><path d="M1090 605 l40.02 23 l-40.02 23 l-40.02 -23 Z" fill="#9ca1a8" fill-opacity="0.5" stroke="#FAF8F3" stroke-width="1"/><path d="M1050 674 l40.02 23 l0 -46 l-40.02 -23 Z" fill="#3E4A5C" fill-opacity="0.5" stroke="#FAF8F3" stroke-width="1"/><path d="M1050 674 l-40.02 23 l0 -46 l40.02 -23 Z" fill="#141416" fill-opacity="0.4" stroke="#FAF8F3" stroke-width="1"/><path d="M1050 628 l40.02 23 l-40.02 23 l-40.02 -23 Z" fill="#9ca1a8" fill-opacity="0.5" stroke="#FAF8F3" stroke-width="1"/><path d="M1010 697 l40.02 23 l0 -46 l-40.02 -23 Z" fill="#3E4A5C" fill-opacity="0.3" stroke="#FAF8F3" stroke-width="1"/><path d="M1010 697 l-40.02 23 l0 -46 l40.02 -23 Z" fill="#141416" fill-opacity="0.3" stroke="#FAF8F3" stroke-width="1"/><path d="M1010 651 l40.02 23 l-40.02 23 l-40.02 -23 Z" fill="#9ca1a8" fill-opacity="0.3" stroke="#FAF8F3" stroke-width="1"/><path d="M969.9 720 l40.02 23 l0 -46 l-40.02 -23 Z" fill="#3E4A5C" fill-opacity="0.1" stroke="#FAF8F3" stroke-width="1"/><path d="M969.9 720 l-40.02 23 l0 -46 l40.02 -23 Z" fill="#141416" fill-opacity="0.1" stroke="#FAF8F3" stroke-width="1"/><path d="M969.9 674 l40.02 23 l-40.02 23 l-40.02 -23 Z" fill="#9ca1a8" fill-opacity="0.1" stroke="#FAF8F3" stroke-width="1"/><path d="M929.9 743 l40.02 23 l0 -46 l-40.02 -23 Z" fill="#3E4A5C" fill-opacity="0.6" stroke="#FAF8F3" stroke-width="1"/><path d="M929.9 743 l-40.02 23 l0 -46 l40.02 -23 Z" fill="#141416" fill-opacity="0.5" stroke="#FAF8F3" stroke-width="1"/><path d="M929.9 697 l40.02 23 l-40.02 23 l-40.02 -23 Z" fill="#9ca1a8" fill-opacity="0.6" stroke="#FAF8F3" stroke-width="1"/><path d="M1170 651 l40.02 23 l0 -46 l-40.02 -23 Z" fill="#3E4A5C" fill-opacity="0.3" stroke="#FAF8F3" stroke-width="1"/><path d="M1170 651 l-40.02 23 l0 -46 l40.02 -23 Z" fill="#141416" fill-opacity="0.2" stroke="#FAF8F3" stroke-width="1"/><path d="M1170 605 l40.02 23 l-40.02 23 l-40.02 -23 Z" fill="#9ca1a8" fill-opacity="0.3" stroke="#FAF8F3" stroke-width="1"/><path d="M1130 674 l40.02 23 l0 -46 l-40.02 -23 Z" fill="#3E4A5C" fill-opacity="0.4" stroke="#FAF8F3" stroke-width="1"/><path d="M1130 674 l-40.02 23 l0 -46 l40.02 -23 Z" fill="#141416" fill-opacity="0.3" stroke="#FAF8F3" stroke-width="1"/><path d="M1130 628 l40.02 23 l-40.02 23 l-40.02 -23 Z" fill="#9ca1a8" fill-opacity="0.4" stroke="#FAF8F3" stroke-width="1"/><path d="M1090 697 l40.02 23 l0 -46 l-40.02 -23 Z" fill="#3E4A5C" fill-opacity="0.5" stroke="#FAF8F3" stroke-width="1"/><path d="M1090 697 l-40.02 23 l0 -46 l40.02 -23 Z" fill="#141416" fill-opacity="0.4" stroke="#FAF8F3" stroke-width="1"/><path d="M1090 651 l40.02 23 l-40.02 23 l-40.02 -23 Z" fill="#9ca1a8" fill-opacity="0.5" stroke="#FAF8F3" stroke-width="1"/><path d="M1050 720 l40.02 23 l0 -46 l-40.02 -23 Z" fill="#3E4A5C" fill-opacity="0.4" stroke="#FAF8F3" stroke-width="1"/><path d="M1050 720 l-40.02 23 l0 -46 l40.02 -23 Z" fill="#141416" fill-opacity="0.3" stroke="#FAF8F3" stroke-width="1"/><path d="M1050 674 l40.02 23 l-40.02 23 l-40.02 -23 Z" fill="#9ca1a8" fill-opacity="0.4" stroke="#FAF8F3" stroke-width="1"/><path d="M1010 743 l40.02 23 l0 -46 l-40.02 -23 Z" fill="#3E4A5C" fill-opacity="0.1" stroke="#FAF8F3" stroke-width="1"/><path d="M1010 743 l-40.02 23 l0 -46 l40.02 -23 Z" fill="#141416" fill-opacity="0.1" stroke="#FAF8F3" stroke-width="1"/><path d="M1010 697 l40.02 23 l-40.02 23 l-40.02 -23 Z" fill="#9ca1a8" fill-opacity="0.1" stroke="#FAF8F3" stroke-width="1"/><path d="M969.9 766 l40.02 23 l0 -46 l-40.02 -23 Z" fill="#3E4A5C" fill-opacity="0.6" stroke="#FAF8F3" stroke-width="1"/><path d="M969.9 766 l-40.02 23 l0 -46 l40.02 -23 Z" fill="#141416" fill-opacity="0.5" stroke="#FAF8F3" stroke-width="1"/><path d="M969.9 720 l40.02 23 l-40.02 23 l-40.02 -23 Z" fill="#9ca1a8" fill-opacity="0.6" stroke="#FAF8F3" stroke-width="1"/><path d="M1210.1 674 l40.02 23 l0 -46 l-40.02 -23 Z" fill="#3E4A5C" fill-opacity="0.8" stroke="#FAF8F3" stroke-width="1"/><path d="M1210.1 674 l-40.02 23 l0 -46 l40.02 -23 Z" fill="#141416" fill-opacity="0.6" stroke="#FAF8F3" stroke-width="1"/><path d="M1210.1 628 l40.02 23 l-40.02 23 l-40.02 -23 Z" fill="#9ca1a8" fill-opacity="0.8" stroke="#FAF8F3" stroke-width="1"/><path d="M1170 697 l40.02 23 l0 -46 l-40.02 -23 Z" fill="#3E4A5C" fill-opacity="0.4" stroke="#FAF8F3" stroke-width="1"/><path d="M1170 697 l-40.02 23 l0 -46 l40.02 -23 Z" fill="#141416" fill-opacity="0.3" stroke="#FAF8F3" stroke-width="1"/><path d="M1170 651 l40.02 23 l-40.02 23 l-40.02 -23 Z" fill="#9ca1a8" fill-opacity="0.4" stroke="#FAF8F3" stroke-width="1"/><path d="M1130 720 l40.02 23 l0 -46 l-40.02 -23 Z" fill="#3E4A5C" fill-opacity="0.9" stroke="#FAF8F3" stroke-width="1"/><path d="M1130 720 l-40.02 23 l0 -46 l40.02 -23 Z" fill="#141416" fill-opacity="0.7" stroke="#FAF8F3" stroke-width="1"/><path d="M1130 674 l40.02 23 l-40.02 23 l-40.02 -23 Z" fill="#9ca1a8" fill-opacity="0.9" stroke="#FAF8F3" stroke-width="1"/><path d="M1090 743 l40.02 23 l0 -46 l-40.02 -23 Z" fill="#3E4A5C" fill-opacity="0.9" stroke="#FAF8F3" stroke-width="1"/><path d="M1090 743 l-40.02 23 l0 -46 l40.02 -23 Z" fill="#141416" fill-opacity="0.7" stroke="#FAF8F3" stroke-width="1"/><path d="M1090 697 l40.02 23 l-40.02 23 l-40.02 -23 Z" fill="#9ca1a8" fill-opacity="0.9" stroke="#FAF8F3" stroke-width="1"/><path d="M1050 766 l40.02 23 l0 -46 l-40.02 -23 Z" fill="#3E4A5C" fill-opacity="0.3" stroke="#FAF8F3" stroke-width="1"/><path d="M1050 766 l-40.02 23 l0 -46 l40.02 -23 Z" fill="#141416" fill-opacity="0.2" stroke="#FAF8F3" stroke-width="1"/><path d="M1050 720 l40.02 23 l-40.02 23 l-40.02 -23 Z" fill="#9ca1a8" fill-opacity="0.3" stroke="#FAF8F3" stroke-width="1"/><path d="M1010 789 l40.02 23 l0 -46 l-40.02 -23 Z" fill="#3E4A5C" fill-opacity="0.4" stroke="#FAF8F3" stroke-width="1"/><path d="M1010 789 l-40.02 23 l0 -46 l40.02 -23 Z" fill="#141416" fill-opacity="0.3" stroke="#FAF8F3" stroke-width="1"/><path d="M1010 743 l40.02 23 l-40.02 23 l-40.02 -23 Z" fill="#9ca1a8" fill-opacity="0.4" stroke="#FAF8F3" stroke-width="1"/><path d="M1250.1 697 l40.02 23 l0 -46 l-40.02 -23 Z" fill="#3E4A5C" fill-opacity="0.3" stroke="#FAF8F3" stroke-width="1"/><path d="M1250.1 697 l-40.02 23 l0 -46 l40.02 -23 Z" fill="#141416" fill-opacity="0.3" stroke="#FAF8F3" stroke-width="1"/><path d="M1250.1 651 l40.02 23 l-40.02 23 l-40.02 -23 Z" fill="#9ca1a8" fill-opacity="0.3" stroke="#FAF8F3" stroke-width="1"/><path d="M1210.1 720 l40.02 23 l0 -46 l-40.02 -23 Z" fill="#3E4A5C" fill-opacity="0.6" stroke="#FAF8F3" stroke-width="1"/><path d="M1210.1 720 l-40.02 23 l0 -46 l40.02 -23 Z" fill="#141416" fill-opacity="0.5" stroke="#FAF8F3" stroke-width="1"/><path d="M1210.1 674 l40.02 23 l-40.02 23 l-40.02 -23 Z" fill="#9ca1a8" fill-opacity="0.6" stroke="#FAF8F3" stroke-width="1"/><path d="M1170 743 l40.02 23 l0 -46 l-40.02 -23 Z" fill="#3E4A5C" fill-opacity="0.7" stroke="#FAF8F3" stroke-width="1"/><path d="M1170 743 l-40.02 23 l0 -46 l40.02 -23 Z" fill="#141416" fill-opacity="0.5" stroke="#FAF8F3" stroke-width="1"/><path d="M1170 697 l40.02 23 l-40.02 23 l-40.02 -23 Z" fill="#9ca1a8" fill-opacity="0.7" stroke="#FAF8F3" stroke-width="1"/><path d="M1130 766 l40.02 23 l0 -46 l-40.02 -23 Z" fill="#3E4A5C" fill-opacity="0.5" stroke="#FAF8F3" stroke-width="1"/><path d="M1130 766 l-40.02 23 l0 -46 l40.02 -23 Z" fill="#141416" fill-opacity="0.4" stroke="#FAF8F3" stroke-width="1"/><path d="M1130 720 l40.02 23 l-40.02 23 l-40.02 -23 Z" fill="#9ca1a8" fill-opacity="0.5" stroke="#FAF8F3" stroke-width="1"/><path d="M1090 789 l40.02 23 l0 -46 l-40.02 -23 Z" fill="#3E4A5C" fill-opacity="0.2" stroke="#FAF8F3" stroke-width="1"/><path d="M1090 789 l-40.02 23 l0 -46 l40.02 -23 Z" fill="#141416" fill-opacity="0.2" stroke="#FAF8F3" stroke-width="1"/><path d="M1090 743 l40.02 23 l-40.02 23 l-40.02 -23 Z" fill="#9ca1a8" fill-opacity="0.2" stroke="#FAF8F3" stroke-width="1"/><path d="M1050 812 l40.02 23 l0 -46 l-40.02 -23 Z" fill="#3E4A5C" fill-opacity="0.3" stroke="#FAF8F3" stroke-width="1"/><path d="M1050 812 l-40.02 23 l0 -46 l40.02 -23 Z" fill="#141416" fill-opacity="0.2" stroke="#FAF8F3" stroke-width="1"/><path d="M1050 766 l40.02 23 l-40.02 23 l-40.02 -23 Z" fill="#9ca1a8" fill-opacity="0.3" stroke="#FAF8F3" stroke-width="1"/><path d="M1290.1 720 l40.02 23 l0 -46 l-40.02 -23 Z" fill="#3E4A5C" fill-opacity="0.7" stroke="#FAF8F3" stroke-width="1"/><path d="M1290.1 720 l-40.02 23 l0 -46 l40.02 -23 Z" fill="#141416" fill-opacity="0.6" stroke="#FAF8F3" stroke-width="1"/><path d="M1290.1 674 l40.02 23 l-40.02 23 l-40.02 -23 Z" fill="#9ca1a8" fill-opacity="0.7" stroke="#FAF8F3" stroke-width="1"/><path d="M1250.1 743 l40.02 23 l0 -46 l-40.02 -23 Z" fill="#3E4A5C" fill-opacity="0.4" stroke="#FAF8F3" stroke-width="1"/><path d="M1250.1 743 l-40.02 23 l0 -46 l40.02 -23 Z" fill="#141416" fill-opacity="0.3" stroke="#FAF8F3" stroke-width="1"/><path d="M1250.1 697 l40.02 23 l-40.02 23 l-40.02 -23 Z" fill="#9ca1a8" fill-opacity="0.4" stroke="#FAF8F3" stroke-width="1"/><path d="M1210.1 766 l40.02 23 l0 -46 l-40.02 -23 Z" fill="#3E4A5C" fill-opacity="0.5" stroke="#FAF8F3" stroke-width="1"/><path d="M1210.1 766 l-40.02 23 l0 -46 l40.02 -23 Z" fill="#141416" fill-opacity="0.4" stroke="#FAF8F3" stroke-width="1"/><path d="M1210.1 720 l40.02 23 l-40.02 23 l-40.02 -23 Z" fill="#9ca1a8" fill-opacity="0.5" stroke="#FAF8F3" stroke-width="1"/><path d="M1170 789 l40.02 23 l0 -46 l-40.02 -23 Z" fill="#3E4A5C" fill-opacity="0.6" stroke="#FAF8F3" stroke-width="1"/><path d="M1170 789 l-40.02 23 l0 -46 l40.02 -23 Z" fill="#141416" fill-opacity="0.5" stroke="#FAF8F3" stroke-width="1"/><path d="M1170 743 l40.02 23 l-40.02 23 l-40.02 -23 Z" fill="#9ca1a8" fill-opacity="0.6" stroke="#FAF8F3" stroke-width="1"/><path d="M1130 812 l40.02 23 l0 -46 l-40.02 -23 Z" fill="#3E4A5C" fill-opacity="0.5" stroke="#FAF8F3" stroke-width="1"/><path d="M1130 812 l-40.02 23 l0 -46 l40.02 -23 Z" fill="#141416" fill-opacity="0.4" stroke="#FAF8F3" stroke-width="1"/><path d="M1130 766 l40.02 23 l-40.02 23 l-40.02 -23 Z" fill="#9ca1a8" fill-opacity="0.5" stroke="#FAF8F3" stroke-width="1"/><path d="M1090 835 l40.02 23 l0 -46 l-40.02 -23 Z" fill="#3E4A5C" fill-opacity="0.8" stroke="#FAF8F3" stroke-width="1"/><path d="M1090 835 l-40.02 23 l0 -46 l40.02 -23 Z" fill="#141416" fill-opacity="0.7" stroke="#FAF8F3" stroke-width="1"/><path d="M1090 789 l40.02 23 l-40.02 23 l-40.02 -23 Z" fill="#9ca1a8" fill-opacity="0.8" stroke="#FAF8F3" stroke-width="1"/><text x="890" y="750" font-family="ui-monospace, 'JetBrains Mono', Menlo, monospace" font-size="15" letter-spacing="3" fill="#6B6B70">HDF5 shards  ·  (T, 3, H, W)  +  injected TNOs</text></g>
  <rect width="1600" height="1000" filter="url(#grain)" opacity="0.7"/>
  <rect x="40" y="40" width="1520" height="920" fill="none" stroke="#141416" stroke-opacity="0.35" stroke-width="2"/>
  <text x="90" y="104" font-family="ui-monospace, 'JetBrains Mono', Menlo, monospace" font-size="24" letter-spacing="4" fill="#6B6B70">HPC &amp; SYSTEMS  ·  2026</text>
  <circle cx="1500" cy="96" r="10" fill="#3E4A5C"/>
  
</svg>
