<svg xmlns="http://www.w3.org/2000/svg" width="1600" height="1000" viewBox="0 0 1600 1000" role="img" aria-label="Outfit Classifier (Fashion-MNIST) thumbnail">
  <defs>
    <filter id="grain" x="0" y="0" width="100%" height="100%">
      <feTurbulence type="fractalNoise" baseFrequency="0.9" numOctaves="2" stitchTiles="stitch"/>
      <feColorMatrix type="saturate" values="0"/>
      <feComponentTransfer><feFuncA type="table" tableValues="0 0.06"/></feComponentTransfer>
    </filter>
    <clipPath id="safe"><rect x="50" y="110" width="1500" height="790"/></clipPath>
  </defs>
  <rect width="1600" height="1000" fill="#FAF8F3"/>
  <g clip-path="url(#safe)"><rect x="96" y="156" width="106.3" height="99.7" rx="6" fill="#2F5F63" fill-opacity="0.2"/><ellipse cx="150" cy="205.8" rx="34.5" ry="21.1" fill="#2F5F63" fill-opacity="0.6"/><rect x="96" y="267.7" width="106.3" height="99.7" rx="6" fill="#4E6B2F" fill-opacity="0.4"/><ellipse cx="150.9" cy="317.5" rx="27.4" ry="21.8" fill="#4E6B2F" fill-opacity="0.6"/><rect x="96" y="379.3" width="106.3" height="99.7" rx="6" fill="#5B4B8A" fill-opacity="0.3"/><ellipse cx="150.2" cy="429.2" rx="30.7" ry="31.9" fill="#5B4B8A" fill-opacity="0.6"/><rect x="96" y="491" width="106.3" height="99.7" rx="6" fill="#7A5C1E" fill-opacity="0.3"/><ellipse cx="148" cy="540.8" rx="38.2" ry="27.2" fill="#7A5C1E" fill-opacity="0.6"/><rect x="96" y="602.7" width="106.3" height="99.7" rx="6" fill="#2F5F63" fill-opacity="0.3"/><ellipse cx="138.3" cy="652.5" rx="30.4" ry="23.6" fill="#2F5F63" fill-opacity="0.6"/><rect x="96" y="714.3" width="106.3" height="99.7" rx="6" fill="#4E6B2F" fill-opacity="0.3"/><ellipse cx="147.1" cy="764.2" rx="29" ry="25.2" fill="#4E6B2F" fill-opacity="0.6"/><rect x="214.3" y="156" width="106.3" height="99.7" rx="6" fill="#7A5C1E" fill-opacity="0.2"/><ellipse cx="263.4" cy="205.8" rx="32.1" ry="23.3" fill="#7A5C1E" fill-opacity="0.6"/><rect x="214.3" y="267.7" width="106.3" height="99.7" rx="6" fill="#4E6B2F" fill-opacity="0.4"/><ellipse cx="263.6" cy="317.5" rx="29.1" ry="25.5" fill="#4E6B2F" fill-opacity="0.6"/><rect x="214.3" y="379.3" width="106.3" height="99.7" rx="6" fill="#95acab" fill-opacity="0.2"/><ellipse cx="280.6" cy="429.2" rx="27" ry="22.5" fill="#95acab" fill-opacity="0.6"/><rect x="214.3" y="491" width="106.3" height="99.7" rx="6" fill="#5B4B8A" fill-opacity="0.3"/><ellipse cx="262.6" cy="540.8" rx="27.3" ry="21.6" fill="#5B4B8A" fill-opacity="0.6"/><rect x="214.3" y="602.7" width="106.3" height="99.7" rx="6" fill="#1F4E79" fill-opacity="0.3"/><ellipse cx="258.4" cy="652.5" rx="34.4" ry="25.2" fill="#1F4E79" fill-opacity="0.6"/><rect x="214.3" y="714.3" width="106.3" height="99.7" rx="6" fill="#244144" fill-opacity="0.2"/><ellipse cx="280.2" cy="764.2" rx="23.9" ry="20" fill="#244144" fill-opacity="0.6"/><rect x="332.7" y="156" width="106.3" height="99.7" rx="6" fill="#1F4E79" fill-opacity="0.4"/><ellipse cx="373.8" cy="205.8" rx="32.3" ry="23.3" fill="#1F4E79" fill-opacity="0.6"/><rect x="332.7" y="267.7" width="106.3" height="99.7" rx="6" fill="#244144" fill-opacity="0.4"/><ellipse cx="396.3" cy="317.5" rx="22.2" ry="28" fill="#244144" fill-opacity="0.6"/><rect x="332.7" y="379.3" width="106.3" height="99.7" rx="6" fill="#4E6B2F" fill-opacity="0.5"/><ellipse cx="388" cy="429.2" rx="39" ry="27.1" fill="#4E6B2F" fill-opacity="0.6"/><rect x="332.7" y="491" width="106.3" height="99.7" rx="6" fill="#2F5F63" fill-opacity="0.2"/><ellipse cx="380.6" cy="540.8" rx="31.6" ry="31.2" fill="#2F5F63" fill-opacity="0.6"/><rect x="332.7" y="602.7" width="106.3" height="99.7" rx="6" fill="#95acab" fill-opacity="0.5"/><ellipse cx="391.3" cy="652.5" rx="23.9" ry="27.6" fill="#95acab" fill-opacity="0.6"/><rect x="332.7" y="714.3" width="106.3" height="99.7" rx="6" fill="#95acab" fill-opacity="0.4"/><ellipse cx="384.9" cy="764.2" rx="34.3" ry="29.3" fill="#95acab" fill-opacity="0.6"/><rect x="451" y="156" width="106.3" height="99.7" rx="6" fill="#5B4B8A" fill-opacity="0.5"/><ellipse cx="491.5" cy="205.8" rx="18.2" ry="18.2" fill="#5B4B8A" fill-opacity="0.6"/><rect x="451" y="267.7" width="106.3" height="99.7" rx="6" fill="#244144" fill-opacity="0.4"/><ellipse cx="514.7" cy="317.5" rx="39.5" ry="27.8" fill="#244144" fill-opacity="0.6"/><rect x="451" y="379.3" width="106.3" height="99.7" rx="6" fill="#5B4B8A" fill-opacity="0.2"/><ellipse cx="511.2" cy="429.2" rx="33.1" ry="31.3" fill="#5B4B8A" fill-opacity="0.6"/><rect x="451" y="491" width="106.3" height="99.7" rx="6" fill="#4E6B2F" fill-opacity="0.5"/><ellipse cx="494.4" cy="540.8" rx="31.4" ry="16.2" fill="#4E6B2F" fill-opacity="0.6"/><rect x="451" y="602.7" width="106.3" height="99.7" rx="6" fill="#5B4B8A" fill-opacity="0.3"/><ellipse cx="508.9" cy="652.5" rx="34.8" ry="25.6" fill="#5B4B8A" fill-opacity="0.6"/><rect x="451" y="714.3" width="106.3" height="99.7" rx="6" fill="#95acab" fill-opacity="0.3"/><ellipse cx="517.4" cy="764.2" rx="28.8" ry="25.2" fill="#95acab" fill-opacity="0.6"/><rect x="569.3" y="156" width="106.3" height="99.7" rx="6" fill="#1F4E79" fill-opacity="0.3"/><ellipse cx="610.6" cy="205.8" rx="23.9" ry="31.8" fill="#1F4E79" fill-opacity="0.6"/><rect x="569.3" y="267.7" width="106.3" height="99.7" rx="6" fill="#95acab" fill-opacity="0.5"/><ellipse cx="625.3" cy="317.5" rx="19.8" ry="22.4" fill="#95acab" fill-opacity="0.6"/><rect x="569.3" y="379.3" width="106.3" height="99.7" rx="6" fill="#7A5C1E" fill-opacity="0.3"/><ellipse cx="609.1" cy="429.2" rx="24.8" ry="16.3" fill="#7A5C1E" fill-opacity="0.6"/><rect x="569.3" y="491" width="106.3" height="99.7" rx="6" fill="#5B4B8A" fill-opacity="0.4"/><ellipse cx="608.6" cy="540.8" rx="19.5" ry="23.5" fill="#5B4B8A" fill-opacity="0.6"/><rect x="569.3" y="602.7" width="106.3" height="99.7" rx="6" fill="#2F5F63" fill-opacity="0.3"/><ellipse cx="609.3" cy="652.5" rx="25.6" ry="28.3" fill="#2F5F63" fill-opacity="0.6"/><rect x="569.3" y="714.3" width="106.3" height="99.7" rx="6" fill="#244144" fill-opacity="0.4"/><ellipse cx="632.5" cy="764.2" rx="33.9" ry="30.4" fill="#244144" fill-opacity="0.6"/><rect x="687.7" y="156" width="106.3" height="99.7" rx="6" fill="#244144" fill-opacity="0.2"/><ellipse cx="727.7" cy="205.8" rx="22.2" ry="21.7" fill="#244144" fill-opacity="0.6"/><rect x="687.7" y="267.7" width="106.3" height="99.7" rx="6" fill="#244144" fill-opacity="0.5"/><ellipse cx="749.3" cy="317.5" rx="18.5" ry="16.7" fill="#244144" fill-opacity="0.6"/><rect x="687.7" y="379.3" width="106.3" height="99.7" rx="6" fill="#7A5C1E" fill-opacity="0.2"/><ellipse cx="749.4" cy="429.2" rx="25.2" ry="27.3" fill="#7A5C1E" fill-opacity="0.6"/><rect x="685.7" y="377.3" width="110.3" height="103.7" rx="7" fill="none" stroke="#141416" stroke-width="3.5"/><rect x="691.7" y="441" width="70" height="30" fill="#141416"/><text x="702.7" y="462" font-family="ui-monospace, 'JetBrains Mono', Menlo, monospace" font-size="18" fill="#FAF8F3">0.94</text><rect x="687.7" y="491" width="106.3" height="99.7" rx="6" fill="#4E6B2F" fill-opacity="0.4"/><ellipse cx="753.8" cy="540.8" rx="18.1" ry="18.5" fill="#4E6B2F" fill-opacity="0.6"/><rect x="687.7" y="602.7" width="106.3" height="99.7" rx="6" fill="#4E6B2F" fill-opacity="0.5"/><ellipse cx="746.3" cy="652.5" rx="37.8" ry="19.6" fill="#4E6B2F" fill-opacity="0.6"/><rect x="687.7" y="714.3" width="106.3" height="99.7" rx="6" fill="#4E6B2F" fill-opacity="0.4"/><ellipse cx="753" cy="764.2" rx="38" ry="24.4" fill="#4E6B2F" fill-opacity="0.6"/><rect x="806" y="156" width="106.3" height="99.7" rx="6" fill="#95acab" fill-opacity="0.3"/><ellipse cx="848.5" cy="205.8" rx="22.3" ry="16.2" fill="#95acab" fill-opacity="0.6"/><rect x="804" y="154" width="110.3" height="103.7" rx="7" fill="none" stroke="#141416" stroke-width="3.5"/><rect x="810" y="217.7" width="70" height="30" fill="#141416"/><text x="821" y="238.7" font-family="ui-monospace, 'JetBrains Mono', Menlo, monospace" font-size="18" fill="#FAF8F3">0.89</text><rect x="806" y="267.7" width="106.3" height="99.7" rx="6" fill="#244144" fill-opacity="0.4"/><ellipse cx="860.9" cy="317.5" rx="35.3" ry="22.9" fill="#244144" fill-opacity="0.6"/><rect x="806" y="379.3" width="106.3" height="99.7" rx="6" fill="#244144" fill-opacity="0.3"/><ellipse cx="845.8" cy="429.2" rx="38.8" ry="29.1" fill="#244144" fill-opacity="0.6"/><rect x="806" y="491" width="106.3" height="99.7" rx="6" fill="#2F5F63" fill-opacity="0.4"/><ellipse cx="872.7" cy="540.8" rx="33.5" ry="26.8" fill="#2F5F63" fill-opacity="0.6"/><rect x="806" y="602.7" width="106.3" height="99.7" rx="6" fill="#2F5F63" fill-opacity="0.4"/><ellipse cx="859.1" cy="652.5" rx="27.5" ry="14.1" fill="#2F5F63" fill-opacity="0.6"/><rect x="806" y="714.3" width="106.3" height="99.7" rx="6" fill="#4E6B2F" fill-opacity="0.4"/><ellipse cx="845.4" cy="764.2" rx="25.7" ry="31.7" fill="#4E6B2F" fill-opacity="0.6"/><rect x="924.3" y="156" width="106.3" height="99.7" rx="6" fill="#244144" fill-opacity="0.5"/><ellipse cx="981.6" cy="205.8" rx="34.4" ry="26.3" fill="#244144" fill-opacity="0.6"/><rect x="924.3" y="267.7" width="106.3" height="99.7" rx="6" fill="#7A5C1E" fill-opacity="0.3"/><ellipse cx="984.9" cy="317.5" rx="29.8" ry="14.2" fill="#7A5C1E" fill-opacity="0.6"/><rect x="924.3" y="379.3" width="106.3" height="99.7" rx="6" fill="#1F4E79" fill-opacity="0.4"/><ellipse cx="980.5" cy="429.2" rx="34.3" ry="19.5" fill="#1F4E79" fill-opacity="0.6"/><rect x="924.3" y="491" width="106.3" height="99.7" rx="6" fill="#4E6B2F" fill-opacity="0.4"/><ellipse cx="987.9" cy="540.8" rx="20.7" ry="22.1" fill="#4E6B2F" fill-opacity="0.6"/><rect x="924.3" y="602.7" width="106.3" height="99.7" rx="6" fill="#4E6B2F" fill-opacity="0.3"/><ellipse cx="966.7" cy="652.5" rx="24.8" ry="28.8" fill="#4E6B2F" fill-opacity="0.6"/><rect x="924.3" y="714.3" width="106.3" height="99.7" rx="6" fill="#5B4B8A" fill-opacity="0.2"/><ellipse cx="965.5" cy="764.2" rx="34.6" ry="27.1" fill="#5B4B8A" fill-opacity="0.6"/><rect x="1042.7" y="156" width="106.3" height="99.7" rx="6" fill="#4E6B2F" fill-opacity="0.4"/><ellipse cx="1095.5" cy="205.8" rx="36.3" ry="24" fill="#4E6B2F" fill-opacity="0.6"/><rect x="1042.7" y="267.7" width="106.3" height="99.7" rx="6" fill="#4E6B2F" fill-opacity="0.2"/><ellipse cx="1097.3" cy="317.5" rx="33.2" ry="19.4" fill="#4E6B2F" fill-opacity="0.6"/><rect x="1042.7" y="379.3" width="106.3" height="99.7" rx="6" fill="#244144" fill-opacity="0.3"/><ellipse cx="1099.5" cy="429.2" rx="28.1" ry="23.8" fill="#244144" fill-opacity="0.6"/><rect x="1042.7" y="491" width="106.3" height="99.7" rx="6" fill="#4E6B2F" fill-opacity="0.4"/><ellipse cx="1085.5" cy="540.8" rx="38.2" ry="24.5" fill="#4E6B2F" fill-opacity="0.6"/><rect x="1042.7" y="602.7" width="106.3" height="99.7" rx="6" fill="#4E6B2F" fill-opacity="0.2"/><ellipse cx="1109.2" cy="652.5" rx="27.7" ry="31.3" fill="#4E6B2F" fill-opacity="0.6"/><rect x="1042.7" y="714.3" width="106.3" height="99.7" rx="6" fill="#1F4E79" fill-opacity="0.5"/><ellipse cx="1092.5" cy="764.2" rx="20.1" ry="22.8" fill="#1F4E79" fill-opacity="0.6"/><rect x="1161" y="156" width="106.3" height="99.7" rx="6" fill="#244144" fill-opacity="0.4"/><ellipse cx="1222.3" cy="205.8" rx="23.1" ry="19.8" fill="#244144" fill-opacity="0.6"/><rect x="1161" y="267.7" width="106.3" height="99.7" rx="6" fill="#4E6B2F" fill-opacity="0.3"/><ellipse cx="1207" cy="317.5" rx="39.5" ry="30" fill="#4E6B2F" fill-opacity="0.6"/><rect x="1161" y="379.3" width="106.3" height="99.7" rx="6" fill="#2F5F63" fill-opacity="0.3"/><ellipse cx="1202.5" cy="429.2" rx="33.5" ry="31.7" fill="#2F5F63" fill-opacity="0.6"/><rect x="1161" y="491" width="106.3" height="99.7" rx="6" fill="#5B4B8A" fill-opacity="0.2"/><ellipse cx="1211.6" cy="540.8" rx="34.7" ry="14.1" fill="#5B4B8A" fill-opacity="0.6"/><rect x="1161" y="602.7" width="106.3" height="99.7" rx="6" fill="#4E6B2F" fill-opacity="0.3"/><ellipse cx="1225.3" cy="652.5" rx="33.3" ry="20.6" fill="#4E6B2F" fill-opacity="0.6"/><rect x="1161" y="714.3" width="106.3" height="99.7" rx="6" fill="#2F5F63" fill-opacity="0.3"/><ellipse cx="1205.3" cy="764.2" rx="28.4" ry="23.2" fill="#2F5F63" fill-opacity="0.6"/><rect x="1279.3" y="156" width="106.3" height="99.7" rx="6" fill="#2F5F63" fill-opacity="0.3"/><ellipse cx="1320.8" cy="205.8" rx="18.1" ry="15.3" fill="#2F5F63" fill-opacity="0.6"/><rect x="1279.3" y="267.7" width="106.3" height="99.7" rx="6" fill="#4E6B2F" fill-opacity="0.3"/><ellipse cx="1345.3" cy="317.5" rx="39.7" ry="25.8" fill="#4E6B2F" fill-opacity="0.6"/><rect x="1279.3" y="379.3" width="106.3" height="99.7" rx="6" fill="#4E6B2F" fill-opacity="0.2"/><ellipse cx="1322.2" cy="429.2" rx="37.4" ry="20.5" fill="#4E6B2F" fill-opacity="0.6"/><rect x="1279.3" y="491" width="106.3" height="99.7" rx="6" fill="#95acab" fill-opacity="0.3"/><ellipse cx="1325.8" cy="540.8" rx="36.7" ry="21.7" fill="#95acab" fill-opacity="0.6"/><rect x="1279.3" y="602.7" width="106.3" height="99.7" rx="6" fill="#5B4B8A" fill-opacity="0.4"/><ellipse cx="1322.7" cy="652.5" rx="25.8" ry="24.9" fill="#5B4B8A" fill-opacity="0.6"/><rect x="1279.3" y="714.3" width="106.3" height="99.7" rx="6" fill="#5B4B8A" fill-opacity="0.2"/><ellipse cx="1333.8" cy="764.2" rx="23.6" ry="30.4" fill="#5B4B8A" fill-opacity="0.6"/><rect x="1397.7" y="156" width="106.3" height="99.7" rx="6" fill="#95acab" fill-opacity="0.5"/><ellipse cx="1452.8" cy="205.8" rx="33.6" ry="19.8" fill="#95acab" fill-opacity="0.6"/><rect x="1397.7" y="267.7" width="106.3" height="99.7" rx="6" fill="#4E6B2F" fill-opacity="0.3"/><ellipse cx="1443.3" cy="317.5" rx="36" ry="28.4" fill="#4E6B2F" fill-opacity="0.6"/><rect x="1397.7" y="379.3" width="106.3" height="99.7" rx="6" fill="#4E6B2F" fill-opacity="0.2"/><ellipse cx="1443.9" cy="429.2" rx="31" ry="21.6" fill="#4E6B2F" fill-opacity="0.6"/><rect x="1397.7" y="491" width="106.3" height="99.7" rx="6" fill="#5B4B8A" fill-opacity="0.3"/><ellipse cx="1461.8" cy="540.8" rx="32.1" ry="28.8" fill="#5B4B8A" fill-opacity="0.6"/><rect x="1397.7" y="602.7" width="106.3" height="99.7" rx="6" fill="#5B4B8A" fill-opacity="0.3"/><ellipse cx="1462.7" cy="652.5" rx="19.5" ry="28.8" fill="#5B4B8A" fill-opacity="0.6"/><rect x="1397.7" y="714.3" width="106.3" height="99.7" rx="6" fill="#244144" fill-opacity="0.4"/><ellipse cx="1452.1" cy="764.2" rx="32.7" ry="18.8" fill="#244144" fill-opacity="0.6"/></g>
  <rect width="1600" height="1000" filter="url(#grain)" opacity="0.7"/>
  <rect x="40" y="40" width="1520" height="920" fill="none" stroke="#141416" stroke-opacity="0.35" stroke-width="2"/>
  <text x="90" y="104" font-family="ui-monospace, 'JetBrains Mono', Menlo, monospace" font-size="24" letter-spacing="4" fill="#6B6B70">AI &amp; MACHINE LEARNING  ·  2025</text>
  <circle cx="1500" cy="96" r="10" fill="#2F5F63"/>
  <rect x="1316" y="780" width="224" height="180" fill="#FAF8F3" fill-opacity="0.82" rx="8"/>
  <text x="1510" y="904" text-anchor="end" font-family="Georgia, 'Times New Roman', serif" font-size="150" font-weight="500" fill="#141416" letter-spacing="-6">10</text>
  <text x="1508" y="942" text-anchor="end" font-family="ui-monospace, 'JetBrains Mono', Menlo, monospace" font-size="22" letter-spacing="3" fill="#6B6B70">CLASSES</text>
</svg>
