<svg xmlns="http://www.w3.org/2000/svg" width="1600" height="1000" viewBox="0 0 1600 1000" role="img" aria-label="5-Stage Pipelined RISC-V Processor thumbnail">
  <defs>
    <filter id="grain" x="0" y="0" width="100%" height="100%">
      <feTurbulence type="fractalNoise" baseFrequency="0.9" numOctaves="2" stitchTiles="stitch"/>
      <feColorMatrix type="saturate" values="0"/>
      <feComponentTransfer><feFuncA type="table" tableValues="0 0.06"/></feComponentTransfer>
    </filter>
    <clipPath id="safe"><rect x="50" y="110" width="1500" height="790"/></clipPath>
  </defs>
  <rect width="1600" height="1000" fill="#FAF8F3"/>
  <g clip-path="url(#safe)"><path d="M1250 670 L1250 750 L1450 750 L1450 590 L1510 590" fill="none" stroke="#141416" stroke-opacity="0.28" stroke-width="3" stroke-linejoin="round" stroke-linecap="round"/><circle cx="1510" cy="590" r="6" fill="#FAF8F3" stroke="#141416" stroke-opacity="0.5" stroke-width="3"/><path d="M850 550 L850 710 L810 710 L810 590" fill="none" stroke="#141416" stroke-opacity="0.28" stroke-width="3" stroke-linejoin="round" stroke-linecap="round"/><circle cx="810" cy="590" r="6" fill="#FAF8F3" stroke="#141416" stroke-opacity="0.5" stroke-width="3"/><path d="M1370 670 L1370 790 L1170 790 L1170 820 L1050 820" fill="none" stroke="#141416" stroke-opacity="0.28" stroke-width="3" stroke-linejoin="round" stroke-linecap="round"/><circle cx="1050" cy="820" r="6" fill="#FAF8F3" stroke="#141416" stroke-opacity="0.5" stroke-width="3"/><path d="M730 710 L650 710 L650 550 L850 550 L850 470 L930 470 L930 590 L850 590" fill="none" stroke="#141416" stroke-opacity="0.28" stroke-width="3" stroke-linejoin="round" stroke-linecap="round"/><circle cx="850" cy="590" r="6" fill="#FAF8F3" stroke="#141416" stroke-opacity="0.5" stroke-width="3"/><path d="M930 470 L930 550 L850 550 L850 470 L970 470 L970 430" fill="none" stroke="#141416" stroke-opacity="0.28" stroke-width="3" stroke-linejoin="round" stroke-linecap="round"/><circle cx="970" cy="430" r="6" fill="#FAF8F3" stroke="#141416" stroke-opacity="0.5" stroke-width="3"/><path d="M1330 670 L1130 670 L1130 790 L1290 790 L1290 670 L1250 670 L1250 510 L1330 510" fill="none" stroke="#1F4E79" stroke-opacity="0.9" stroke-width="5" stroke-linejoin="round" stroke-linecap="round"/><circle cx="1330" cy="510" r="9" fill="#FAF8F3" stroke="#1F4E79" stroke-opacity="1" stroke-width="3"/><path d="M330 350 L330 230 L130 230 L130 150 L90 150 L90 150 L130 150" fill="none" stroke="#141416" stroke-opacity="0.28" stroke-width="3" stroke-linejoin="round" stroke-linecap="round"/><circle cx="130" cy="150" r="6" fill="#FAF8F3" stroke="#141416" stroke-opacity="0.5" stroke-width="3"/><path d="M1050 790 L1130 790 L1130 820 L1170 820 L1170 740 L1290 740 L1290 540 L1210 540 L1210 660" fill="none" stroke="#141416" stroke-opacity="0.28" stroke-width="3" stroke-linejoin="round" stroke-linecap="round"/><circle cx="1210" cy="660" r="6" fill="#FAF8F3" stroke="#141416" stroke-opacity="0.5" stroke-width="3"/><path d="M610 750 L610 820 L570 820 L570 820 L690 820 L690 780 L610 780 L610 820 L490 820" fill="none" stroke="#141416" stroke-opacity="0.28" stroke-width="3" stroke-linejoin="round" stroke-linecap="round"/><circle cx="490" cy="820" r="6" fill="#FAF8F3" stroke="#141416" stroke-opacity="0.5" stroke-width="3"/><path d="M650 270 L730 270 L730 150 L930 150 L930 270" fill="none" stroke="#141416" stroke-opacity="0.28" stroke-width="3" stroke-linejoin="round" stroke-linecap="round"/><circle cx="930" cy="270" r="6" fill="#FAF8F3" stroke="#141416" stroke-opacity="0.5" stroke-width="3"/><path d="M530 710 L530 670 L410 670 L410 630 L210 630 L210 710 L90 710 L90 590" fill="none" stroke="#141416" stroke-opacity="0.28" stroke-width="3" stroke-linejoin="round" stroke-linecap="round"/><circle cx="90" cy="590" r="6" fill="#FAF8F3" stroke="#141416" stroke-opacity="0.5" stroke-width="3"/><path d="M650 710 L530 710 L530 820 L650 820" fill="none" stroke="#1F4E79" stroke-opacity="0.9" stroke-width="5" stroke-linejoin="round" stroke-linecap="round"/><circle cx="650" cy="820" r="9" fill="#FAF8F3" stroke="#1F4E79" stroke-opacity="1" stroke-width="3"/><path d="M570 390 L570 270 L770 270 L770 150 L970 150 L970 150 L930 150 L930 150 L770 150" fill="none" stroke="#141416" stroke-opacity="0.28" stroke-width="3" stroke-linejoin="round" stroke-linecap="round"/><circle cx="770" cy="150" r="6" fill="#FAF8F3" stroke="#141416" stroke-opacity="0.5" stroke-width="3"/><path d="M1050 310 L1050 150 L1250 150 L1250 270 L1410 270 L1410 390 L1510 390 L1510 230" fill="none" stroke="#141416" stroke-opacity="0.28" stroke-width="3" stroke-linejoin="round" stroke-linecap="round"/><circle cx="1510" cy="230" r="6" fill="#FAF8F3" stroke="#141416" stroke-opacity="0.5" stroke-width="3"/><path d="M890 230 L890 390 L1010 390 L1010 470 L1090 470 L1090 670" fill="none" stroke="#1F4E79" stroke-opacity="0.9" stroke-width="5" stroke-linejoin="round" stroke-linecap="round"/><circle cx="1090" cy="670" r="9" fill="#FAF8F3" stroke="#1F4E79" stroke-opacity="1" stroke-width="3"/><path d="M1050 710 L1170 710 L1170 820 L1010 820 L1010 780" fill="none" stroke="#141416" stroke-opacity="0.28" stroke-width="3" stroke-linejoin="round" stroke-linecap="round"/><circle cx="1010" cy="780" r="6" fill="#FAF8F3" stroke="#141416" stroke-opacity="0.5" stroke-width="3"/><path d="M290 390 L450 390 L450 590 L610 590" fill="none" stroke="#141416" stroke-opacity="0.28" stroke-width="3" stroke-linejoin="round" stroke-linecap="round"/><circle cx="610" cy="590" r="6" fill="#FAF8F3" stroke="#141416" stroke-opacity="0.5" stroke-width="3"/><path d="M610 510 L610 390 L690 390 L690 470 L810 470" fill="none" stroke="#141416" stroke-opacity="0.28" stroke-width="3" stroke-linejoin="round" stroke-linecap="round"/><circle cx="810" cy="470" r="6" fill="#FAF8F3" stroke="#141416" stroke-opacity="0.5" stroke-width="3"/><path d="M1450 230 L1450 150 L1250 150 L1250 350 L1170 350 L1170 310 L1010 310" fill="none" stroke="#1F4E79" stroke-opacity="0.9" stroke-width="5" stroke-linejoin="round" stroke-linecap="round"/><circle cx="1010" cy="310" r="9" fill="#FAF8F3" stroke="#1F4E79" stroke-opacity="1" stroke-width="3"/><path d="M1090 750 L1290 750 L1290 820 L1210 820 L1210 620 L1410 620 L1410 700 L1210 700" fill="none" stroke="#141416" stroke-opacity="0.28" stroke-width="3" stroke-linejoin="round" stroke-linecap="round"/><circle cx="1210" cy="700" r="6" fill="#FAF8F3" stroke="#141416" stroke-opacity="0.5" stroke-width="3"/><path d="M930 630 L970 630 L970 710 L890 710 L890 750 L730 750 L730 820 L890 820 L890 660" fill="none" stroke="#141416" stroke-opacity="0.28" stroke-width="3" stroke-linejoin="round" stroke-linecap="round"/><circle cx="890" cy="660" r="6" fill="#FAF8F3" stroke="#141416" stroke-opacity="0.5" stroke-width="3"/><path d="M1250 630 L1410 630 L1410 820 L1330 820 L1330 820 L1490 820 L1490 780 L1330 780" fill="none" stroke="#141416" stroke-opacity="0.28" stroke-width="3" stroke-linejoin="round" stroke-linecap="round"/><circle cx="1330" cy="780" r="6" fill="#FAF8F3" stroke="#141416" stroke-opacity="0.5" stroke-width="3"/><path d="M610 430 L610 230 L490 230 L490 150 L570 150 L570 150" fill="none" stroke="#141416" stroke-opacity="0.28" stroke-width="3" stroke-linejoin="round" stroke-linecap="round"/><circle cx="570" cy="150" r="6" fill="#FAF8F3" stroke="#141416" stroke-opacity="0.5" stroke-width="3"/><path d="M490 270 L650 270 L650 310 L610 310 L610 350" fill="none" stroke="#141416" stroke-opacity="0.28" stroke-width="3" stroke-linejoin="round" stroke-linecap="round"/><circle cx="610" cy="350" r="6" fill="#FAF8F3" stroke="#141416" stroke-opacity="0.5" stroke-width="3"/><path d="M250 550 L250 670 L410 670 L410 750 L530 750 L530 820 L610 820" fill="none" stroke="#141416" stroke-opacity="0.28" stroke-width="3" stroke-linejoin="round" stroke-linecap="round"/><circle cx="610" cy="820" r="6" fill="#FAF8F3" stroke="#141416" stroke-opacity="0.5" stroke-width="3"/><path d="M650 470 L650 510 L610 510 L610 470 L770 470" fill="none" stroke="#141416" stroke-opacity="0.28" stroke-width="3" stroke-linejoin="round" stroke-linecap="round"/><circle cx="770" cy="470" r="6" fill="#FAF8F3" stroke="#141416" stroke-opacity="0.5" stroke-width="3"/><path d="M1170 230 L1170 150 L1130 150 L1130 270 L1050 270 L1050 230 L970 230 L970 190" fill="none" stroke="#141416" stroke-opacity="0.28" stroke-width="3" stroke-linejoin="round" stroke-linecap="round"/><circle cx="970" cy="190" r="6" fill="#FAF8F3" stroke="#141416" stroke-opacity="0.5" stroke-width="3"/><path d="M1250 230 L1250 150 L1170 150 L1170 230 L1130 230" fill="none" stroke="#141416" stroke-opacity="0.28" stroke-width="3" stroke-linejoin="round" stroke-linecap="round"/><circle cx="1130" cy="230" r="6" fill="#FAF8F3" stroke="#141416" stroke-opacity="0.5" stroke-width="3"/><path d="M1090 710 L930 710 L930 510 L1050 510 L1050 430" fill="none" stroke="#141416" stroke-opacity="0.28" stroke-width="3" stroke-linejoin="round" stroke-linecap="round"/><circle cx="1050" cy="430" r="6" fill="#FAF8F3" stroke="#141416" stroke-opacity="0.5" stroke-width="3"/><path d="M1370 150 L1370 150 L1330 150 L1330 150 L1510 150 L1510 150 L1430 150 L1430 270 L1510 270" fill="none" stroke="#141416" stroke-opacity="0.28" stroke-width="3" stroke-linejoin="round" stroke-linecap="round"/><circle cx="1510" cy="270" r="6" fill="#FAF8F3" stroke="#141416" stroke-opacity="0.5" stroke-width="3"/><path d="M930 350 L890 350 L890 270 L1050 270" fill="none" stroke="#141416" stroke-opacity="0.28" stroke-width="3" stroke-linejoin="round" stroke-linecap="round"/><circle cx="1050" cy="270" r="6" fill="#FAF8F3" stroke="#141416" stroke-opacity="0.5" stroke-width="3"/><rect x="970" y="230" width="280" height="200" rx="6" fill="#FAF8F3" stroke="#141416" stroke-width="4"/><rect x="984" y="244" width="252" height="172" rx="3" fill="#141416" fill-opacity="0.9"/><circle cx="1000" cy="260" r="6" fill="#1F4E79"/><line x1="990" y1="216" x2="990" y2="230" stroke="#141416" stroke-width="4"/><line x1="990" y1="430" x2="990" y2="444" stroke="#141416" stroke-width="4"/><line x1="1030" y1="216" x2="1030" y2="230" stroke="#141416" stroke-width="4"/><line x1="1030" y1="430" x2="1030" y2="444" stroke="#141416" stroke-width="4"/><line x1="1070" y1="216" x2="1070" y2="230" stroke="#141416" stroke-width="4"/><line x1="1070" y1="430" x2="1070" y2="444" stroke="#141416" stroke-width="4"/><line x1="1110" y1="216" x2="1110" y2="230" stroke="#141416" stroke-width="4"/><line x1="1110" y1="430" x2="1110" y2="444" stroke="#141416" stroke-width="4"/><line x1="1150" y1="216" x2="1150" y2="230" stroke="#141416" stroke-width="4"/><line x1="1150" y1="430" x2="1150" y2="444" stroke="#141416" stroke-width="4"/><line x1="1190" y1="216" x2="1190" y2="230" stroke="#141416" stroke-width="4"/><line x1="1190" y1="430" x2="1190" y2="444" stroke="#141416" stroke-width="4"/><line x1="1230" y1="216" x2="1230" y2="230" stroke="#141416" stroke-width="4"/><line x1="1230" y1="430" x2="1230" y2="444" stroke="#141416" stroke-width="4"/><rect x="690" y="470" width="280" height="160" rx="6" fill="#FAF8F3" stroke="#141416" stroke-width="4"/><rect x="704" y="484" width="252" height="132" rx="3" fill="#141416" fill-opacity="0.9"/><circle cx="720" cy="500" r="6" fill="#1F4E79"/><line x1="710" y1="456" x2="710" y2="470" stroke="#141416" stroke-width="4"/><line x1="710" y1="630" x2="710" y2="644" stroke="#141416" stroke-width="4"/><line x1="750" y1="456" x2="750" y2="470" stroke="#141416" stroke-width="4"/><line x1="750" y1="630" x2="750" y2="644" stroke="#141416" stroke-width="4"/><line x1="790" y1="456" x2="790" y2="470" stroke="#141416" stroke-width="4"/><line x1="790" y1="630" x2="790" y2="644" stroke="#141416" stroke-width="4"/><line x1="830" y1="456" x2="830" y2="470" stroke="#141416" stroke-width="4"/><line x1="830" y1="630" x2="830" y2="644" stroke="#141416" stroke-width="4"/><line x1="870" y1="456" x2="870" y2="470" stroke="#141416" stroke-width="4"/><line x1="870" y1="630" x2="870" y2="644" stroke="#141416" stroke-width="4"/><line x1="910" y1="456" x2="910" y2="470" stroke="#141416" stroke-width="4"/><line x1="910" y1="630" x2="910" y2="644" stroke="#141416" stroke-width="4"/><line x1="950" y1="456" x2="950" y2="470" stroke="#141416" stroke-width="4"/><line x1="950" y1="630" x2="950" y2="644" stroke="#141416" stroke-width="4"/><path d="M90 880 L90 854 L128 854 L128 880 L166 880 L166 854 L204 854 L204 880 L242 880 L242 854 L280 854 L280 880 L318 880 L318 854 L356 854 L356 880 L394 880 L394 854 L432 854 L432 880 L470 880 L470 854 L508 854 L508 880 L546 880 L546 854 L584 854 L584 880 L622 880 L622 854 L660 854 L660 880 L698 880 L698 854 L736 854 L736 880 L774 880 L774 854 L812 854 L812 880 L850 880 L850 854 L888 854 L888 880 L926 880 L926 854 L964 854 L964 880 L1002 880 L1002 854 L1040 854 L1040 880 L1078 880 L1078 854 L1116 854 L1116 880 L1154 880 L1154 854 L1192 854 L1192 880 L1230 880 L1230 854 L1268 854 L1268 880 L1306 880 L1306 854 L1344 854 L1344 880 L1382 880 L1382 854 L1420 854 L1420 880 L1458 880 L1458 854 L1496 854 L1496 880 L1534 880" fill="none" stroke="#1F4E79" stroke-width="3.5" stroke-linejoin="round"/></g>
  <rect width="1600" height="1000" filter="url(#grain)" opacity="0.7"/>
  <rect x="40" y="40" width="1520" height="920" fill="none" stroke="#141416" stroke-opacity="0.35" stroke-width="2"/>
  <text x="90" y="104" font-family="ui-monospace, 'JetBrains Mono', Menlo, monospace" font-size="24" letter-spacing="4" fill="#6B6B70">FPGA &amp; DIGITAL DESIGN  ·  2025</text>
  <circle cx="1500" cy="96" r="10" fill="#1F4E79"/>
  <text x="1510" y="904" text-anchor="end" font-family="Georgia, 'Times New Roman', serif" font-size="150" font-weight="500" fill="#141416" letter-spacing="-6">4×</text>
  <text x="1508" y="942" text-anchor="end" font-family="ui-monospace, 'JetBrains Mono', Menlo, monospace" font-size="22" letter-spacing="3" fill="#6B6B70">THROUGHPUT VS SINGLE-CYCLE</text>
</svg>
