<svg xmlns="http://www.w3.org/2000/svg" width="1600" height="1000" viewBox="0 0 1600 1000" role="img" aria-label="ShroomSafe thumbnail">
  <defs>
    <filter id="grain" x="0" y="0" width="100%" height="100%">
      <feTurbulence type="fractalNoise" baseFrequency="0.9" numOctaves="2" stitchTiles="stitch"/>
      <feColorMatrix type="saturate" values="0"/>
      <feComponentTransfer><feFuncA type="table" tableValues="0 0.06"/></feComponentTransfer>
    </filter>
    <clipPath id="safe"><rect x="50" y="110" width="1500" height="790"/></clipPath>
  </defs>
  <rect width="1600" height="1000" fill="#FAF8F3"/>
  <g clip-path="url(#safe)"><path d="M800 214 C 800 280, 440 250, 440 316" fill="none" stroke="#141416" stroke-opacity="0.45" stroke-width="2.5"/><path d="M440 364 C 440 430, 268.6 400, 268.6 466" fill="none" stroke="#141416" stroke-opacity="0.45" stroke-width="2.5"/><path d="M268.6 514 C 268.6 580, 186.9 550, 186.9 616" fill="none" stroke="#141416" stroke-opacity="0.45" stroke-width="2.5"/><circle cx="186.9" cy="640" r="24" fill="#2F5F63" fill-opacity="0.9"/><path d="M268.6 514 C 268.6 580, 350.2 550, 350.2 616" fill="none" stroke="#141416" stroke-opacity="0.45" stroke-width="2.5"/><circle cx="350.2" cy="640" r="24" fill="#2F5F63" fill-opacity="0.9"/><rect x="204.6" y="466" width="128" height="48" rx="8" fill="#FAF8F3" stroke="#141416" stroke-width="3"/><line x1="228.6" y1="490" x2="308.6" y2="490" stroke="#141416" stroke-opacity="0.35" stroke-width="6" stroke-linecap="round"/><path d="M440 364 C 440 430, 611.4 400, 611.4 466" fill="none" stroke="#141416" stroke-opacity="0.45" stroke-width="2.5"/><path d="M611.4 514 C 611.4 580, 529.8 550, 529.8 616" fill="none" stroke="#141416" stroke-opacity="0.45" stroke-width="2.5"/><circle cx="529.8" cy="640" r="24" fill="#2F5F63" fill-opacity="0.9"/><path d="M611.4 514 C 611.4 580, 693.1 550, 693.1 616" fill="none" stroke="#141416" stroke-opacity="0.45" stroke-width="2.5"/><circle cx="693.1" cy="640" r="24" fill="#2F5F63" fill-opacity="0.9"/><rect x="547.4" y="466" width="128" height="48" rx="8" fill="#FAF8F3" stroke="#141416" stroke-width="3"/><line x1="571.4" y1="490" x2="651.4" y2="490" stroke="#141416" stroke-opacity="0.35" stroke-width="6" stroke-linecap="round"/><rect x="376" y="316" width="128" height="48" rx="8" fill="#FAF8F3" stroke="#141416" stroke-width="3"/><line x1="400" y1="340" x2="480" y2="340" stroke="#141416" stroke-opacity="0.35" stroke-width="6" stroke-linecap="round"/><path d="M800 214 C 800 280, 1160 250, 1160 316" fill="none" stroke="#141416" stroke-opacity="0.45" stroke-width="2.5"/><path d="M1160 364 C 1160 430, 988.6 400, 988.6 466" fill="none" stroke="#141416" stroke-opacity="0.45" stroke-width="2.5"/><path d="M988.6 514 C 988.6 580, 906.9 550, 906.9 616" fill="none" stroke="#141416" stroke-opacity="0.45" stroke-width="2.5"/><circle cx="906.9" cy="640" r="24" fill="#2F5F63" fill-opacity="0.9"/><path d="M988.6 514 C 988.6 580, 1070.2 550, 1070.2 616" fill="none" stroke="#141416" stroke-opacity="0.45" stroke-width="2.5"/><circle cx="1070.2" cy="640" r="24" fill="#2F5F63" fill-opacity="0.9"/><rect x="924.6" y="466" width="128" height="48" rx="8" fill="#FAF8F3" stroke="#141416" stroke-width="3"/><line x1="948.6" y1="490" x2="1028.6" y2="490" stroke="#141416" stroke-opacity="0.35" stroke-width="6" stroke-linecap="round"/><path d="M1160 364 C 1160 430, 1331.4 400, 1331.4 466" fill="none" stroke="#141416" stroke-opacity="0.45" stroke-width="2.5"/><path d="M1331.4 514 C 1331.4 580, 1249.8 550, 1249.8 616" fill="none" stroke="#141416" stroke-opacity="0.45" stroke-width="2.5"/><circle cx="1249.8" cy="640" r="24" fill="#2F5F63" fill-opacity="0.9"/><path d="M1331.4 514 C 1331.4 580, 1413.1 550, 1413.1 616" fill="none" stroke="#141416" stroke-opacity="0.45" stroke-width="2.5"/><circle cx="1413.1" cy="640" r="24" fill="#141416" fill-opacity="0.75"/><rect x="1267.4" y="466" width="128" height="48" rx="8" fill="#FAF8F3" stroke="#141416" stroke-width="3"/><line x1="1291.4" y1="490" x2="1371.4" y2="490" stroke="#141416" stroke-opacity="0.35" stroke-width="6" stroke-linecap="round"/><rect x="1096" y="316" width="128" height="48" rx="8" fill="#FAF8F3" stroke="#141416" stroke-width="3"/><line x1="1120" y1="340" x2="1200" y2="340" stroke="#141416" stroke-opacity="0.35" stroke-width="6" stroke-linecap="round"/><rect x="736" y="166" width="128" height="48" rx="8" fill="#FAF8F3" stroke="#141416" stroke-width="3"/><line x1="760" y1="190" x2="840" y2="190" stroke="#141416" stroke-opacity="0.35" stroke-width="6" stroke-linecap="round"/></g>
  <rect width="1600" height="1000" filter="url(#grain)" opacity="0.7"/>
  <rect x="40" y="40" width="1520" height="920" fill="none" stroke="#141416" stroke-opacity="0.35" stroke-width="2"/>
  <text x="90" y="104" font-family="ui-monospace, 'JetBrains Mono', Menlo, monospace" font-size="24" letter-spacing="4" fill="#6B6B70">AI &amp; MACHINE LEARNING  ·  2025</text>
  <circle cx="1500" cy="96" r="10" fill="#2F5F63"/>
  <rect x="1152" y="780" width="388" height="180" fill="#FAF8F3" fill-opacity="0.82" rx="8"/>
  <text x="1510" y="904" text-anchor="end" font-family="Georgia, 'Times New Roman', serif" font-size="150" font-weight="500" fill="#141416" letter-spacing="-6">100%</text>
  <text x="1508" y="942" text-anchor="end" font-family="ui-monospace, 'JetBrains Mono', Menlo, monospace" font-size="22" letter-spacing="3" fill="#6B6B70">TEST ACCURACY</text>
</svg>
