<svg xmlns="http://www.w3.org/2000/svg" width="1600" height="1000" viewBox="0 0 1600 1000" role="img" aria-label="Single-Cycle RISC-V Processor thumbnail">
  <defs>
    <filter id="grain" x="0" y="0" width="100%" height="100%">
      <feTurbulence type="fractalNoise" baseFrequency="0.9" numOctaves="2" stitchTiles="stitch"/>
      <feColorMatrix type="saturate" values="0"/>
      <feComponentTransfer><feFuncA type="table" tableValues="0 0.06"/></feComponentTransfer>
    </filter>
    <clipPath id="safe"><rect x="50" y="110" width="1500" height="790"/></clipPath>
  </defs>
  <rect width="1600" height="1000" fill="#FAF8F3"/>
  <g clip-path="url(#safe)"><line x1="190" y1="485" x2="240" y2="485" stroke="#141416" stroke-width="6" stroke-opacity="0.5"/><line x1="430" y1="485" x2="520" y2="485" stroke="#141416" stroke-width="6" stroke-opacity="0.5"/><line x1="720" y1="445" x2="820" y2="445" stroke="#1F4E79" stroke-width="8" stroke-opacity="0.9"/><line x1="720" y1="525" x2="820" y2="525" stroke="#1F4E79" stroke-width="8" stroke-opacity="0.9"/><line x1="960" y1="485" x2="1060" y2="485" stroke="#1F4E79" stroke-width="8" stroke-opacity="0.9"/><line x1="1250" y1="485" x2="1390" y2="485" stroke="#141416" stroke-width="6" stroke-opacity="0.5"/><path d="M1390 485 L1390 800 L470 800 L470 565 L520 565" fill="none" stroke="#141416" stroke-opacity="0.5" stroke-width="5"/><rect x="100" y="435" width="90" height="100" rx="8" fill="#FAF8F3" stroke="#141416" stroke-width="3.5"/><text x="114" y="467" font-family="ui-monospace, 'JetBrains Mono', Menlo, monospace" font-size="19" fill="#141416">PC</text><rect x="240" y="395" width="190" height="180" rx="8" fill="#FAF8F3" stroke="#141416" stroke-width="3.5"/><text x="254" y="427" font-family="ui-monospace, 'JetBrains Mono', Menlo, monospace" font-size="19" fill="#141416">Instr Mem</text><rect x="520" y="365" width="200" height="240" rx="8" fill="#FAF8F3" stroke="#141416" stroke-width="3.5"/><text x="534" y="397" font-family="ui-monospace, 'JetBrains Mono', Menlo, monospace" font-size="19" fill="#141416">Reg File</text><rect x="520" y="635" width="200" height="80" rx="8" fill="#FAF8F3" stroke="#141416" stroke-width="3.5"/><text x="534" y="667" font-family="ui-monospace, 'JetBrains Mono', Menlo, monospace" font-size="19" fill="#141416">Imm Gen</text><path d="M820 405 L960 445 L960 525 L820 565 L820 505 L850 485 L820 465 Z" fill="rgba(31,78,121,0.15)" stroke="#141416" stroke-width="3.5"/><text x="834" y="493" font-family="ui-monospace, 'JetBrains Mono', Menlo, monospace" font-size="19" fill="#141416">ALU</text><rect x="1060" y="395" width="190" height="180" rx="8" fill="#FAF8F3" stroke="#141416" stroke-width="3.5"/><text x="1074" y="427" font-family="ui-monospace, 'JetBrains Mono', Menlo, monospace" font-size="19" fill="#141416">Data Mem</text><rect x="520" y="160" width="200" height="80" rx="8" fill="#141416" stroke="#141416" stroke-width="3.5"/><text x="534" y="192" font-family="ui-monospace, 'JetBrains Mono', Menlo, monospace" font-size="19" fill="#FAF8F3">Control</text><rect x="820" y="160" width="190" height="80" rx="8" fill="#141416" stroke="#141416" stroke-width="3.5"/><text x="834" y="192" font-family="ui-monospace, 'JetBrains Mono', Menlo, monospace" font-size="19" fill="#FAF8F3">Branch Cmp</text><line x1="610" y1="240" x2="610" y2="390" stroke="#1F4E79" stroke-width="2.5" stroke-dasharray="6 6"/><line x1="890" y1="240" x2="890" y2="390" stroke="#1F4E79" stroke-width="2.5" stroke-dasharray="6 6"/><line x1="1150" y1="240" x2="1150" y2="390" stroke="#1F4E79" stroke-width="2.5" stroke-dasharray="6 6"/></g>
  <rect width="1600" height="1000" filter="url(#grain)" opacity="0.7"/>
  <rect x="40" y="40" width="1520" height="920" fill="none" stroke="#141416" stroke-opacity="0.35" stroke-width="2"/>
  <text x="90" y="104" font-family="ui-monospace, 'JetBrains Mono', Menlo, monospace" font-size="24" letter-spacing="4" fill="#6B6B70">FPGA &amp; DIGITAL DESIGN  ·  2025</text>
  <circle cx="1500" cy="96" r="10" fill="#1F4E79"/>
  <rect x="1070" y="780" width="470" height="180" fill="#FAF8F3" fill-opacity="0.82" rx="8"/>
  <text x="1510" y="904" text-anchor="end" font-family="Georgia, 'Times New Roman', serif" font-size="150" font-weight="500" fill="#141416" letter-spacing="-6">RV32I</text>
  <text x="1508" y="942" text-anchor="end" font-family="ui-monospace, 'JetBrains Mono', Menlo, monospace" font-size="22" letter-spacing="3" fill="#6B6B70">FULL ISA</text>
</svg>
