<svg xmlns="http://www.w3.org/2000/svg" width="1600" height="1000" viewBox="0 0 1600 1000" role="img" aria-label="TechStore Chatbot thumbnail">
  <defs>
    <filter id="grain" x="0" y="0" width="100%" height="100%">
      <feTurbulence type="fractalNoise" baseFrequency="0.9" numOctaves="2" stitchTiles="stitch"/>
      <feColorMatrix type="saturate" values="0"/>
      <feComponentTransfer><feFuncA type="table" tableValues="0 0.06"/></feComponentTransfer>
    </filter>
    <clipPath id="safe"><rect x="50" y="110" width="1500" height="790"/></clipPath>
  </defs>
  <rect width="1600" height="1000" fill="#FAF8F3"/>
  <g clip-path="url(#safe)"><rect x="90" y="160" width="420" height="145.7" rx="10" fill="#FAF8F3" stroke="#D9D4C9" stroke-width="3"/><line x1="116" y1="190" x2="336.3" y2="190" stroke="#141416" stroke-opacity="0.18" stroke-width="6" stroke-linecap="round"/><line x1="116" y1="216" x2="299.4" y2="216" stroke="#141416" stroke-opacity="0.18" stroke-width="6" stroke-linecap="round"/><line x1="116" y1="242" x2="463.4" y2="242" stroke="#141416" stroke-opacity="0.18" stroke-width="6" stroke-linecap="round"/><line x1="116" y1="268" x2="482.9" y2="268" stroke="#141416" stroke-opacity="0.18" stroke-width="6" stroke-linecap="round"/><rect x="90" y="331.7" width="420" height="143.4" rx="10" fill="#FAF8F3" stroke="#D9D4C9" stroke-width="3"/><line x1="116" y1="361.7" x2="424.3" y2="361.7" stroke="#141416" stroke-opacity="0.5" stroke-width="6" stroke-linecap="round"/><line x1="116" y1="387.7" x2="346.3" y2="387.7" stroke="#141416" stroke-opacity="0.5" stroke-width="6" stroke-linecap="round"/><line x1="116" y1="413.7" x2="372" y2="413.7" stroke="#141416" stroke-opacity="0.5" stroke-width="6" stroke-linecap="round"/><line x1="116" y1="439.7" x2="320.6" y2="439.7" stroke="#141416" stroke-opacity="0.5" stroke-width="6" stroke-linecap="round"/><rect x="84" y="325.7" width="432" height="155.4" rx="14" fill="none" stroke="#B8412B" stroke-width="4"/><rect x="90" y="501.1" width="420" height="121.1" rx="10" fill="#FAF8F3" stroke="#D9D4C9" stroke-width="3"/><line x1="116" y1="531.1" x2="459.4" y2="531.1" stroke="#141416" stroke-opacity="0.18" stroke-width="6" stroke-linecap="round"/><line x1="116" y1="557.1" x2="452.3" y2="557.1" stroke="#141416" stroke-opacity="0.18" stroke-width="6" stroke-linecap="round"/><line x1="116" y1="583.1" x2="442.4" y2="583.1" stroke="#141416" stroke-opacity="0.18" stroke-width="6" stroke-linecap="round"/><rect x="90" y="648.2" width="420" height="129.6" rx="10" fill="#FAF8F3" stroke="#D9D4C9" stroke-width="3"/><line x1="116" y1="678.2" x2="328.4" y2="678.2" stroke="#141416" stroke-opacity="0.18" stroke-width="6" stroke-linecap="round"/><line x1="116" y1="704.2" x2="373.7" y2="704.2" stroke="#141416" stroke-opacity="0.18" stroke-width="6" stroke-linecap="round"/><line x1="116" y1="730.2" x2="402.8" y2="730.2" stroke="#141416" stroke-opacity="0.18" stroke-width="6" stroke-linecap="round"/><path d="M530 400 C 650 400, 650 480, 730 480" stroke="#B8412B" stroke-width="4" fill="none" stroke-dasharray="2 12" stroke-linecap="round"/><rect x="770" y="170" width="342.6" height="81.6" rx="26" fill="#FAF8F3" fill-opacity="1" stroke="#141416" stroke-opacity="0.5" stroke-width="3"/><line x1="800" y1="202" x2="1070.5" y2="202" stroke="#141416" stroke-opacity="0.25" stroke-width="7" stroke-linecap="round"/><rect x="976.7" y="279.6" width="533.3" height="81" rx="26" fill="#B8412B" fill-opacity="0.92" stroke="#B8412B" stroke-opacity="1" stroke-width="3"/><line x1="1006.7" y1="311.6" x2="1228.6" y2="311.6" stroke="#FAF8F3" stroke-opacity="0.85" stroke-width="7" stroke-linecap="round"/><rect x="770" y="388.7" width="471.9" height="98.2" rx="26" fill="#FAF8F3" fill-opacity="1" stroke="#141416" stroke-opacity="0.5" stroke-width="3"/><line x1="800" y1="420.7" x2="1016.7" y2="420.7" stroke="#141416" stroke-opacity="0.25" stroke-width="7" stroke-linecap="round"/><line x1="800" y1="448.7" x2="1064.1" y2="448.7" stroke="#141416" stroke-opacity="0.25" stroke-width="7" stroke-linecap="round"/><rect x="1080.1" y="514.8" width="429.9" height="115.7" rx="26" fill="#B8412B" fill-opacity="0.92" stroke="#B8412B" stroke-opacity="1" stroke-width="3"/><line x1="1110.1" y1="546.8" x2="1458.2" y2="546.8" stroke="#FAF8F3" stroke-opacity="0.85" stroke-width="7" stroke-linecap="round"/><line x1="1110.1" y1="574.8" x2="1465.1" y2="574.8" stroke="#FAF8F3" stroke-opacity="0.85" stroke-width="7" stroke-linecap="round"/><circle cx="804" cy="688.6" r="8" fill="#141416" fill-opacity="0.35"/><circle cx="834" cy="688.6" r="8" fill="#141416" fill-opacity="0.55"/><circle cx="864" cy="688.6" r="8" fill="#141416" fill-opacity="0.85"/></g>
  <rect width="1600" height="1000" filter="url(#grain)" opacity="0.7"/>
  <rect x="40" y="40" width="1520" height="920" fill="none" stroke="#141416" stroke-opacity="0.35" stroke-width="2"/>
  <text x="90" y="104" font-family="ui-monospace, 'JetBrains Mono', Menlo, monospace" font-size="24" letter-spacing="4" fill="#6B6B70">LLMS, RAG &amp; AGENTS  ·  2026</text>
  <circle cx="1500" cy="96" r="10" fill="#B8412B"/>
  
</svg>
