<svg xmlns="http://www.w3.org/2000/svg" width="1600" height="1000" viewBox="0 0 1600 1000" role="img" aria-label="Trans-Neptunian Object Detection thumbnail">
  <defs>
    <filter id="grain" x="0" y="0" width="100%" height="100%">
      <feTurbulence type="fractalNoise" baseFrequency="0.9" numOctaves="2" stitchTiles="stitch"/>
      <feColorMatrix type="saturate" values="0"/>
      <feComponentTransfer><feFuncA type="table" tableValues="0 0.06"/></feComponentTransfer>
    </filter>
    <clipPath id="safe"><rect x="50" y="110" width="1500" height="790"/></clipPath>
  </defs>
  <rect width="1600" height="1000" fill="#FAF8F3"/>
  <g clip-path="url(#safe)"><line x1="90" y1="150" x2="90" y2="820" stroke="#141416" stroke-opacity="0.05"/><line x1="130" y1="150" x2="130" y2="820" stroke="#141416" stroke-opacity="0.05"/><line x1="170" y1="150" x2="170" y2="820" stroke="#141416" stroke-opacity="0.05"/><line x1="210" y1="150" x2="210" y2="820" stroke="#141416" stroke-opacity="0.05"/><line x1="250" y1="150" x2="250" y2="820" stroke="#141416" stroke-opacity="0.05"/><line x1="290" y1="150" x2="290" y2="820" stroke="#141416" stroke-opacity="0.05"/><line x1="330" y1="150" x2="330" y2="820" stroke="#141416" stroke-opacity="0.05"/><line x1="370" y1="150" x2="370" y2="820" stroke="#141416" stroke-opacity="0.05"/><line x1="410" y1="150" x2="410" y2="820" stroke="#141416" stroke-opacity="0.05"/><line x1="450" y1="150" x2="450" y2="820" stroke="#141416" stroke-opacity="0.05"/><line x1="490" y1="150" x2="490" y2="820" stroke="#141416" stroke-opacity="0.05"/><line x1="530" y1="150" x2="530" y2="820" stroke="#141416" stroke-opacity="0.05"/><line x1="570" y1="150" x2="570" y2="820" stroke="#141416" stroke-opacity="0.05"/><line x1="610" y1="150" x2="610" y2="820" stroke="#141416" stroke-opacity="0.05"/><line x1="650" y1="150" x2="650" y2="820" stroke="#141416" stroke-opacity="0.05"/><line x1="690" y1="150" x2="690" y2="820" stroke="#141416" stroke-opacity="0.05"/><line x1="730" y1="150" x2="730" y2="820" stroke="#141416" stroke-opacity="0.05"/><line x1="770" y1="150" x2="770" y2="820" stroke="#141416" stroke-opacity="0.05"/><line x1="810" y1="150" x2="810" y2="820" stroke="#141416" stroke-opacity="0.05"/><line x1="850" y1="150" x2="850" y2="820" stroke="#141416" stroke-opacity="0.05"/><line x1="890" y1="150" x2="890" y2="820" stroke="#141416" stroke-opacity="0.05"/><line x1="930" y1="150" x2="930" y2="820" stroke="#141416" stroke-opacity="0.05"/><line x1="970" y1="150" x2="970" y2="820" stroke="#141416" stroke-opacity="0.05"/><line x1="1010" y1="150" x2="1010" y2="820" stroke="#141416" stroke-opacity="0.05"/><line x1="1050" y1="150" x2="1050" y2="820" stroke="#141416" stroke-opacity="0.05"/><line x1="1090" y1="150" x2="1090" y2="820" stroke="#141416" stroke-opacity="0.05"/><line x1="1130" y1="150" x2="1130" y2="820" stroke="#141416" stroke-opacity="0.05"/><line x1="1170" y1="150" x2="1170" y2="820" stroke="#141416" stroke-opacity="0.05"/><line x1="1210" y1="150" x2="1210" y2="820" stroke="#141416" stroke-opacity="0.05"/><line x1="1250" y1="150" x2="1250" y2="820" stroke="#141416" stroke-opacity="0.05"/><line x1="1290" y1="150" x2="1290" y2="820" stroke="#141416" stroke-opacity="0.05"/><line x1="1330" y1="150" x2="1330" y2="820" stroke="#141416" stroke-opacity="0.05"/><line x1="1370" y1="150" x2="1370" y2="820" stroke="#141416" stroke-opacity="0.05"/><line x1="1410" y1="150" x2="1410" y2="820" stroke="#141416" stroke-opacity="0.05"/><line x1="1450" y1="150" x2="1450" y2="820" stroke="#141416" stroke-opacity="0.05"/><line x1="1490" y1="150" x2="1490" y2="820" stroke="#141416" stroke-opacity="0.05"/><line x1="90" y1="150" x2="1510" y2="150" stroke="#141416" stroke-opacity="0.05"/><line x1="90" y1="190" x2="1510" y2="190" stroke="#141416" stroke-opacity="0.05"/><line x1="90" y1="230" x2="1510" y2="230" stroke="#141416" stroke-opacity="0.05"/><line x1="90" y1="270" x2="1510" y2="270" stroke="#141416" stroke-opacity="0.05"/><line x1="90" y1="310" x2="1510" y2="310" stroke="#141416" stroke-opacity="0.05"/><line x1="90" y1="350" x2="1510" y2="350" stroke="#141416" stroke-opacity="0.05"/><line x1="90" y1="390" x2="1510" y2="390" stroke="#141416" stroke-opacity="0.05"/><line x1="90" y1="430" x2="1510" y2="430" stroke="#141416" stroke-opacity="0.05"/><line x1="90" y1="470" x2="1510" y2="470" stroke="#141416" stroke-opacity="0.05"/><line x1="90" y1="510" x2="1510" y2="510" stroke="#141416" stroke-opacity="0.05"/><line x1="90" y1="550" x2="1510" y2="550" stroke="#141416" stroke-opacity="0.05"/><line x1="90" y1="590" x2="1510" y2="590" stroke="#141416" stroke-opacity="0.05"/><line x1="90" y1="630" x2="1510" y2="630" stroke="#141416" stroke-opacity="0.05"/><line x1="90" y1="670" x2="1510" y2="670" stroke="#141416" stroke-opacity="0.05"/><line x1="90" y1="710" x2="1510" y2="710" stroke="#141416" stroke-opacity="0.05"/><line x1="90" y1="750" x2="1510" y2="750" stroke="#141416" stroke-opacity="0.05"/><line x1="90" y1="790" x2="1510" y2="790" stroke="#141416" stroke-opacity="0.05"/><path d="M1245.6 469.9 L1232.7 513.5 L1205.9 561.1 L1144 587.2 L1083.4 559.1 L1024.9 528.4 L989.2 469.9 L1028.6 413.2 L1073.3 365.8 L1144 372.1 L1219.9 358.1 L1237.4 424 Z" fill="#2F5F63" fill-opacity="0.4" stroke="#2F5F63" stroke-width="2.5" stroke-linejoin="round"/><path d="M1069.1 673.7 L1014.7 727.5 L952.7 787.4 L805.1 780.2 L668.8 778.7 L554.1 738.2 L553 673.7 L575.2 614.6 L668.3 568.3 L805.1 559.8 L948 563.6 L977.9 629.3 Z" fill="#8da7a9" fill-opacity="0.4" stroke="#8da7a9" stroke-width="2.5" stroke-linejoin="round"/><path d="M756.8 327.2 L733.6 367 L668.6 421.1 L516.9 408.2 L455.5 363 L380.5 327.2 L414.4 280.2 L527.2 258.2 L664.8 237.7 L773.4 276.5 Z" fill="#264548" fill-opacity="0.3" stroke="#264548" stroke-width="2.5" stroke-linejoin="round"/><path d="M1160.3 469.6 L1213.9 518.1 L1111.4 551.2 L980.4 558.6 L877.7 533.5 L747.3 518 L719 469.6 L751.5 422.2 L883.2 409.2 L980.4 368.8 L1098.1 396.4 L1158.7 432.7 Z" fill="#7A5C1E" fill-opacity="0.4" stroke="#7A5C1E" stroke-width="2.5" stroke-linejoin="round"/><path d="M1474.7 556.9 L1387.3 640.7 L1301.4 689.9 L1199.4 687.8 L1076 663.1 L1009.8 556.9 L1120.6 477.8 L1177.3 368.7 L1325.5 361.3 L1385.8 473.9 Z" fill="#4E6B2F" fill-opacity="0.4" stroke="#4E6B2F" stroke-width="2.5" stroke-linejoin="round"/><path d="M1008.3 616 L966.7 725.9 L858 787.1 L745.3 750.3 L592.8 745.3 L639.6 616 L628.1 509.2 L736.2 456.9 L871.3 408.8 L954.1 514 Z" fill="#2F5F63" fill-opacity="0.4" stroke="#2F5F63" stroke-width="2.5" stroke-linejoin="round"/><path d="M1269.9 565.3 L1271 650.8 L1203.6 714.6 L1113.4 753.2 L1039.5 678.5 L959.3 666.5 L891.5 608.3 L947.4 534.6 L951.1 457.7 L1038.4 449.6 L1111.1 394 L1194.5 427.8 L1212.1 507.3 Z" fill="#8da7a9" fill-opacity="0.4" stroke="#8da7a9" stroke-width="2.5" stroke-linejoin="round"/><rect x="575.4" y="262.1" width="357.9" height="222" fill="none" stroke="#141416" stroke-width="3" stroke-dasharray="14 10"/><rect x="575.4" y="228.1" width="118" height="34" fill="#141416"/><text x="587.4" y="251.1" font-family="ui-monospace, 'JetBrains Mono', Menlo, monospace" font-size="19" fill="#FAF8F3">obj 0.87</text><rect x="825.2" y="362.4" width="345.7" height="177.5" fill="none" stroke="#141416" stroke-width="3" stroke-dasharray="14 10"/><rect x="825.2" y="328.4" width="118" height="34" fill="#141416"/><text x="837.2" y="351.4" font-family="ui-monospace, 'JetBrains Mono', Menlo, monospace" font-size="19" fill="#FAF8F3">obj 0.95</text></g>
  <rect width="1600" height="1000" filter="url(#grain)" opacity="0.7"/>
  <rect x="40" y="40" width="1520" height="920" fill="none" stroke="#141416" stroke-opacity="0.35" stroke-width="2"/>
  <text x="90" y="104" font-family="ui-monospace, 'JetBrains Mono', Menlo, monospace" font-size="24" letter-spacing="4" fill="#6B6B70">AI &amp; MACHINE LEARNING  ·  2026</text>
  <circle cx="1500" cy="96" r="10" fill="#2F5F63"/>
  <text x="1510" y="904" text-anchor="end" font-family="Georgia, 'Times New Roman', serif" font-size="150" font-weight="500" fill="#141416" letter-spacing="-6">4–20</text>
  <text x="1508" y="942" text-anchor="end" font-family="ui-monospace, 'JetBrains Mono', Menlo, monospace" font-size="22" letter-spacing="3" fill="#6B6B70">FRAMES PER SEQUENCE</text>
</svg>
